G04 #@! TF.FileFunction,Soldermask,Bot*
%FSLAX46Y46*%
G04 Gerber Fmt 4.6, Leading zero omitted, Abs format (unit mm)*
G04 Created by KiCad (PCBNEW (2016-06-08 BZR 6904)-stable) date Sat Jun 25 00:42:27 2016*
%MOMM*%
%LPD*%
G01*
G04 APERTURE LIST*
%ADD10C,0.152400*%
%ADD11C,2.700000*%
%ADD12R,1.727200X2.032000*%
%ADD13O,1.727200X2.032000*%
%ADD14O,0.950000X1.250000*%
%ADD15O,1.550000X1.000000*%
%ADD16R,0.500000X0.500000*%
%ADD17R,0.762000X0.762000*%
%ADD18R,0.152400X1.016000*%
G04 APERTURE END LIST*
D10*
D11*
X27940000Y-67310000D03*
D12*
X27940000Y-27940000D03*
D13*
X30480000Y-27940000D03*
X33020000Y-27940000D03*
X35560000Y-27940000D03*
X38100000Y-27940000D03*
X40640000Y-27940000D03*
X43180000Y-27940000D03*
X45720000Y-27940000D03*
X48260000Y-27940000D03*
X50800000Y-27940000D03*
X53340000Y-27940000D03*
X55880000Y-27940000D03*
X58420000Y-27940000D03*
X60960000Y-27940000D03*
X63500000Y-27940000D03*
X66040000Y-27940000D03*
X68580000Y-27940000D03*
X71120000Y-27940000D03*
D12*
X27940000Y-71120000D03*
D13*
X30480000Y-71120000D03*
X33020000Y-71120000D03*
X35560000Y-71120000D03*
X38100000Y-71120000D03*
X40640000Y-71120000D03*
X43180000Y-71120000D03*
X45720000Y-71120000D03*
X48260000Y-71120000D03*
X50800000Y-71120000D03*
X53340000Y-71120000D03*
X55880000Y-71120000D03*
X58420000Y-71120000D03*
X60960000Y-71120000D03*
X63500000Y-71120000D03*
X66040000Y-71120000D03*
X68580000Y-71120000D03*
X71120000Y-71120000D03*
D14*
X29547800Y-35910000D03*
X29547800Y-40910000D03*
D15*
X26847800Y-34910000D03*
X26847800Y-41910000D03*
D16*
X46482000Y-30289500D03*
X45720000Y-30289500D03*
X43942000Y-30289500D03*
X43180000Y-30289500D03*
D11*
X71120000Y-31750000D03*
D17*
X30607000Y-45812000D03*
X30607000Y-44512000D03*
D18*
X30607000Y-45212000D03*
M02*
