G04 #@! TF.FileFunction,Copper,L1,Top,Signal*
%FSLAX46Y46*%
G04 Gerber Fmt 4.6, Leading zero omitted, Abs format (unit mm)*
G04 Created by KiCad (PCBNEW (2016-06-08 BZR 6904)-stable) date Sat Jun 25 00:42:27 2016*
%MOMM*%
%LPD*%
G01*
G04 APERTURE LIST*
%ADD10C,0.152400*%
%ADD11C,0.010000*%
%ADD12C,0.600000*%
%ADD13R,0.590000X0.450000*%
%ADD14R,0.600000X0.800000*%
%ADD15R,1.727200X2.032000*%
%ADD16O,1.727200X2.032000*%
%ADD17R,2.032000X3.657600*%
%ADD18R,2.032000X1.016000*%
%ADD19R,0.800000X0.600000*%
%ADD20R,1.520000X1.520000*%
%ADD21R,0.680000X0.250000*%
%ADD22R,0.250000X0.680000*%
%ADD23R,1.500000X0.800000*%
%ADD24R,0.950000X0.850000*%
%ADD25O,0.850000X0.300000*%
%ADD26O,0.300000X0.850000*%
%ADD27R,1.675000X1.675000*%
%ADD28R,0.500000X0.500000*%
%ADD29R,0.500000X0.900000*%
%ADD30R,1.350000X0.400000*%
%ADD31O,0.950000X1.250000*%
%ADD32O,1.550000X1.000000*%
%ADD33R,0.400000X0.400000*%
%ADD34C,0.406400*%
%ADD35C,0.203200*%
%ADD36C,0.304800*%
%ADD37C,0.254000*%
G04 APERTURE END LIST*
D10*
G36*
X72091000Y-44464000D02*
X67191000Y-44464000D01*
X67191000Y-44964000D01*
X72091000Y-44964000D01*
X72091000Y-44464000D01*
X72091000Y-44464000D01*
G37*
G36*
X72091000Y-42164000D02*
X67191000Y-42164000D01*
X67191000Y-43064000D01*
X72091000Y-43064000D01*
X72091000Y-42164000D01*
X72091000Y-42164000D01*
G37*
G36*
X72591000Y-42164000D02*
X72091000Y-42164000D01*
X72091000Y-47164000D01*
X72591000Y-47164000D01*
X72591000Y-42164000D01*
X72591000Y-42164000D01*
G37*
G36*
X72091000Y-46664000D02*
X69451000Y-46664000D01*
X69451000Y-47164000D01*
X72091000Y-47164000D01*
X72091000Y-46664000D01*
X72091000Y-46664000D01*
G37*
G36*
X69951000Y-47164000D02*
X69451000Y-47164000D01*
X69451000Y-49164000D01*
X69951000Y-49164000D01*
X69951000Y-47164000D01*
X69951000Y-47164000D01*
G37*
G36*
X72091000Y-49114000D02*
X69451000Y-49114000D01*
X69451000Y-49614000D01*
X72091000Y-49614000D01*
X72091000Y-49114000D01*
X72091000Y-49114000D01*
G37*
G36*
X72591000Y-49114000D02*
X72091000Y-49114000D01*
X72091000Y-51814000D01*
X72591000Y-51814000D01*
X72591000Y-49114000D01*
X72591000Y-49114000D01*
G37*
G36*
X72091000Y-51314000D02*
X69451000Y-51314000D01*
X69451000Y-51814000D01*
X72091000Y-51814000D01*
X72091000Y-51314000D01*
X72091000Y-51314000D01*
G37*
G36*
X69951000Y-51814000D02*
X69451000Y-51814000D01*
X69451000Y-53814000D01*
X69951000Y-53814000D01*
X69951000Y-51814000D01*
X69951000Y-51814000D01*
G37*
G36*
X72091000Y-53814000D02*
X69451000Y-53814000D01*
X69451000Y-54314000D01*
X72091000Y-54314000D01*
X72091000Y-53814000D01*
X72091000Y-53814000D01*
G37*
G36*
X72591000Y-53814000D02*
X72091000Y-53814000D01*
X72091000Y-56514000D01*
X72591000Y-56514000D01*
X72591000Y-53814000D01*
X72591000Y-53814000D01*
G37*
G36*
X72091000Y-56014000D02*
X68151000Y-56014000D01*
X68151000Y-56514000D01*
X72091000Y-56514000D01*
X72091000Y-56014000D01*
X72091000Y-56014000D01*
G37*
D11*
G36*
X56058675Y-47504350D02*
X26547050Y-47504350D01*
X26547050Y-64506475D01*
X55534800Y-64506475D01*
X55534800Y-48615600D01*
X27658300Y-48615600D01*
X27658300Y-63411100D01*
X54423550Y-63411100D01*
X54423550Y-49710975D01*
X28753675Y-49710975D01*
X28753675Y-62299850D01*
X53328175Y-62299850D01*
X53328175Y-50806350D01*
X29849050Y-50806350D01*
X29849050Y-61204475D01*
X52232800Y-61204475D01*
X52232800Y-51917600D01*
X30944425Y-51917600D01*
X30944425Y-60109100D01*
X51121550Y-60109100D01*
X51121550Y-53012975D01*
X32055675Y-53012975D01*
X32055675Y-58997850D01*
X50026175Y-58997850D01*
X50026175Y-54108350D01*
X33151050Y-54108350D01*
X33151050Y-57902475D01*
X48930800Y-57902475D01*
X48930800Y-55219600D01*
X34246425Y-55219600D01*
X34246425Y-56807100D01*
X47819550Y-56807100D01*
X47819550Y-55806975D01*
X48343425Y-55806975D01*
X48343425Y-57315100D01*
X33738425Y-57315100D01*
X33738425Y-54711600D01*
X49454675Y-54711600D01*
X49454675Y-58431433D01*
X49061768Y-58420988D01*
X49021090Y-58420329D01*
X48949670Y-58419681D01*
X48848518Y-58419044D01*
X48718643Y-58418420D01*
X48561053Y-58417810D01*
X48376757Y-58417215D01*
X48166764Y-58416638D01*
X47932083Y-58416078D01*
X47673722Y-58415538D01*
X47392692Y-58415018D01*
X47089999Y-58414519D01*
X46766654Y-58414044D01*
X46423665Y-58413593D01*
X46062041Y-58413167D01*
X45682790Y-58412769D01*
X45286922Y-58412398D01*
X44875445Y-58412056D01*
X44449369Y-58411746D01*
X44009702Y-58411466D01*
X43557452Y-58411220D01*
X43093630Y-58411009D01*
X42619243Y-58410833D01*
X42135300Y-58410693D01*
X41642811Y-58410592D01*
X41142784Y-58410530D01*
X40655956Y-58410509D01*
X32643050Y-58410475D01*
X32643050Y-53600350D01*
X50550050Y-53600350D01*
X50550050Y-59505850D01*
X31547675Y-59505850D01*
X31547675Y-52504975D01*
X51645425Y-52504975D01*
X51645425Y-60617100D01*
X30436425Y-60617100D01*
X30436425Y-51409600D01*
X52756675Y-51409600D01*
X52756675Y-61712475D01*
X29341050Y-61712475D01*
X29341050Y-50298350D01*
X53852050Y-50298350D01*
X53852050Y-62807850D01*
X28245675Y-62807850D01*
X28245675Y-49202975D01*
X54947425Y-49202975D01*
X54947425Y-63919100D01*
X27150300Y-63919100D01*
X27150300Y-48107600D01*
X56058675Y-48107600D01*
X56058675Y-64982725D01*
X26070800Y-64982725D01*
X26070800Y-46996350D01*
X56058675Y-46996350D01*
X56058675Y-47504350D01*
X56058675Y-47504350D01*
G37*
X56058675Y-47504350D02*
X26547050Y-47504350D01*
X26547050Y-64506475D01*
X55534800Y-64506475D01*
X55534800Y-48615600D01*
X27658300Y-48615600D01*
X27658300Y-63411100D01*
X54423550Y-63411100D01*
X54423550Y-49710975D01*
X28753675Y-49710975D01*
X28753675Y-62299850D01*
X53328175Y-62299850D01*
X53328175Y-50806350D01*
X29849050Y-50806350D01*
X29849050Y-61204475D01*
X52232800Y-61204475D01*
X52232800Y-51917600D01*
X30944425Y-51917600D01*
X30944425Y-60109100D01*
X51121550Y-60109100D01*
X51121550Y-53012975D01*
X32055675Y-53012975D01*
X32055675Y-58997850D01*
X50026175Y-58997850D01*
X50026175Y-54108350D01*
X33151050Y-54108350D01*
X33151050Y-57902475D01*
X48930800Y-57902475D01*
X48930800Y-55219600D01*
X34246425Y-55219600D01*
X34246425Y-56807100D01*
X47819550Y-56807100D01*
X47819550Y-55806975D01*
X48343425Y-55806975D01*
X48343425Y-57315100D01*
X33738425Y-57315100D01*
X33738425Y-54711600D01*
X49454675Y-54711600D01*
X49454675Y-58431433D01*
X49061768Y-58420988D01*
X49021090Y-58420329D01*
X48949670Y-58419681D01*
X48848518Y-58419044D01*
X48718643Y-58418420D01*
X48561053Y-58417810D01*
X48376757Y-58417215D01*
X48166764Y-58416638D01*
X47932083Y-58416078D01*
X47673722Y-58415538D01*
X47392692Y-58415018D01*
X47089999Y-58414519D01*
X46766654Y-58414044D01*
X46423665Y-58413593D01*
X46062041Y-58413167D01*
X45682790Y-58412769D01*
X45286922Y-58412398D01*
X44875445Y-58412056D01*
X44449369Y-58411746D01*
X44009702Y-58411466D01*
X43557452Y-58411220D01*
X43093630Y-58411009D01*
X42619243Y-58410833D01*
X42135300Y-58410693D01*
X41642811Y-58410592D01*
X41142784Y-58410530D01*
X40655956Y-58410509D01*
X32643050Y-58410475D01*
X32643050Y-53600350D01*
X50550050Y-53600350D01*
X50550050Y-59505850D01*
X31547675Y-59505850D01*
X31547675Y-52504975D01*
X51645425Y-52504975D01*
X51645425Y-60617100D01*
X30436425Y-60617100D01*
X30436425Y-51409600D01*
X52756675Y-51409600D01*
X52756675Y-61712475D01*
X29341050Y-61712475D01*
X29341050Y-50298350D01*
X53852050Y-50298350D01*
X53852050Y-62807850D01*
X28245675Y-62807850D01*
X28245675Y-49202975D01*
X54947425Y-49202975D01*
X54947425Y-63919100D01*
X27150300Y-63919100D01*
X27150300Y-48107600D01*
X56058675Y-48107600D01*
X56058675Y-64982725D01*
X26070800Y-64982725D01*
X26070800Y-46996350D01*
X56058675Y-46996350D01*
X56058675Y-47504350D01*
D12*
X29972000Y-33274000D03*
X37338000Y-30480000D03*
X26416000Y-44831000D03*
X26416000Y-43561000D03*
X30226000Y-42926000D03*
X28956000Y-42291000D03*
X63500000Y-52832000D03*
X63500000Y-54102000D03*
X63500000Y-51562000D03*
X63500000Y-50292000D03*
X63500000Y-49022000D03*
X63500000Y-47752000D03*
X34036000Y-43434000D03*
X34036000Y-42164000D03*
X32766000Y-42799000D03*
X32766000Y-44069000D03*
D13*
X34114000Y-34671000D03*
X32004000Y-34671000D03*
D12*
X67310000Y-40005000D03*
D14*
X64070000Y-41402000D03*
X65470000Y-41402000D03*
D12*
X64770000Y-34925000D03*
X64770000Y-32385000D03*
X64770000Y-33655000D03*
X46736000Y-42164000D03*
X47244000Y-45720000D03*
X69850000Y-33655000D03*
X71120000Y-34290000D03*
X72644000Y-67564000D03*
X71374000Y-67564000D03*
X71374000Y-68834000D03*
X72644000Y-68834000D03*
X70104000Y-67564000D03*
X70104000Y-68834000D03*
X26428700Y-38811200D03*
X26428700Y-40081200D03*
X26428700Y-37541200D03*
X26428700Y-36271200D03*
X45974000Y-38100000D03*
X45974000Y-39370000D03*
X44704000Y-39370000D03*
X43434000Y-39370000D03*
X42164000Y-40640000D03*
X50038000Y-31750000D03*
X56388000Y-30480000D03*
X56388000Y-31750000D03*
X63500000Y-31750000D03*
X63500000Y-33020000D03*
X63500000Y-34290000D03*
X66040000Y-31750000D03*
X68580000Y-31750000D03*
X60960000Y-34290000D03*
X62230000Y-34925000D03*
X50038000Y-37846000D03*
D15*
X27940000Y-27940000D03*
D16*
X30480000Y-27940000D03*
X33020000Y-27940000D03*
X35560000Y-27940000D03*
X38100000Y-27940000D03*
X40640000Y-27940000D03*
X43180000Y-27940000D03*
X45720000Y-27940000D03*
X48260000Y-27940000D03*
X50800000Y-27940000D03*
X53340000Y-27940000D03*
X55880000Y-27940000D03*
X58420000Y-27940000D03*
X60960000Y-27940000D03*
X63500000Y-27940000D03*
X66040000Y-27940000D03*
X68580000Y-27940000D03*
X71120000Y-27940000D03*
D12*
X42164000Y-43180000D03*
X42164000Y-41910000D03*
X40894000Y-41910000D03*
X40894000Y-43180000D03*
X32766000Y-40259000D03*
X32766000Y-37084000D03*
X31496000Y-39624000D03*
X34036000Y-40894000D03*
X32766000Y-41529000D03*
X51308000Y-30480000D03*
X53848000Y-30480000D03*
X52578000Y-30480000D03*
X55118000Y-30480000D03*
X51308000Y-31750000D03*
X53848000Y-31750000D03*
X55118000Y-31750000D03*
X52578000Y-31750000D03*
X67310000Y-34925000D03*
X67310000Y-36195000D03*
X67310000Y-37465000D03*
X67310000Y-38735000D03*
X71120000Y-35560000D03*
X68580000Y-35560000D03*
X69850000Y-34925000D03*
X60960000Y-31750000D03*
X62230000Y-32385000D03*
X62230000Y-33655000D03*
X60960000Y-33020000D03*
X67310000Y-32385000D03*
X68580000Y-34290000D03*
X67310000Y-33655000D03*
X66040000Y-34290000D03*
X66040000Y-33020000D03*
X68580000Y-33020000D03*
X68580000Y-40640000D03*
X68580000Y-38100000D03*
X68580000Y-39370000D03*
X69850000Y-40005000D03*
X71120000Y-40640000D03*
X71120000Y-39370000D03*
X69850000Y-38735000D03*
X71120000Y-38100000D03*
X69850000Y-37465000D03*
X68580000Y-36830000D03*
X71120000Y-36830000D03*
X69850000Y-36195000D03*
X31496000Y-40894000D03*
X31496000Y-42164000D03*
X31496000Y-43434000D03*
D17*
X44704000Y-42164000D03*
D18*
X38100000Y-42164000D03*
X38100000Y-44450000D03*
X38100000Y-39878000D03*
D14*
X48385500Y-44386500D03*
X49785500Y-44386500D03*
X51371500Y-44386500D03*
X52771500Y-44386500D03*
D19*
X35306000Y-37847500D03*
X35306000Y-36447500D03*
X36830000Y-37847500D03*
X36830000Y-36447500D03*
X38354000Y-37847500D03*
X38354000Y-36447500D03*
X56515000Y-34482000D03*
X56515000Y-33082000D03*
X53467000Y-34482000D03*
X53467000Y-33082000D03*
X54991000Y-33082000D03*
X54991000Y-34482000D03*
D20*
X57760500Y-42947500D03*
X59280500Y-41427500D03*
X56240500Y-41427500D03*
X57760500Y-41427500D03*
X57760500Y-39907500D03*
D21*
X54900500Y-39227500D03*
X54900500Y-39627500D03*
X54900500Y-40027500D03*
X54900500Y-40427500D03*
X54900500Y-40827500D03*
X54900500Y-41227500D03*
X54900500Y-41627500D03*
X54900500Y-42027500D03*
X54900500Y-42427500D03*
X54900500Y-42827500D03*
X54900500Y-43227500D03*
X54900500Y-43627500D03*
D22*
X55560500Y-44287500D03*
X55960500Y-44287500D03*
X56360500Y-44287500D03*
X56760500Y-44287500D03*
X57160500Y-44287500D03*
X57560500Y-44287500D03*
X57960500Y-44287500D03*
X58360500Y-44287500D03*
X58760500Y-44287500D03*
X59160500Y-44287500D03*
X59560500Y-44287500D03*
X59960500Y-44287500D03*
D21*
X60620500Y-43627500D03*
X60620500Y-43227500D03*
X60620500Y-42827500D03*
X60620500Y-42427500D03*
X60620500Y-42027500D03*
X60620500Y-41627500D03*
X60620500Y-41227500D03*
X60620500Y-40827500D03*
X60620500Y-40427500D03*
X60620500Y-40027500D03*
X60620500Y-39627500D03*
X60620500Y-39227500D03*
D22*
X59960500Y-38567500D03*
X59560500Y-38567500D03*
X59160500Y-38567500D03*
X58760500Y-38567500D03*
X58360500Y-38567500D03*
X57960500Y-38567500D03*
X57560500Y-38567500D03*
X57160500Y-38567500D03*
X56760500Y-38567500D03*
X56360500Y-38567500D03*
X55960500Y-38567500D03*
X55560500Y-38567500D03*
D20*
X56240500Y-39907500D03*
X59280500Y-39907500D03*
X59280500Y-42947500D03*
X56240500Y-42947500D03*
D12*
X56260500Y-39927500D03*
X57260500Y-39927500D03*
X58260500Y-39927500D03*
X59260500Y-39927500D03*
X56260500Y-40927500D03*
X57260500Y-40927500D03*
X58260500Y-40927500D03*
X59260500Y-40927500D03*
X56260500Y-41927500D03*
X57260500Y-41927500D03*
X58260500Y-41927500D03*
X59260500Y-41927500D03*
X56260500Y-42927500D03*
X57260500Y-42927500D03*
X58260500Y-42927500D03*
X59260500Y-42927500D03*
D23*
X52641500Y-36582500D03*
X52641500Y-38982500D03*
D24*
X65458000Y-37401500D03*
X65458000Y-36251500D03*
X64008000Y-36251500D03*
X64008000Y-37401500D03*
D14*
X49909500Y-36512500D03*
X51309500Y-36512500D03*
X51309500Y-39052500D03*
X49909500Y-39052500D03*
D19*
X53848000Y-44512000D03*
X53848000Y-45912000D03*
X60960000Y-37528500D03*
X60960000Y-36128500D03*
X51943000Y-34482000D03*
X51943000Y-33082000D03*
X50419000Y-34482000D03*
X50419000Y-33082000D03*
D14*
X64045500Y-40157500D03*
X65445500Y-40157500D03*
X64045500Y-38887500D03*
X65445500Y-38887500D03*
D19*
X62484000Y-36128500D03*
X62484000Y-37528500D03*
X64389000Y-44704000D03*
X64389000Y-43304000D03*
D14*
X66867000Y-43688000D03*
X65467000Y-43688000D03*
X65467000Y-44704000D03*
X66867000Y-44704000D03*
D19*
X35369500Y-41403500D03*
X35369500Y-40003500D03*
X33782000Y-37847500D03*
X33782000Y-36447500D03*
D14*
X48385500Y-45783500D03*
X49785500Y-45783500D03*
X51371500Y-45783500D03*
X52771500Y-45783500D03*
D25*
X40476000Y-33716000D03*
X40476000Y-34216000D03*
X40476000Y-34716000D03*
X40476000Y-35216000D03*
X40476000Y-35716000D03*
X40476000Y-36216000D03*
X40476000Y-36716000D03*
D26*
X41426000Y-37666000D03*
X41926000Y-37666000D03*
X42426000Y-37666000D03*
X42926000Y-37666000D03*
X43426000Y-37666000D03*
X43926000Y-37666000D03*
X44426000Y-37666000D03*
D25*
X45376000Y-36716000D03*
X45376000Y-36216000D03*
X45376000Y-35716000D03*
X45376000Y-35216000D03*
X45376000Y-34716000D03*
X45376000Y-34216000D03*
X45376000Y-33716000D03*
D26*
X44426000Y-32766000D03*
X43926000Y-32766000D03*
X43426000Y-32766000D03*
X42926000Y-32766000D03*
X42426000Y-32766000D03*
X41926000Y-32766000D03*
X41426000Y-32766000D03*
D27*
X43763500Y-36053500D03*
X43763500Y-34378500D03*
X42088500Y-36053500D03*
X42088500Y-34378500D03*
D28*
X67441000Y-44714000D03*
D29*
X67441000Y-42614000D03*
D15*
X27940000Y-71120000D03*
D16*
X30480000Y-71120000D03*
X33020000Y-71120000D03*
X35560000Y-71120000D03*
X38100000Y-71120000D03*
X40640000Y-71120000D03*
X43180000Y-71120000D03*
X45720000Y-71120000D03*
X48260000Y-71120000D03*
X50800000Y-71120000D03*
X53340000Y-71120000D03*
X55880000Y-71120000D03*
X58420000Y-71120000D03*
X60960000Y-71120000D03*
X63500000Y-71120000D03*
X66040000Y-71120000D03*
X68580000Y-71120000D03*
X71120000Y-71120000D03*
D30*
X29547800Y-37110000D03*
X29547800Y-37760000D03*
X29547800Y-38410000D03*
X29547800Y-39060000D03*
X29547800Y-39710000D03*
D31*
X29547800Y-35910000D03*
X29547800Y-40910000D03*
D32*
X26847800Y-34910000D03*
X26847800Y-41910000D03*
D33*
X55856800Y-47281600D03*
X48056800Y-55981600D03*
D13*
X34114000Y-32639000D03*
X32004000Y-32639000D03*
D14*
X27977000Y-45720000D03*
X29427000Y-45720000D03*
X29402000Y-44196000D03*
X28002000Y-44196000D03*
D12*
X39179500Y-32829500D03*
X55118000Y-45847000D03*
X39624000Y-37846000D03*
X39624000Y-37846000D03*
X27940000Y-30226000D03*
X56947500Y-37511500D03*
X34544000Y-40005000D03*
X34371600Y-35560000D03*
X34290000Y-31750000D03*
X34036000Y-29718000D03*
X40970200Y-31470600D03*
X40919400Y-29692600D03*
X43180000Y-29692602D03*
X45720000Y-29595768D03*
X34861500Y-44450000D03*
X35560000Y-35560000D03*
X35560000Y-29972000D03*
X55014912Y-36931600D03*
X54864000Y-44449998D03*
X68580000Y-67564000D03*
X61595000Y-38608000D03*
X50673000Y-45085000D03*
X47497982Y-55880000D03*
X43179998Y-31542010D03*
X45720000Y-31542010D03*
X31178500Y-37147502D03*
X34163000Y-39243000D03*
X36322000Y-39162010D03*
X41073756Y-38660756D03*
X28575000Y-43180000D03*
D34*
X29547800Y-39710000D02*
X26799900Y-39710000D01*
X26799900Y-39710000D02*
X26428700Y-40081200D01*
X29547800Y-39710000D02*
X31410000Y-39710000D01*
X31410000Y-39710000D02*
X31496000Y-39624000D01*
D35*
X39179500Y-34047700D02*
X39179500Y-32829500D01*
X40476000Y-34716000D02*
X39847800Y-34716000D01*
X39847800Y-34716000D02*
X39179500Y-34047700D01*
D34*
X29547800Y-39710000D02*
X29547800Y-40910000D01*
X53848000Y-45912000D02*
X55053000Y-45912000D01*
X55053000Y-45912000D02*
X55118000Y-45847000D01*
X48385500Y-45783500D02*
X47307500Y-45783500D01*
X47307500Y-45783500D02*
X47244000Y-45720000D01*
X48385500Y-44386500D02*
X48385500Y-45783500D01*
D35*
X60620500Y-41227500D02*
X61801500Y-41227500D01*
X64259000Y-43307000D02*
X64324000Y-43242000D01*
X61801500Y-41227500D02*
X63881000Y-43307000D01*
X63881000Y-43307000D02*
X64259000Y-43307000D01*
X64324000Y-43242000D02*
X64643000Y-43242000D01*
X64643000Y-42738800D02*
X64643000Y-43242000D01*
X67441000Y-42614000D02*
X64767800Y-42614000D01*
X64767800Y-42614000D02*
X64643000Y-42738800D01*
D34*
X64643000Y-43242000D02*
X65021000Y-43242000D01*
X65021000Y-43242000D02*
X65467000Y-43688000D01*
X65445500Y-40157500D02*
X65445500Y-38887500D01*
X65470000Y-41402000D02*
X65470000Y-40182000D01*
X65470000Y-40182000D02*
X65445500Y-40157500D01*
X71120000Y-71120000D02*
X71120000Y-67818000D01*
X71120000Y-67818000D02*
X71374000Y-67564000D01*
D35*
X67441000Y-42614000D02*
X67441000Y-42668000D01*
X57204890Y-36829846D02*
X57204890Y-33671890D01*
X57204890Y-33671890D02*
X56615000Y-33082000D01*
X56615000Y-33082000D02*
X56515000Y-33082000D01*
X56947500Y-37511500D02*
X56947500Y-37087236D01*
X56947500Y-37087236D02*
X57204890Y-36829846D01*
D34*
X53848000Y-45912000D02*
X52900000Y-45912000D01*
X52900000Y-45912000D02*
X52771500Y-45783500D01*
X52832000Y-44323000D02*
X52832000Y-45463000D01*
X50319000Y-33082000D02*
X50419000Y-33082000D01*
X49326877Y-34074123D02*
X50319000Y-33082000D01*
X49909500Y-35706100D02*
X49326877Y-35123477D01*
X49909500Y-36512500D02*
X49909500Y-35706100D01*
X49326877Y-35123477D02*
X49326877Y-34074123D01*
X38100000Y-42164000D02*
X35750500Y-42164000D01*
X35750500Y-42164000D02*
X35369500Y-41783000D01*
X35369500Y-41783000D02*
X35369500Y-41403500D01*
D35*
X64008000Y-36251500D02*
X64128000Y-36251500D01*
X64128000Y-36251500D02*
X65278000Y-37401500D01*
X65278000Y-37401500D02*
X65458000Y-37401500D01*
D34*
X36830000Y-37847500D02*
X35306000Y-37847500D01*
X38354000Y-37847500D02*
X36830000Y-37847500D01*
X39624000Y-37846000D02*
X38355500Y-37846000D01*
X38355500Y-37846000D02*
X38354000Y-37847500D01*
X50419000Y-33082000D02*
X51943000Y-33082000D01*
X65445500Y-40157500D02*
X65491601Y-40111399D01*
D35*
X53846500Y-45913500D02*
X53848000Y-45912000D01*
D34*
X62459500Y-36155500D02*
X63641500Y-36155500D01*
X63641500Y-36155500D02*
X63766500Y-36280500D01*
X60935500Y-36155500D02*
X62459500Y-36155500D01*
X49909500Y-39052500D02*
X49909500Y-36512500D01*
D35*
X39621000Y-37849000D02*
X39624000Y-37846000D01*
D34*
X27940000Y-30226000D02*
X27940000Y-27940000D01*
D35*
X63973702Y-36280500D02*
X63766500Y-36280500D01*
D34*
X33020000Y-26517600D02*
X32752400Y-26250000D01*
X32752400Y-26250000D02*
X28207600Y-26250000D01*
X28207600Y-26250000D02*
X27940000Y-26517600D01*
X27940000Y-26517600D02*
X27940000Y-27940000D01*
D35*
X56760500Y-38567500D02*
X56760500Y-37698500D01*
X56760500Y-37698500D02*
X56947500Y-37511500D01*
X27940000Y-27940000D02*
X27940000Y-27560000D01*
X63916500Y-36280500D02*
X63766500Y-36280500D01*
D34*
X51309500Y-36512500D02*
X52571500Y-36512500D01*
X52571500Y-36512500D02*
X52641500Y-36582500D01*
D35*
X53784500Y-36766500D02*
X53600500Y-36582500D01*
X53600500Y-36582500D02*
X52641500Y-36582500D01*
X53784500Y-39047408D02*
X53784500Y-36766500D01*
X54900500Y-39627500D02*
X54364592Y-39627500D01*
X54364592Y-39627500D02*
X53784500Y-39047408D01*
D34*
X51309500Y-39052500D02*
X52571500Y-39052500D01*
X52571500Y-39052500D02*
X52641500Y-38982500D01*
D35*
X52875499Y-40048499D02*
X52641500Y-39814500D01*
X52641500Y-39814500D02*
X52641500Y-38982500D01*
X54900500Y-40027500D02*
X54587500Y-40027500D01*
X54566501Y-40048499D02*
X52875499Y-40048499D01*
X54587500Y-40027500D02*
X54566501Y-40048499D01*
D34*
X54991000Y-34482000D02*
X56515000Y-34482000D01*
D35*
X56832500Y-34418500D02*
X56261000Y-34418500D01*
X56360500Y-38567500D02*
X56360500Y-34518000D01*
X56360500Y-34518000D02*
X56261000Y-34418500D01*
X54900500Y-39227500D02*
X54900500Y-38899300D01*
X54900500Y-38899300D02*
X54203600Y-38202400D01*
X51171600Y-35737800D02*
X50419000Y-34985200D01*
X54203600Y-38202400D02*
X54203600Y-36587275D01*
X54203600Y-36587275D02*
X53354125Y-35737800D01*
X53354125Y-35737800D02*
X51171600Y-35737800D01*
X50419000Y-34985200D02*
X50419000Y-34482000D01*
X60620500Y-40827500D02*
X63052500Y-40827500D01*
X63052500Y-40827500D02*
X63627000Y-41402000D01*
X63627000Y-41402000D02*
X64070000Y-41402000D01*
X60620500Y-40427500D02*
X63331500Y-40427500D01*
X63331500Y-40427500D02*
X63601500Y-40157500D01*
X63601500Y-40157500D02*
X64045500Y-40157500D01*
X65216500Y-36280500D02*
X66125500Y-36280500D01*
X66125500Y-36280500D02*
X66357500Y-36512500D01*
X66357500Y-36512500D02*
X66357500Y-37973000D01*
X64161400Y-38201600D02*
X64045500Y-38317500D01*
X66357500Y-37973000D02*
X66128900Y-38201600D01*
X66128900Y-38201600D02*
X64161400Y-38201600D01*
X64045500Y-38317500D02*
X64045500Y-38887500D01*
X60620500Y-40027500D02*
X62081500Y-40027500D01*
X63221500Y-38887500D02*
X64045500Y-38887500D01*
X62081500Y-40027500D02*
X63221500Y-38887500D01*
D34*
X62459500Y-37555500D02*
X63641500Y-37555500D01*
X63641500Y-37555500D02*
X63766500Y-37430500D01*
D35*
X60620500Y-39627500D02*
X61719500Y-39627500D01*
X62459500Y-38887500D02*
X62459500Y-37555500D01*
X61719500Y-39627500D02*
X62459500Y-38887500D01*
X60620500Y-41627500D02*
X61698592Y-41627500D01*
X61698592Y-41627500D02*
X63246000Y-43174908D01*
X63819000Y-44642000D02*
X64643000Y-44642000D01*
X63246000Y-43174908D02*
X63246000Y-44069000D01*
X63246000Y-44069000D02*
X63819000Y-44642000D01*
D34*
X64643000Y-44642000D02*
X65405000Y-44642000D01*
X65405000Y-44642000D02*
X65467000Y-44704000D01*
X34544000Y-40005000D02*
X35368000Y-40005000D01*
X35368000Y-40005000D02*
X35369500Y-40003500D01*
X34114000Y-34671000D02*
X34114000Y-35302400D01*
X34114000Y-35302400D02*
X34371600Y-35560000D01*
X34114000Y-32639000D02*
X34114000Y-34671000D01*
X34290000Y-31750000D02*
X34290000Y-32551000D01*
X34290000Y-32551000D02*
X34202000Y-32639000D01*
X30835600Y-29718000D02*
X34036000Y-29718000D01*
X30480000Y-27940000D02*
X30480000Y-29362400D01*
X30480000Y-29362400D02*
X30835600Y-29718000D01*
X38100000Y-39878000D02*
X35495000Y-39878000D01*
X35495000Y-39878000D02*
X35369500Y-40003500D01*
X53467000Y-33082000D02*
X54991000Y-33082000D01*
D35*
X55960500Y-38567500D02*
X55960500Y-36875500D01*
X55960500Y-36875500D02*
X53567000Y-34482000D01*
X53567000Y-34482000D02*
X53467000Y-34482000D01*
X57050888Y-69088088D02*
X50139512Y-69088088D01*
X59160500Y-44287500D02*
X59160500Y-44989761D01*
X48260000Y-70967600D02*
X48260000Y-71120000D01*
X60121723Y-66017253D02*
X57050888Y-69088088D01*
X60121723Y-45950985D02*
X60121723Y-66017253D01*
X50139512Y-69088088D02*
X48260000Y-70967600D01*
X59160500Y-44989761D02*
X60121723Y-45950985D01*
X58760500Y-44287500D02*
X58760500Y-45092670D01*
X56903591Y-68732477D02*
X47955123Y-68732477D01*
X47955123Y-68732477D02*
X45720000Y-70967600D01*
X59766112Y-46098283D02*
X59766112Y-65869956D01*
X58760500Y-45092670D02*
X59766112Y-46098283D01*
X59766112Y-65869956D02*
X56903591Y-68732477D01*
X45720000Y-70967600D02*
X45720000Y-71120000D01*
X43180000Y-70967600D02*
X43180000Y-71120000D01*
X56756294Y-68376866D02*
X45770734Y-68376866D01*
X59410501Y-46245581D02*
X59410501Y-65722659D01*
X58360500Y-45195579D02*
X59410501Y-46245581D01*
X59410501Y-65722659D02*
X56756294Y-68376866D01*
X58360500Y-44287500D02*
X58360500Y-45195579D01*
X45770734Y-68376866D02*
X43180000Y-70967600D01*
X40640000Y-70967600D02*
X40640000Y-71120000D01*
X56608997Y-68021255D02*
X43586345Y-68021255D01*
X57960500Y-44287500D02*
X57960500Y-45298488D01*
X59054890Y-65575362D02*
X56608997Y-68021255D01*
X59054890Y-46392879D02*
X59054890Y-65575362D01*
X43586345Y-68021255D02*
X40640000Y-70967600D01*
X57960500Y-45298488D02*
X59054890Y-46392879D01*
X41401956Y-67665644D02*
X38100000Y-70967600D01*
X56461700Y-67665644D02*
X41401956Y-67665644D01*
X58699279Y-65428065D02*
X56461700Y-67665644D01*
X38100000Y-70967600D02*
X38100000Y-71120000D01*
X58699279Y-46540177D02*
X58699279Y-65428065D01*
X57560500Y-45401397D02*
X58699279Y-46540177D01*
X57560500Y-44287500D02*
X57560500Y-45401397D01*
X58343668Y-65280768D02*
X56314403Y-67310033D01*
X56314403Y-67310033D02*
X39217567Y-67310033D01*
X35560000Y-70967600D02*
X35560000Y-71120000D01*
X58343668Y-46687475D02*
X58343668Y-65280768D01*
X57160500Y-44287500D02*
X57160500Y-45504306D01*
X39217567Y-67310033D02*
X35560000Y-70967600D01*
X57160500Y-45504306D02*
X58343668Y-46687475D01*
X57988057Y-65133471D02*
X56167106Y-66954422D01*
X56760500Y-44287500D02*
X56760500Y-45607215D01*
X56760500Y-45607215D02*
X57988057Y-46834773D01*
X33020000Y-70967600D02*
X33020000Y-71120000D01*
X57988057Y-46834773D02*
X57988057Y-65133471D01*
X37033178Y-66954422D02*
X33020000Y-70967600D01*
X56167106Y-66954422D02*
X37033178Y-66954422D01*
X56019809Y-66598811D02*
X34848789Y-66598811D01*
X57632446Y-64986174D02*
X56019809Y-66598811D01*
X57632446Y-46982071D02*
X57632446Y-64986174D01*
X34848789Y-66598811D02*
X30480000Y-70967600D01*
X56360501Y-45710126D02*
X57632446Y-46982071D01*
X56360500Y-44287500D02*
X56360501Y-45710126D01*
X30480000Y-70967600D02*
X30480000Y-71120000D01*
X55966910Y-45819444D02*
X55966910Y-44287500D01*
X27940000Y-70967600D02*
X32664400Y-66243200D01*
X57276835Y-47129369D02*
X55966910Y-45819444D01*
X55872512Y-66243200D02*
X57276835Y-64838877D01*
X57276835Y-64838877D02*
X57276835Y-47129369D01*
X32664400Y-66243200D02*
X55872512Y-66243200D01*
X27940000Y-71120000D02*
X27940000Y-70967600D01*
X54900500Y-42827500D02*
X49208047Y-42827500D01*
X49208047Y-42827500D02*
X46736000Y-40355453D01*
X46101000Y-30861000D02*
X39624000Y-30861000D01*
X46736000Y-40355453D02*
X46736000Y-31496000D01*
X46736000Y-31496000D02*
X46101000Y-30861000D01*
X39751000Y-30988000D02*
X39624000Y-30861000D01*
X39624000Y-30861000D02*
X38227000Y-29464000D01*
X42426000Y-32766000D02*
X42426000Y-32367600D01*
X42426000Y-32367600D02*
X42380810Y-32322410D01*
X42380810Y-32322410D02*
X42380810Y-32302612D01*
X41237612Y-32036190D02*
X41168202Y-32105600D01*
X42380810Y-32302612D02*
X42114388Y-32036190D01*
X41168202Y-32105600D02*
X40614600Y-32105600D01*
X42114388Y-32036190D02*
X41737612Y-32036190D01*
X41737612Y-32036190D02*
X41676000Y-32097802D01*
X41676000Y-32097802D02*
X41614388Y-32036190D01*
X41614388Y-32036190D02*
X41237612Y-32036190D01*
X39751000Y-31242000D02*
X39751000Y-30988000D01*
X40614600Y-32105600D02*
X39751000Y-31242000D01*
X38227000Y-29464000D02*
X38227000Y-28067000D01*
X38227000Y-28067000D02*
X38100000Y-27940000D01*
X38100000Y-28448000D02*
X38100000Y-27940000D01*
X38100000Y-27940000D02*
X38354000Y-27940000D01*
X47091611Y-31094702D02*
X46502298Y-30505389D01*
X46502298Y-30505389D02*
X41732189Y-30505389D01*
X47091611Y-40208156D02*
X47091611Y-31094702D01*
X49310955Y-42427500D02*
X47091611Y-40208156D01*
X41732189Y-30505389D02*
X40919400Y-29692600D01*
X54900500Y-42427500D02*
X49310955Y-42427500D01*
X42926000Y-32766000D02*
X42926000Y-32131000D01*
X42926000Y-32131000D02*
X42265600Y-31470600D01*
X42265600Y-31470600D02*
X40970200Y-31470600D01*
X40640000Y-27940000D02*
X40640000Y-29413200D01*
X40640000Y-29413200D02*
X40919400Y-29692600D01*
X43637176Y-30149778D02*
X43180000Y-29692602D01*
X47447222Y-40060858D02*
X47447222Y-30947404D01*
X46649596Y-30149778D02*
X43637176Y-30149778D01*
X47447222Y-30947404D02*
X46649596Y-30149778D01*
X49413864Y-42027500D02*
X47447222Y-40060858D01*
X54900500Y-42027500D02*
X49413864Y-42027500D01*
X43180000Y-27940000D02*
X43180000Y-29692602D01*
X49516773Y-41627500D02*
X47802833Y-39913560D01*
X46598495Y-29595768D02*
X45720000Y-29595768D01*
X54900500Y-41627500D02*
X49516773Y-41627500D01*
X47802833Y-39913560D02*
X47802833Y-30800106D01*
X47802833Y-30800106D02*
X46598495Y-29595768D01*
X45720000Y-27940000D02*
X45720000Y-29595768D01*
X54900500Y-41227500D02*
X49619682Y-41227500D01*
X49619682Y-41227500D02*
X48158444Y-39766262D01*
X48158444Y-39766262D02*
X48158444Y-28803556D01*
X48158444Y-28803556D02*
X48260000Y-28702000D01*
X48260000Y-28702000D02*
X48260000Y-27940000D01*
X48514055Y-39618964D02*
X48514055Y-30378345D01*
X48514055Y-30378345D02*
X50800000Y-28092400D01*
X54900500Y-40827500D02*
X49722591Y-40827500D01*
X50800000Y-28092400D02*
X50800000Y-27940000D01*
X49722591Y-40827500D02*
X48514055Y-39618964D01*
X54900500Y-40427500D02*
X49825500Y-40427500D01*
X53340000Y-28829000D02*
X53340000Y-27940000D01*
X49825500Y-40427500D02*
X48869666Y-39471666D01*
X50038000Y-29591000D02*
X52578000Y-29591000D01*
X48869666Y-39471666D02*
X48869666Y-30759334D01*
X52578000Y-29591000D02*
X53340000Y-28829000D01*
X48869666Y-30759334D02*
X50038000Y-29591000D01*
X57560500Y-38567500D02*
X57560500Y-30014200D01*
X57560500Y-30014200D02*
X57010300Y-29464000D01*
X57010300Y-29464000D02*
X56261000Y-29464000D01*
X56261000Y-29464000D02*
X55880000Y-29083000D01*
X55880000Y-29083000D02*
X55880000Y-27940000D01*
X57960500Y-38567500D02*
X57960500Y-28399500D01*
X57960500Y-28399500D02*
X58420000Y-27940000D01*
X60726364Y-27940000D02*
X60960000Y-27940000D01*
X58360500Y-30305864D02*
X60726364Y-27940000D01*
X58360500Y-38567500D02*
X58360500Y-30305864D01*
X62306233Y-29286167D02*
X63500000Y-28092400D01*
X63500000Y-28092400D02*
X63500000Y-27940000D01*
X59883106Y-29286167D02*
X62306233Y-29286167D01*
X58760500Y-30408773D02*
X59883106Y-29286167D01*
X58760500Y-38567500D02*
X58760500Y-30408773D01*
X59160500Y-38567500D02*
X59160500Y-30511682D01*
X66040000Y-28092400D02*
X66040000Y-27940000D01*
X64490622Y-29641778D02*
X66040000Y-28092400D01*
X60030404Y-29641778D02*
X64490622Y-29641778D01*
X59160500Y-30511682D02*
X60030404Y-29641778D01*
X66675011Y-29997389D02*
X68580000Y-28092400D01*
X59560500Y-38567500D02*
X59560500Y-30614591D01*
X68580000Y-28092400D02*
X68580000Y-27940000D01*
X60177702Y-29997389D02*
X66675011Y-29997389D01*
X59560500Y-30614591D02*
X60177702Y-29997389D01*
X59960500Y-38567500D02*
X59960500Y-30717500D01*
X59960500Y-30717500D02*
X60325000Y-30353000D01*
X68199000Y-30353000D02*
X70612000Y-27940000D01*
X60325000Y-30353000D02*
X68199000Y-30353000D01*
X70612000Y-27940000D02*
X71120000Y-27940000D01*
X66040000Y-70967600D02*
X66040000Y-71120000D01*
X60620500Y-42027500D02*
X61595684Y-42027500D01*
X62611000Y-43042816D02*
X62611000Y-67538600D01*
X62611000Y-67538600D02*
X66040000Y-70967600D01*
X61595684Y-42027500D02*
X62611000Y-43042816D01*
X62255389Y-68656189D02*
X63500000Y-69900800D01*
X63500000Y-69900800D02*
X63500000Y-71120000D01*
X61492776Y-42427500D02*
X62255389Y-43190113D01*
X60620500Y-42427500D02*
X61492776Y-42427500D01*
X62255389Y-43190113D02*
X62255389Y-68656189D01*
X61899778Y-68961022D02*
X60960000Y-69900800D01*
X60960000Y-69900800D02*
X60960000Y-71120000D01*
X61899778Y-43337410D02*
X61899778Y-68961022D01*
X61389868Y-42827500D02*
X61899778Y-43337410D01*
X60620500Y-42827500D02*
X61389868Y-42827500D01*
X61544167Y-67843433D02*
X58420000Y-70967600D01*
X58420000Y-70967600D02*
X58420000Y-71120000D01*
X61163700Y-43227500D02*
X61544167Y-43607967D01*
X61544167Y-43607967D02*
X61544167Y-67843433D01*
X60620500Y-43227500D02*
X61163700Y-43227500D01*
X60620500Y-43955700D02*
X61188556Y-44523756D01*
X60620500Y-43627500D02*
X60620500Y-43955700D01*
X61188556Y-66459144D02*
X56527700Y-71120000D01*
X61188556Y-44523756D02*
X61188556Y-66459144D01*
X56527700Y-71120000D02*
X55880000Y-71120000D01*
X60620500Y-43627500D02*
X60722500Y-43627500D01*
X59960500Y-44287500D02*
X59960500Y-44502500D01*
X54508290Y-69799310D02*
X53340000Y-70967600D01*
X59960500Y-44502500D02*
X60832945Y-45374945D01*
X60832945Y-45374945D02*
X60832945Y-66311847D01*
X60832945Y-66311847D02*
X57345482Y-69799310D01*
X57345482Y-69799310D02*
X54508290Y-69799310D01*
X53340000Y-70967600D02*
X53340000Y-71120000D01*
X57198185Y-69443699D02*
X52323901Y-69443699D01*
X50800000Y-70967600D02*
X50800000Y-71120000D01*
X60477334Y-66164550D02*
X57198185Y-69443699D01*
X60477334Y-45803687D02*
X60477334Y-66164550D01*
X59560500Y-44886852D02*
X60477334Y-45803687D01*
X52323901Y-69443699D02*
X50800000Y-70967600D01*
X59560500Y-44287500D02*
X59560500Y-44886852D01*
D34*
X68580000Y-71120000D02*
X68580000Y-67564000D01*
X33782000Y-36447500D02*
X32975600Y-36447500D01*
X32975600Y-36447500D02*
X32004000Y-35475900D01*
X32004000Y-35475900D02*
X32004000Y-34671000D01*
D36*
X40476000Y-36449000D02*
X39814500Y-36449000D01*
D34*
X38100000Y-44450000D02*
X34861500Y-44450000D01*
X53848000Y-44512000D02*
X55310000Y-44512000D01*
D36*
X61005301Y-39197699D02*
X60620500Y-39197699D01*
X55530699Y-37447387D02*
X55530699Y-38567500D01*
X61595000Y-38608000D02*
X61005301Y-39197699D01*
X35306000Y-35814000D02*
X35560000Y-35560000D01*
X55014912Y-36931600D02*
X55530699Y-37447387D01*
X38354000Y-36447500D02*
X40207500Y-36447500D01*
X40047500Y-36216000D02*
X39814500Y-36449000D01*
X53594000Y-35242500D02*
X55014912Y-36663412D01*
X55014912Y-36663412D02*
X55014912Y-36931600D01*
X33782000Y-36447500D02*
X35306000Y-36447500D01*
X40476000Y-36449000D02*
X40476000Y-36716000D01*
X35306000Y-36447500D02*
X36830000Y-36447500D01*
X36830000Y-36447500D02*
X38354000Y-36447500D01*
X40476000Y-36716000D02*
X40081500Y-36716000D01*
X51943000Y-34482000D02*
X51943000Y-35086800D01*
X40476000Y-36216000D02*
X40047500Y-36216000D01*
X55499000Y-44323000D02*
X55372002Y-44449998D01*
D34*
X55310000Y-44512000D02*
X55499000Y-44323000D01*
D36*
X40081500Y-36716000D02*
X39814500Y-36449000D01*
X40207500Y-36447500D02*
X40476000Y-36716000D01*
X35306000Y-36447500D02*
X35306000Y-35814000D01*
X60935500Y-37555500D02*
X60935500Y-38125500D01*
X51943000Y-35086800D02*
X52098700Y-35242500D01*
X55372002Y-44449998D02*
X54864000Y-44449998D01*
X52098700Y-35242500D02*
X53594000Y-35242500D01*
X40476000Y-36216000D02*
X40476000Y-36449000D01*
D34*
X35560000Y-29972000D02*
X35560000Y-27940000D01*
D36*
X60935500Y-38125500D02*
X61595000Y-38608000D01*
D35*
X41926000Y-37666000D02*
X41926000Y-38973000D01*
X41926000Y-38973000D02*
X41402000Y-39497000D01*
X41402000Y-39497000D02*
X40132000Y-39497000D01*
X40132000Y-39497000D02*
X39243000Y-38608000D01*
X39243000Y-38608000D02*
X34039300Y-38608000D01*
X34039300Y-38608000D02*
X33782000Y-38350700D01*
X33782000Y-38350700D02*
X33782000Y-37847500D01*
D34*
X66867000Y-43688000D02*
X66867000Y-44704000D01*
X66867000Y-44704000D02*
X67431000Y-44704000D01*
X67431000Y-44704000D02*
X67441000Y-44714000D01*
D35*
X49785500Y-45783500D02*
X49785500Y-46229500D01*
X49785500Y-46229500D02*
X50165000Y-46609000D01*
X50165000Y-46609000D02*
X55577240Y-46609000D01*
X55577240Y-46609000D02*
X55841560Y-46873320D01*
X55841560Y-46873320D02*
X55841560Y-47276520D01*
X49785500Y-44386500D02*
X49785500Y-43432500D01*
X49785500Y-43432500D02*
X49990500Y-43227500D01*
X49990500Y-43227500D02*
X54900500Y-43227500D01*
D34*
X49785500Y-44386500D02*
X49785500Y-45783500D01*
X51371500Y-44386500D02*
X50673000Y-45085000D01*
X51371500Y-44386500D02*
X51371500Y-45783500D01*
D35*
X54900500Y-43627500D02*
X51527300Y-43627500D01*
X51527300Y-43627500D02*
X51371500Y-43783300D01*
X51371500Y-43783300D02*
X51371500Y-44386500D01*
X47922246Y-55880000D02*
X47497982Y-55880000D01*
X47945040Y-55880000D02*
X47922246Y-55880000D01*
X48041560Y-55976520D02*
X47945040Y-55880000D01*
X43426000Y-31788012D02*
X43179998Y-31542010D01*
X43426000Y-32766000D02*
X43426000Y-31788012D01*
X44521790Y-31542010D02*
X45720000Y-31542010D01*
X43926000Y-32137800D02*
X44521790Y-31542010D01*
X43926000Y-32766000D02*
X43926000Y-32137800D01*
X37934900Y-35073786D02*
X38555714Y-35694600D01*
X39879600Y-35694600D02*
X39901000Y-35716000D01*
X38555714Y-35694600D02*
X39879600Y-35694600D01*
X39901000Y-35716000D02*
X40476000Y-35716000D01*
X37934900Y-33749688D02*
X37934900Y-35073786D01*
X35211312Y-31026100D02*
X37934900Y-33749688D01*
X30130188Y-31026100D02*
X35211312Y-31026100D01*
X28486100Y-32670188D02*
X30130188Y-31026100D01*
X28486100Y-37433812D02*
X28486100Y-32670188D01*
X28908688Y-37856400D02*
X28486100Y-37433812D01*
X29547800Y-37760000D02*
X29072800Y-37760000D01*
X29072800Y-37760000D02*
X28976400Y-37856400D01*
X28976400Y-37856400D02*
X28908688Y-37856400D01*
X38392100Y-34884410D02*
X38745090Y-35237400D01*
X39901000Y-35216000D02*
X40476000Y-35216000D01*
X38745090Y-35237400D02*
X39879600Y-35237400D01*
X39879600Y-35237400D02*
X39901000Y-35216000D01*
X38392100Y-33560312D02*
X38392100Y-34884410D01*
X35400688Y-30568900D02*
X38392100Y-33560312D01*
X29940812Y-30568900D02*
X35400688Y-30568900D01*
X28028900Y-32480812D02*
X29940812Y-30568900D01*
X28028900Y-37623188D02*
X28028900Y-32480812D01*
X28719312Y-38313600D02*
X28028900Y-37623188D01*
X29547800Y-38410000D02*
X29072800Y-38410000D01*
X29072800Y-38410000D02*
X28976400Y-38313600D01*
X28976400Y-38313600D02*
X28719312Y-38313600D01*
D34*
X32092000Y-32639000D02*
X31390600Y-32639000D01*
X31390600Y-32639000D02*
X31178500Y-32851100D01*
X31178500Y-32851100D02*
X31178500Y-37147502D01*
X31178500Y-37147502D02*
X30098852Y-37147502D01*
X30098852Y-37147502D02*
X30061350Y-37110000D01*
X34163000Y-39243000D02*
X36241010Y-39243000D01*
X36241010Y-39243000D02*
X36322000Y-39162010D01*
X41420390Y-37671610D02*
X41420390Y-37666000D01*
X41373755Y-38360757D02*
X41373755Y-37718245D01*
X41373755Y-37718245D02*
X41420390Y-37671610D01*
X41073756Y-38660756D02*
X41373755Y-38360757D01*
D35*
X29427000Y-45720000D02*
X29427000Y-44221000D01*
X29427000Y-44221000D02*
X29402000Y-44196000D01*
X29402000Y-45695000D02*
X29427000Y-45720000D01*
X29377791Y-45412175D02*
X29342791Y-45447175D01*
X28002000Y-44450000D02*
X28002000Y-43753000D01*
X28002000Y-43753000D02*
X28067000Y-43688000D01*
X28067000Y-43688000D02*
X28575000Y-43180000D01*
D37*
G36*
X63384656Y-45220660D02*
X63390843Y-45251765D01*
X63531191Y-45461809D01*
X63741235Y-45602157D01*
X63881000Y-45629958D01*
X63881000Y-66040000D01*
X63890667Y-66088601D01*
X63918197Y-66129803D01*
X63959399Y-66157333D01*
X64008000Y-66167000D01*
X72975000Y-66167000D01*
X72975000Y-71052533D01*
X72821398Y-71824743D01*
X72422193Y-72422193D01*
X71824741Y-72821398D01*
X71052533Y-72975000D01*
X28007467Y-72975000D01*
X27235257Y-72821398D01*
X27178449Y-72783440D01*
X28803600Y-72783440D01*
X29051365Y-72734157D01*
X29261409Y-72593809D01*
X29401757Y-72383765D01*
X29408984Y-72347434D01*
X29420330Y-72364415D01*
X29906511Y-72689271D01*
X30480000Y-72803345D01*
X31053489Y-72689271D01*
X31539670Y-72364415D01*
X31750000Y-72049634D01*
X31960330Y-72364415D01*
X32446511Y-72689271D01*
X33020000Y-72803345D01*
X33593489Y-72689271D01*
X34079670Y-72364415D01*
X34290000Y-72049634D01*
X34500330Y-72364415D01*
X34986511Y-72689271D01*
X35560000Y-72803345D01*
X36133489Y-72689271D01*
X36619670Y-72364415D01*
X36830000Y-72049634D01*
X37040330Y-72364415D01*
X37526511Y-72689271D01*
X38100000Y-72803345D01*
X38673489Y-72689271D01*
X39159670Y-72364415D01*
X39370000Y-72049634D01*
X39580330Y-72364415D01*
X40066511Y-72689271D01*
X40640000Y-72803345D01*
X41213489Y-72689271D01*
X41699670Y-72364415D01*
X41910000Y-72049634D01*
X42120330Y-72364415D01*
X42606511Y-72689271D01*
X43180000Y-72803345D01*
X43753489Y-72689271D01*
X44239670Y-72364415D01*
X44450000Y-72049634D01*
X44660330Y-72364415D01*
X45146511Y-72689271D01*
X45720000Y-72803345D01*
X46293489Y-72689271D01*
X46779670Y-72364415D01*
X46990000Y-72049634D01*
X47200330Y-72364415D01*
X47686511Y-72689271D01*
X48260000Y-72803345D01*
X48833489Y-72689271D01*
X49319670Y-72364415D01*
X49530000Y-72049634D01*
X49740330Y-72364415D01*
X50226511Y-72689271D01*
X50800000Y-72803345D01*
X51373489Y-72689271D01*
X51859670Y-72364415D01*
X52070000Y-72049634D01*
X52280330Y-72364415D01*
X52766511Y-72689271D01*
X53340000Y-72803345D01*
X53913489Y-72689271D01*
X54399670Y-72364415D01*
X54610000Y-72049634D01*
X54820330Y-72364415D01*
X55306511Y-72689271D01*
X55880000Y-72803345D01*
X56453489Y-72689271D01*
X56939670Y-72364415D01*
X57150000Y-72049634D01*
X57360330Y-72364415D01*
X57846511Y-72689271D01*
X58420000Y-72803345D01*
X58993489Y-72689271D01*
X59479670Y-72364415D01*
X59690000Y-72049634D01*
X59900330Y-72364415D01*
X60386511Y-72689271D01*
X60960000Y-72803345D01*
X61533489Y-72689271D01*
X62019670Y-72364415D01*
X62230000Y-72049634D01*
X62440330Y-72364415D01*
X62926511Y-72689271D01*
X63500000Y-72803345D01*
X64073489Y-72689271D01*
X64559670Y-72364415D01*
X64770000Y-72049634D01*
X64980330Y-72364415D01*
X65466511Y-72689271D01*
X66040000Y-72803345D01*
X66613489Y-72689271D01*
X67099670Y-72364415D01*
X67310000Y-72049634D01*
X67520330Y-72364415D01*
X68006511Y-72689271D01*
X68580000Y-72803345D01*
X69153489Y-72689271D01*
X69639670Y-72364415D01*
X69846461Y-72054931D01*
X70217964Y-72470732D01*
X70745209Y-72724709D01*
X70760974Y-72727358D01*
X70993000Y-72606217D01*
X70993000Y-71247000D01*
X71247000Y-71247000D01*
X71247000Y-72606217D01*
X71479026Y-72727358D01*
X71494791Y-72724709D01*
X72022036Y-72470732D01*
X72411954Y-72034320D01*
X72605184Y-71481913D01*
X72460924Y-71247000D01*
X71247000Y-71247000D01*
X70993000Y-71247000D01*
X70973000Y-71247000D01*
X70973000Y-70993000D01*
X70993000Y-70993000D01*
X70993000Y-69633783D01*
X71247000Y-69633783D01*
X71247000Y-70993000D01*
X72460924Y-70993000D01*
X72605184Y-70758087D01*
X72411954Y-70205680D01*
X72022036Y-69769268D01*
X71494791Y-69515291D01*
X71479026Y-69512642D01*
X71247000Y-69633783D01*
X70993000Y-69633783D01*
X70760974Y-69512642D01*
X70745209Y-69515291D01*
X70217964Y-69769268D01*
X69846461Y-70185069D01*
X69639670Y-69875585D01*
X69418200Y-69727603D01*
X69418200Y-67983528D01*
X69514838Y-67750799D01*
X69515162Y-67378833D01*
X69373117Y-67035057D01*
X69110327Y-66771808D01*
X68766799Y-66629162D01*
X68394833Y-66628838D01*
X68051057Y-66770883D01*
X67787808Y-67033673D01*
X67645162Y-67377201D01*
X67644838Y-67749167D01*
X67741800Y-67983834D01*
X67741800Y-69727603D01*
X67520330Y-69875585D01*
X67310000Y-70190366D01*
X67099670Y-69875585D01*
X66613489Y-69550729D01*
X66040000Y-69436655D01*
X65631934Y-69517824D01*
X63347600Y-67233490D01*
X63347600Y-45195900D01*
X63384656Y-45220660D01*
X63384656Y-45220660D01*
G37*
X63384656Y-45220660D02*
X63390843Y-45251765D01*
X63531191Y-45461809D01*
X63741235Y-45602157D01*
X63881000Y-45629958D01*
X63881000Y-66040000D01*
X63890667Y-66088601D01*
X63918197Y-66129803D01*
X63959399Y-66157333D01*
X64008000Y-66167000D01*
X72975000Y-66167000D01*
X72975000Y-71052533D01*
X72821398Y-71824743D01*
X72422193Y-72422193D01*
X71824741Y-72821398D01*
X71052533Y-72975000D01*
X28007467Y-72975000D01*
X27235257Y-72821398D01*
X27178449Y-72783440D01*
X28803600Y-72783440D01*
X29051365Y-72734157D01*
X29261409Y-72593809D01*
X29401757Y-72383765D01*
X29408984Y-72347434D01*
X29420330Y-72364415D01*
X29906511Y-72689271D01*
X30480000Y-72803345D01*
X31053489Y-72689271D01*
X31539670Y-72364415D01*
X31750000Y-72049634D01*
X31960330Y-72364415D01*
X32446511Y-72689271D01*
X33020000Y-72803345D01*
X33593489Y-72689271D01*
X34079670Y-72364415D01*
X34290000Y-72049634D01*
X34500330Y-72364415D01*
X34986511Y-72689271D01*
X35560000Y-72803345D01*
X36133489Y-72689271D01*
X36619670Y-72364415D01*
X36830000Y-72049634D01*
X37040330Y-72364415D01*
X37526511Y-72689271D01*
X38100000Y-72803345D01*
X38673489Y-72689271D01*
X39159670Y-72364415D01*
X39370000Y-72049634D01*
X39580330Y-72364415D01*
X40066511Y-72689271D01*
X40640000Y-72803345D01*
X41213489Y-72689271D01*
X41699670Y-72364415D01*
X41910000Y-72049634D01*
X42120330Y-72364415D01*
X42606511Y-72689271D01*
X43180000Y-72803345D01*
X43753489Y-72689271D01*
X44239670Y-72364415D01*
X44450000Y-72049634D01*
X44660330Y-72364415D01*
X45146511Y-72689271D01*
X45720000Y-72803345D01*
X46293489Y-72689271D01*
X46779670Y-72364415D01*
X46990000Y-72049634D01*
X47200330Y-72364415D01*
X47686511Y-72689271D01*
X48260000Y-72803345D01*
X48833489Y-72689271D01*
X49319670Y-72364415D01*
X49530000Y-72049634D01*
X49740330Y-72364415D01*
X50226511Y-72689271D01*
X50800000Y-72803345D01*
X51373489Y-72689271D01*
X51859670Y-72364415D01*
X52070000Y-72049634D01*
X52280330Y-72364415D01*
X52766511Y-72689271D01*
X53340000Y-72803345D01*
X53913489Y-72689271D01*
X54399670Y-72364415D01*
X54610000Y-72049634D01*
X54820330Y-72364415D01*
X55306511Y-72689271D01*
X55880000Y-72803345D01*
X56453489Y-72689271D01*
X56939670Y-72364415D01*
X57150000Y-72049634D01*
X57360330Y-72364415D01*
X57846511Y-72689271D01*
X58420000Y-72803345D01*
X58993489Y-72689271D01*
X59479670Y-72364415D01*
X59690000Y-72049634D01*
X59900330Y-72364415D01*
X60386511Y-72689271D01*
X60960000Y-72803345D01*
X61533489Y-72689271D01*
X62019670Y-72364415D01*
X62230000Y-72049634D01*
X62440330Y-72364415D01*
X62926511Y-72689271D01*
X63500000Y-72803345D01*
X64073489Y-72689271D01*
X64559670Y-72364415D01*
X64770000Y-72049634D01*
X64980330Y-72364415D01*
X65466511Y-72689271D01*
X66040000Y-72803345D01*
X66613489Y-72689271D01*
X67099670Y-72364415D01*
X67310000Y-72049634D01*
X67520330Y-72364415D01*
X68006511Y-72689271D01*
X68580000Y-72803345D01*
X69153489Y-72689271D01*
X69639670Y-72364415D01*
X69846461Y-72054931D01*
X70217964Y-72470732D01*
X70745209Y-72724709D01*
X70760974Y-72727358D01*
X70993000Y-72606217D01*
X70993000Y-71247000D01*
X71247000Y-71247000D01*
X71247000Y-72606217D01*
X71479026Y-72727358D01*
X71494791Y-72724709D01*
X72022036Y-72470732D01*
X72411954Y-72034320D01*
X72605184Y-71481913D01*
X72460924Y-71247000D01*
X71247000Y-71247000D01*
X70993000Y-71247000D01*
X70973000Y-71247000D01*
X70973000Y-70993000D01*
X70993000Y-70993000D01*
X70993000Y-69633783D01*
X71247000Y-69633783D01*
X71247000Y-70993000D01*
X72460924Y-70993000D01*
X72605184Y-70758087D01*
X72411954Y-70205680D01*
X72022036Y-69769268D01*
X71494791Y-69515291D01*
X71479026Y-69512642D01*
X71247000Y-69633783D01*
X70993000Y-69633783D01*
X70760974Y-69512642D01*
X70745209Y-69515291D01*
X70217964Y-69769268D01*
X69846461Y-70185069D01*
X69639670Y-69875585D01*
X69418200Y-69727603D01*
X69418200Y-67983528D01*
X69514838Y-67750799D01*
X69515162Y-67378833D01*
X69373117Y-67035057D01*
X69110327Y-66771808D01*
X68766799Y-66629162D01*
X68394833Y-66628838D01*
X68051057Y-66770883D01*
X67787808Y-67033673D01*
X67645162Y-67377201D01*
X67644838Y-67749167D01*
X67741800Y-67983834D01*
X67741800Y-69727603D01*
X67520330Y-69875585D01*
X67310000Y-70190366D01*
X67099670Y-69875585D01*
X66613489Y-69550729D01*
X66040000Y-69436655D01*
X65631934Y-69517824D01*
X63347600Y-67233490D01*
X63347600Y-45195900D01*
X63384656Y-45220660D01*
G36*
X71824741Y-26238602D02*
X72422193Y-26637807D01*
X72821398Y-27235257D01*
X72975000Y-28007467D01*
X72975000Y-31041437D01*
X72803782Y-30627057D01*
X72245880Y-30068181D01*
X71516573Y-29765346D01*
X70726891Y-29764657D01*
X69997057Y-30066218D01*
X69438181Y-30624120D01*
X69135346Y-31353427D01*
X69134657Y-32143109D01*
X69436218Y-32872943D01*
X69994120Y-33431819D01*
X70723427Y-33734654D01*
X71513109Y-33735343D01*
X72242943Y-33433782D01*
X72801819Y-32875880D01*
X72975000Y-32458814D01*
X72975000Y-41671547D01*
X72834004Y-41577336D01*
X72591000Y-41529000D01*
X67191000Y-41529000D01*
X67162849Y-41534599D01*
X67157250Y-41529000D01*
X67064690Y-41529000D01*
X66947997Y-41577336D01*
X66947996Y-41577336D01*
X66947995Y-41577337D01*
X66831301Y-41625673D01*
X66673975Y-41783000D01*
X66405000Y-41783000D01*
X66405000Y-41687750D01*
X66246250Y-41529000D01*
X65597000Y-41529000D01*
X65597000Y-41549000D01*
X65343000Y-41549000D01*
X65343000Y-41529000D01*
X65323000Y-41529000D01*
X65323000Y-41275000D01*
X65343000Y-41275000D01*
X65343000Y-40525750D01*
X65318500Y-40501250D01*
X65318500Y-40284500D01*
X65572500Y-40284500D01*
X65572500Y-41033750D01*
X65597000Y-41058250D01*
X65597000Y-41275000D01*
X66246250Y-41275000D01*
X66405000Y-41116250D01*
X66405000Y-40875690D01*
X66353010Y-40750176D01*
X66380500Y-40683810D01*
X66380500Y-40443250D01*
X66221750Y-40284500D01*
X65572500Y-40284500D01*
X65318500Y-40284500D01*
X65298500Y-40284500D01*
X65298500Y-40030500D01*
X65318500Y-40030500D01*
X65318500Y-39014500D01*
X65298500Y-39014500D01*
X65298500Y-38938200D01*
X65592500Y-38938200D01*
X65592500Y-39014500D01*
X65572500Y-39014500D01*
X65572500Y-40030500D01*
X66221750Y-40030500D01*
X66380500Y-39871750D01*
X66380500Y-39631190D01*
X66335479Y-39522500D01*
X66380500Y-39413810D01*
X66380500Y-39173250D01*
X66221752Y-39014502D01*
X66380500Y-39014502D01*
X66380500Y-38888154D01*
X66410785Y-38882130D01*
X66649755Y-38722455D01*
X66878355Y-38493855D01*
X67038030Y-38254885D01*
X67094100Y-37973000D01*
X67094100Y-36512505D01*
X67094101Y-36512500D01*
X67041945Y-36250296D01*
X67038030Y-36230615D01*
X66878355Y-35991645D01*
X66646355Y-35759645D01*
X66555000Y-35698603D01*
X66531157Y-35578735D01*
X66390809Y-35368691D01*
X66180765Y-35228343D01*
X65933000Y-35179060D01*
X64983000Y-35179060D01*
X64735235Y-35228343D01*
X64721084Y-35237799D01*
X64609309Y-35191500D01*
X64293750Y-35191500D01*
X64135000Y-35350250D01*
X64135000Y-36124500D01*
X64155000Y-36124500D01*
X64155000Y-36329060D01*
X63533000Y-36329060D01*
X63450267Y-36345517D01*
X63360250Y-36255500D01*
X62611000Y-36255500D01*
X62611000Y-36275500D01*
X62357000Y-36275500D01*
X62357000Y-36255500D01*
X61087000Y-36255500D01*
X61087000Y-36275500D01*
X60833000Y-36275500D01*
X60833000Y-36255500D01*
X60813000Y-36255500D01*
X60813000Y-36001500D01*
X60833000Y-36001500D01*
X60833000Y-35352250D01*
X61087000Y-35352250D01*
X61087000Y-36001500D01*
X62357000Y-36001500D01*
X62357000Y-35352250D01*
X62611000Y-35352250D01*
X62611000Y-36001500D01*
X62933750Y-36001500D01*
X63056750Y-36124500D01*
X63881000Y-36124500D01*
X63881000Y-35350250D01*
X63722250Y-35191500D01*
X63406691Y-35191500D01*
X63206086Y-35274593D01*
X63010310Y-35193500D01*
X62769750Y-35193500D01*
X62611000Y-35352250D01*
X62357000Y-35352250D01*
X62198250Y-35193500D01*
X61957690Y-35193500D01*
X61724301Y-35290173D01*
X61722000Y-35292474D01*
X61719699Y-35290173D01*
X61486310Y-35193500D01*
X61245750Y-35193500D01*
X61087000Y-35352250D01*
X60833000Y-35352250D01*
X60697100Y-35216350D01*
X60697100Y-31089600D01*
X68199000Y-31089600D01*
X68480885Y-31033530D01*
X68719855Y-30873855D01*
X70269519Y-29324191D01*
X70546511Y-29509271D01*
X71120000Y-29623345D01*
X71693489Y-29509271D01*
X72179670Y-29184415D01*
X72504526Y-28698234D01*
X72618600Y-28124745D01*
X72618600Y-27755255D01*
X72504526Y-27181766D01*
X72179670Y-26695585D01*
X71693489Y-26370729D01*
X71120000Y-26256655D01*
X70546511Y-26370729D01*
X70060330Y-26695585D01*
X69850000Y-27010366D01*
X69639670Y-26695585D01*
X69153489Y-26370729D01*
X68580000Y-26256655D01*
X68006511Y-26370729D01*
X67520330Y-26695585D01*
X67310000Y-27010366D01*
X67099670Y-26695585D01*
X66613489Y-26370729D01*
X66040000Y-26256655D01*
X65466511Y-26370729D01*
X64980330Y-26695585D01*
X64770000Y-27010366D01*
X64559670Y-26695585D01*
X64073489Y-26370729D01*
X63500000Y-26256655D01*
X62926511Y-26370729D01*
X62440330Y-26695585D01*
X62230000Y-27010366D01*
X62019670Y-26695585D01*
X61533489Y-26370729D01*
X60960000Y-26256655D01*
X60386511Y-26370729D01*
X59900330Y-26695585D01*
X59690000Y-27010366D01*
X59479670Y-26695585D01*
X58993489Y-26370729D01*
X58420000Y-26256655D01*
X57846511Y-26370729D01*
X57360330Y-26695585D01*
X57150000Y-27010366D01*
X56939670Y-26695585D01*
X56453489Y-26370729D01*
X55880000Y-26256655D01*
X55306511Y-26370729D01*
X54820330Y-26695585D01*
X54610000Y-27010366D01*
X54399670Y-26695585D01*
X53913489Y-26370729D01*
X53340000Y-26256655D01*
X52766511Y-26370729D01*
X52280330Y-26695585D01*
X52070000Y-27010366D01*
X51859670Y-26695585D01*
X51373489Y-26370729D01*
X50800000Y-26256655D01*
X50226511Y-26370729D01*
X49740330Y-26695585D01*
X49530000Y-27010366D01*
X49319670Y-26695585D01*
X48833489Y-26370729D01*
X48260000Y-26256655D01*
X47686511Y-26370729D01*
X47200330Y-26695585D01*
X46990000Y-27010366D01*
X46779670Y-26695585D01*
X46293489Y-26370729D01*
X45720000Y-26256655D01*
X45146511Y-26370729D01*
X44660330Y-26695585D01*
X44450000Y-27010366D01*
X44239670Y-26695585D01*
X43753489Y-26370729D01*
X43180000Y-26256655D01*
X42606511Y-26370729D01*
X42120330Y-26695585D01*
X41910000Y-27010366D01*
X41699670Y-26695585D01*
X41213489Y-26370729D01*
X40640000Y-26256655D01*
X40066511Y-26370729D01*
X39580330Y-26695585D01*
X39370000Y-27010366D01*
X39159670Y-26695585D01*
X38673489Y-26370729D01*
X38100000Y-26256655D01*
X37526511Y-26370729D01*
X37040330Y-26695585D01*
X36830000Y-27010366D01*
X36619670Y-26695585D01*
X36133489Y-26370729D01*
X35560000Y-26256655D01*
X34986511Y-26370729D01*
X34500330Y-26695585D01*
X34293539Y-27005069D01*
X33922036Y-26589268D01*
X33394791Y-26335291D01*
X33379026Y-26332642D01*
X33147000Y-26453783D01*
X33147000Y-27813000D01*
X33167000Y-27813000D01*
X33167000Y-28067000D01*
X33147000Y-28067000D01*
X33147000Y-28087000D01*
X32893000Y-28087000D01*
X32893000Y-28067000D01*
X32873000Y-28067000D01*
X32873000Y-27813000D01*
X32893000Y-27813000D01*
X32893000Y-26453783D01*
X32660974Y-26332642D01*
X32645209Y-26335291D01*
X32117964Y-26589268D01*
X31746461Y-27005069D01*
X31539670Y-26695585D01*
X31053489Y-26370729D01*
X30480000Y-26256655D01*
X29906511Y-26370729D01*
X29420330Y-26695585D01*
X29405500Y-26717780D01*
X29341927Y-26564302D01*
X29163299Y-26385673D01*
X28929910Y-26289000D01*
X28225750Y-26289000D01*
X28067000Y-26447750D01*
X28067000Y-27813000D01*
X28087000Y-27813000D01*
X28087000Y-28067000D01*
X28067000Y-28067000D01*
X28067000Y-29432250D01*
X28225750Y-29591000D01*
X28929910Y-29591000D01*
X29163299Y-29494327D01*
X29341927Y-29315698D01*
X29405500Y-29162220D01*
X29420330Y-29184415D01*
X29641800Y-29332397D01*
X29641800Y-29362400D01*
X29705604Y-29683166D01*
X29821156Y-29856101D01*
X29658927Y-29888370D01*
X29419957Y-30048045D01*
X27508045Y-31959957D01*
X27348370Y-32198927D01*
X27292300Y-32480812D01*
X27292300Y-33788510D01*
X27249800Y-33775000D01*
X26974800Y-33775000D01*
X26974800Y-34783000D01*
X26994800Y-34783000D01*
X26994800Y-35037000D01*
X26974800Y-35037000D01*
X26974800Y-36045000D01*
X27249800Y-36045000D01*
X27292300Y-36031490D01*
X27292300Y-37623188D01*
X27348370Y-37905073D01*
X27508045Y-38144043D01*
X28198457Y-38834455D01*
X28226689Y-38853319D01*
X28225360Y-38860000D01*
X28225360Y-39260000D01*
X28246017Y-39363852D01*
X28237800Y-39383690D01*
X28237800Y-39451250D01*
X28269758Y-39483208D01*
X28274643Y-39507765D01*
X28414991Y-39717809D01*
X28552964Y-39810000D01*
X28396550Y-39810000D01*
X28237800Y-39968750D01*
X28237800Y-40036310D01*
X28334473Y-40269699D01*
X28504890Y-40440115D01*
X28446571Y-40608869D01*
X28595237Y-40783000D01*
X29420800Y-40783000D01*
X29420800Y-40763000D01*
X29674800Y-40763000D01*
X29674800Y-40783000D01*
X30500363Y-40783000D01*
X30649029Y-40608869D01*
X30590710Y-40440115D01*
X30761127Y-40269699D01*
X30857800Y-40036310D01*
X30857800Y-39968750D01*
X30699050Y-39810000D01*
X30542636Y-39810000D01*
X30680609Y-39717809D01*
X30820957Y-39507765D01*
X30825842Y-39483208D01*
X30857800Y-39451250D01*
X30857800Y-39383690D01*
X30849583Y-39363852D01*
X30870240Y-39260000D01*
X30870240Y-38860000D01*
X30845376Y-38735000D01*
X30870240Y-38610000D01*
X30870240Y-38210000D01*
X30845376Y-38085000D01*
X30857029Y-38026419D01*
X30991701Y-38082340D01*
X31363667Y-38082664D01*
X31707443Y-37940619D01*
X31970692Y-37677829D01*
X32113338Y-37334301D01*
X32113662Y-36962335D01*
X32016700Y-36727668D01*
X32016700Y-36673994D01*
X32382903Y-37040197D01*
X32654835Y-37221896D01*
X32814617Y-37253679D01*
X32783843Y-37299735D01*
X32734560Y-37547500D01*
X32734560Y-38147500D01*
X32783843Y-38395265D01*
X32924191Y-38605309D01*
X33134235Y-38745657D01*
X33183581Y-38755472D01*
X33261145Y-38871555D01*
X33292015Y-38902425D01*
X33228162Y-39056201D01*
X33227838Y-39428167D01*
X33369883Y-39771943D01*
X33608994Y-40011471D01*
X33608838Y-40190167D01*
X33750883Y-40533943D01*
X34013673Y-40797192D01*
X34351033Y-40937277D01*
X34334500Y-40977191D01*
X34334500Y-41117750D01*
X34493250Y-41276500D01*
X35242500Y-41276500D01*
X35242500Y-41256500D01*
X35496500Y-41256500D01*
X35496500Y-41276500D01*
X36245750Y-41276500D01*
X36404500Y-41117750D01*
X36404500Y-40977191D01*
X36307827Y-40743802D01*
X36280225Y-40716200D01*
X36540925Y-40716200D01*
X36626191Y-40843809D01*
X36836235Y-40984157D01*
X37021459Y-41021000D01*
X36957690Y-41021000D01*
X36724301Y-41117673D01*
X36545673Y-41296302D01*
X36449000Y-41529691D01*
X36449000Y-41878250D01*
X36607750Y-42037000D01*
X37973000Y-42037000D01*
X37973000Y-42017000D01*
X38227000Y-42017000D01*
X38227000Y-42037000D01*
X39592250Y-42037000D01*
X39751000Y-41878250D01*
X39751000Y-41529691D01*
X39654327Y-41296302D01*
X39475699Y-41117673D01*
X39242310Y-41021000D01*
X39178541Y-41021000D01*
X39363765Y-40984157D01*
X39573809Y-40843809D01*
X39714157Y-40633765D01*
X39763440Y-40386000D01*
X39763440Y-40119615D01*
X39850115Y-40177530D01*
X40132000Y-40233600D01*
X41402000Y-40233600D01*
X41683885Y-40177530D01*
X41922855Y-40017855D01*
X42446855Y-39493855D01*
X42606530Y-39254885D01*
X42662600Y-38973000D01*
X42662600Y-38699704D01*
X42676000Y-38697038D01*
X42926000Y-38746767D01*
X43176000Y-38697038D01*
X43426000Y-38746767D01*
X43676000Y-38697038D01*
X43926000Y-38746767D01*
X44176000Y-38697038D01*
X44426000Y-38746767D01*
X44726406Y-38687012D01*
X44981079Y-38516846D01*
X45151245Y-38262173D01*
X45211000Y-37961767D01*
X45211000Y-37501000D01*
X45671767Y-37501000D01*
X45972173Y-37441245D01*
X45999400Y-37423053D01*
X45999400Y-39758181D01*
X45967765Y-39737043D01*
X45720000Y-39687760D01*
X43688000Y-39687760D01*
X43440235Y-39737043D01*
X43230191Y-39877391D01*
X43089843Y-40087435D01*
X43040560Y-40335200D01*
X43040560Y-43992800D01*
X43089843Y-44240565D01*
X43230191Y-44450609D01*
X43440235Y-44590957D01*
X43688000Y-44640240D01*
X45720000Y-44640240D01*
X45967765Y-44590957D01*
X46177809Y-44450609D01*
X46318157Y-44240565D01*
X46367440Y-43992800D01*
X46367440Y-43860190D01*
X47450500Y-43860190D01*
X47450500Y-44100750D01*
X47609250Y-44259500D01*
X48258500Y-44259500D01*
X48258500Y-43510250D01*
X48099750Y-43351500D01*
X47959191Y-43351500D01*
X47725802Y-43448173D01*
X47547173Y-43626801D01*
X47450500Y-43860190D01*
X46367440Y-43860190D01*
X46367440Y-41028603D01*
X48687192Y-43348355D01*
X48691899Y-43351500D01*
X48671250Y-43351500D01*
X48512500Y-43510250D01*
X48512500Y-44259500D01*
X48532500Y-44259500D01*
X48532500Y-44513500D01*
X48512500Y-44513500D01*
X48512500Y-45656500D01*
X48532500Y-45656500D01*
X48532500Y-45910500D01*
X48512500Y-45910500D01*
X48512500Y-45930500D01*
X48258500Y-45930500D01*
X48258500Y-45910500D01*
X47609250Y-45910500D01*
X47450500Y-46069250D01*
X47450500Y-46101000D01*
X30374440Y-46101000D01*
X30374440Y-45320000D01*
X30325157Y-45072235D01*
X30236327Y-44939293D01*
X30300157Y-44843765D01*
X30341649Y-44635167D01*
X33926338Y-44635167D01*
X34068383Y-44978943D01*
X34331173Y-45242192D01*
X34674701Y-45384838D01*
X35046667Y-45385162D01*
X35281334Y-45288200D01*
X36540925Y-45288200D01*
X36626191Y-45415809D01*
X36836235Y-45556157D01*
X37084000Y-45605440D01*
X39116000Y-45605440D01*
X39363765Y-45556157D01*
X39573809Y-45415809D01*
X39714157Y-45205765D01*
X39763440Y-44958000D01*
X39763440Y-44672250D01*
X47450500Y-44672250D01*
X47450500Y-44912810D01*
X47521824Y-45085000D01*
X47450500Y-45257190D01*
X47450500Y-45497750D01*
X47609250Y-45656500D01*
X48258500Y-45656500D01*
X48258500Y-44513500D01*
X47609250Y-44513500D01*
X47450500Y-44672250D01*
X39763440Y-44672250D01*
X39763440Y-43942000D01*
X39714157Y-43694235D01*
X39573809Y-43484191D01*
X39363765Y-43343843D01*
X39178541Y-43307000D01*
X39242310Y-43307000D01*
X39475699Y-43210327D01*
X39654327Y-43031698D01*
X39751000Y-42798309D01*
X39751000Y-42449750D01*
X39592250Y-42291000D01*
X38227000Y-42291000D01*
X38227000Y-42311000D01*
X37973000Y-42311000D01*
X37973000Y-42291000D01*
X36607750Y-42291000D01*
X36449000Y-42449750D01*
X36449000Y-42798309D01*
X36545673Y-43031698D01*
X36724301Y-43210327D01*
X36957690Y-43307000D01*
X37021459Y-43307000D01*
X36836235Y-43343843D01*
X36626191Y-43484191D01*
X36540925Y-43611800D01*
X35281028Y-43611800D01*
X35048299Y-43515162D01*
X34676333Y-43514838D01*
X34332557Y-43656883D01*
X34069308Y-43919673D01*
X33926662Y-44263201D01*
X33926338Y-44635167D01*
X30341649Y-44635167D01*
X30349440Y-44596000D01*
X30349440Y-43796000D01*
X30300157Y-43548235D01*
X30159809Y-43338191D01*
X29949765Y-43197843D01*
X29702000Y-43148560D01*
X29510028Y-43148560D01*
X29510162Y-42994833D01*
X29368117Y-42651057D01*
X29105327Y-42387808D01*
X28761799Y-42245162D01*
X28389833Y-42244838D01*
X28152604Y-42342859D01*
X28216919Y-42211874D01*
X28090754Y-42037000D01*
X26974800Y-42037000D01*
X26974800Y-43045000D01*
X27249800Y-43045000D01*
X27674478Y-42910002D01*
X27674834Y-42909702D01*
X27640162Y-42993201D01*
X27640092Y-43073198D01*
X27530646Y-43182644D01*
X27454235Y-43197843D01*
X27244191Y-43338191D01*
X27103843Y-43548235D01*
X27054560Y-43796000D01*
X27054560Y-44596000D01*
X27103843Y-44843765D01*
X27164472Y-44934502D01*
X27138673Y-44960301D01*
X27042000Y-45193690D01*
X27042000Y-45434250D01*
X27200750Y-45593000D01*
X27850000Y-45593000D01*
X27850000Y-45573000D01*
X28104000Y-45573000D01*
X28104000Y-45593000D01*
X28124000Y-45593000D01*
X28124000Y-45847000D01*
X28104000Y-45847000D01*
X28104000Y-45867000D01*
X27850000Y-45867000D01*
X27850000Y-45847000D01*
X27200750Y-45847000D01*
X27042000Y-46005750D01*
X27042000Y-46101000D01*
X26085000Y-46101000D01*
X26085000Y-42930308D01*
X26445800Y-43045000D01*
X26720800Y-43045000D01*
X26720800Y-42037000D01*
X26700800Y-42037000D01*
X26700800Y-41783000D01*
X26720800Y-41783000D01*
X26720800Y-40775000D01*
X26974800Y-40775000D01*
X26974800Y-41783000D01*
X28090754Y-41783000D01*
X28216919Y-41608126D01*
X28021991Y-41211131D01*
X28446571Y-41211131D01*
X28588232Y-41621049D01*
X28875979Y-41945552D01*
X29249862Y-42129268D01*
X29420800Y-42002734D01*
X29420800Y-41037000D01*
X29674800Y-41037000D01*
X29674800Y-42002734D01*
X29845738Y-42129268D01*
X30219621Y-41945552D01*
X30446892Y-41689250D01*
X34334500Y-41689250D01*
X34334500Y-41829809D01*
X34431173Y-42063198D01*
X34609801Y-42241827D01*
X34843190Y-42338500D01*
X35083750Y-42338500D01*
X35242500Y-42179750D01*
X35242500Y-41530500D01*
X35496500Y-41530500D01*
X35496500Y-42179750D01*
X35655250Y-42338500D01*
X35895810Y-42338500D01*
X36129199Y-42241827D01*
X36307827Y-42063198D01*
X36404500Y-41829809D01*
X36404500Y-41689250D01*
X36245750Y-41530500D01*
X35496500Y-41530500D01*
X35242500Y-41530500D01*
X34493250Y-41530500D01*
X34334500Y-41689250D01*
X30446892Y-41689250D01*
X30507368Y-41621049D01*
X30649029Y-41211131D01*
X30500363Y-41037000D01*
X29674800Y-41037000D01*
X29420800Y-41037000D01*
X28595237Y-41037000D01*
X28446571Y-41211131D01*
X28021991Y-41211131D01*
X28015168Y-41197237D01*
X27674478Y-40909998D01*
X27249800Y-40775000D01*
X26974800Y-40775000D01*
X26720800Y-40775000D01*
X26445800Y-40775000D01*
X26085000Y-40889692D01*
X26085000Y-35930308D01*
X26445800Y-36045000D01*
X26720800Y-36045000D01*
X26720800Y-35037000D01*
X26700800Y-35037000D01*
X26700800Y-34783000D01*
X26720800Y-34783000D01*
X26720800Y-33775000D01*
X26445800Y-33775000D01*
X26085000Y-33889692D01*
X26085000Y-28225750D01*
X26441400Y-28225750D01*
X26441400Y-29082309D01*
X26538073Y-29315698D01*
X26716701Y-29494327D01*
X26950090Y-29591000D01*
X27654250Y-29591000D01*
X27813000Y-29432250D01*
X27813000Y-28067000D01*
X26600150Y-28067000D01*
X26441400Y-28225750D01*
X26085000Y-28225750D01*
X26085000Y-28007467D01*
X26238602Y-27235259D01*
X26441400Y-26931750D01*
X26441400Y-27654250D01*
X26600150Y-27813000D01*
X27813000Y-27813000D01*
X27813000Y-26447750D01*
X27654250Y-26289000D01*
X27159831Y-26289000D01*
X27235257Y-26238602D01*
X28007467Y-26085000D01*
X71052533Y-26085000D01*
X71824741Y-26238602D01*
X71824741Y-26238602D01*
G37*
X71824741Y-26238602D02*
X72422193Y-26637807D01*
X72821398Y-27235257D01*
X72975000Y-28007467D01*
X72975000Y-31041437D01*
X72803782Y-30627057D01*
X72245880Y-30068181D01*
X71516573Y-29765346D01*
X70726891Y-29764657D01*
X69997057Y-30066218D01*
X69438181Y-30624120D01*
X69135346Y-31353427D01*
X69134657Y-32143109D01*
X69436218Y-32872943D01*
X69994120Y-33431819D01*
X70723427Y-33734654D01*
X71513109Y-33735343D01*
X72242943Y-33433782D01*
X72801819Y-32875880D01*
X72975000Y-32458814D01*
X72975000Y-41671547D01*
X72834004Y-41577336D01*
X72591000Y-41529000D01*
X67191000Y-41529000D01*
X67162849Y-41534599D01*
X67157250Y-41529000D01*
X67064690Y-41529000D01*
X66947997Y-41577336D01*
X66947996Y-41577336D01*
X66947995Y-41577337D01*
X66831301Y-41625673D01*
X66673975Y-41783000D01*
X66405000Y-41783000D01*
X66405000Y-41687750D01*
X66246250Y-41529000D01*
X65597000Y-41529000D01*
X65597000Y-41549000D01*
X65343000Y-41549000D01*
X65343000Y-41529000D01*
X65323000Y-41529000D01*
X65323000Y-41275000D01*
X65343000Y-41275000D01*
X65343000Y-40525750D01*
X65318500Y-40501250D01*
X65318500Y-40284500D01*
X65572500Y-40284500D01*
X65572500Y-41033750D01*
X65597000Y-41058250D01*
X65597000Y-41275000D01*
X66246250Y-41275000D01*
X66405000Y-41116250D01*
X66405000Y-40875690D01*
X66353010Y-40750176D01*
X66380500Y-40683810D01*
X66380500Y-40443250D01*
X66221750Y-40284500D01*
X65572500Y-40284500D01*
X65318500Y-40284500D01*
X65298500Y-40284500D01*
X65298500Y-40030500D01*
X65318500Y-40030500D01*
X65318500Y-39014500D01*
X65298500Y-39014500D01*
X65298500Y-38938200D01*
X65592500Y-38938200D01*
X65592500Y-39014500D01*
X65572500Y-39014500D01*
X65572500Y-40030500D01*
X66221750Y-40030500D01*
X66380500Y-39871750D01*
X66380500Y-39631190D01*
X66335479Y-39522500D01*
X66380500Y-39413810D01*
X66380500Y-39173250D01*
X66221752Y-39014502D01*
X66380500Y-39014502D01*
X66380500Y-38888154D01*
X66410785Y-38882130D01*
X66649755Y-38722455D01*
X66878355Y-38493855D01*
X67038030Y-38254885D01*
X67094100Y-37973000D01*
X67094100Y-36512505D01*
X67094101Y-36512500D01*
X67041945Y-36250296D01*
X67038030Y-36230615D01*
X66878355Y-35991645D01*
X66646355Y-35759645D01*
X66555000Y-35698603D01*
X66531157Y-35578735D01*
X66390809Y-35368691D01*
X66180765Y-35228343D01*
X65933000Y-35179060D01*
X64983000Y-35179060D01*
X64735235Y-35228343D01*
X64721084Y-35237799D01*
X64609309Y-35191500D01*
X64293750Y-35191500D01*
X64135000Y-35350250D01*
X64135000Y-36124500D01*
X64155000Y-36124500D01*
X64155000Y-36329060D01*
X63533000Y-36329060D01*
X63450267Y-36345517D01*
X63360250Y-36255500D01*
X62611000Y-36255500D01*
X62611000Y-36275500D01*
X62357000Y-36275500D01*
X62357000Y-36255500D01*
X61087000Y-36255500D01*
X61087000Y-36275500D01*
X60833000Y-36275500D01*
X60833000Y-36255500D01*
X60813000Y-36255500D01*
X60813000Y-36001500D01*
X60833000Y-36001500D01*
X60833000Y-35352250D01*
X61087000Y-35352250D01*
X61087000Y-36001500D01*
X62357000Y-36001500D01*
X62357000Y-35352250D01*
X62611000Y-35352250D01*
X62611000Y-36001500D01*
X62933750Y-36001500D01*
X63056750Y-36124500D01*
X63881000Y-36124500D01*
X63881000Y-35350250D01*
X63722250Y-35191500D01*
X63406691Y-35191500D01*
X63206086Y-35274593D01*
X63010310Y-35193500D01*
X62769750Y-35193500D01*
X62611000Y-35352250D01*
X62357000Y-35352250D01*
X62198250Y-35193500D01*
X61957690Y-35193500D01*
X61724301Y-35290173D01*
X61722000Y-35292474D01*
X61719699Y-35290173D01*
X61486310Y-35193500D01*
X61245750Y-35193500D01*
X61087000Y-35352250D01*
X60833000Y-35352250D01*
X60697100Y-35216350D01*
X60697100Y-31089600D01*
X68199000Y-31089600D01*
X68480885Y-31033530D01*
X68719855Y-30873855D01*
X70269519Y-29324191D01*
X70546511Y-29509271D01*
X71120000Y-29623345D01*
X71693489Y-29509271D01*
X72179670Y-29184415D01*
X72504526Y-28698234D01*
X72618600Y-28124745D01*
X72618600Y-27755255D01*
X72504526Y-27181766D01*
X72179670Y-26695585D01*
X71693489Y-26370729D01*
X71120000Y-26256655D01*
X70546511Y-26370729D01*
X70060330Y-26695585D01*
X69850000Y-27010366D01*
X69639670Y-26695585D01*
X69153489Y-26370729D01*
X68580000Y-26256655D01*
X68006511Y-26370729D01*
X67520330Y-26695585D01*
X67310000Y-27010366D01*
X67099670Y-26695585D01*
X66613489Y-26370729D01*
X66040000Y-26256655D01*
X65466511Y-26370729D01*
X64980330Y-26695585D01*
X64770000Y-27010366D01*
X64559670Y-26695585D01*
X64073489Y-26370729D01*
X63500000Y-26256655D01*
X62926511Y-26370729D01*
X62440330Y-26695585D01*
X62230000Y-27010366D01*
X62019670Y-26695585D01*
X61533489Y-26370729D01*
X60960000Y-26256655D01*
X60386511Y-26370729D01*
X59900330Y-26695585D01*
X59690000Y-27010366D01*
X59479670Y-26695585D01*
X58993489Y-26370729D01*
X58420000Y-26256655D01*
X57846511Y-26370729D01*
X57360330Y-26695585D01*
X57150000Y-27010366D01*
X56939670Y-26695585D01*
X56453489Y-26370729D01*
X55880000Y-26256655D01*
X55306511Y-26370729D01*
X54820330Y-26695585D01*
X54610000Y-27010366D01*
X54399670Y-26695585D01*
X53913489Y-26370729D01*
X53340000Y-26256655D01*
X52766511Y-26370729D01*
X52280330Y-26695585D01*
X52070000Y-27010366D01*
X51859670Y-26695585D01*
X51373489Y-26370729D01*
X50800000Y-26256655D01*
X50226511Y-26370729D01*
X49740330Y-26695585D01*
X49530000Y-27010366D01*
X49319670Y-26695585D01*
X48833489Y-26370729D01*
X48260000Y-26256655D01*
X47686511Y-26370729D01*
X47200330Y-26695585D01*
X46990000Y-27010366D01*
X46779670Y-26695585D01*
X46293489Y-26370729D01*
X45720000Y-26256655D01*
X45146511Y-26370729D01*
X44660330Y-26695585D01*
X44450000Y-27010366D01*
X44239670Y-26695585D01*
X43753489Y-26370729D01*
X43180000Y-26256655D01*
X42606511Y-26370729D01*
X42120330Y-26695585D01*
X41910000Y-27010366D01*
X41699670Y-26695585D01*
X41213489Y-26370729D01*
X40640000Y-26256655D01*
X40066511Y-26370729D01*
X39580330Y-26695585D01*
X39370000Y-27010366D01*
X39159670Y-26695585D01*
X38673489Y-26370729D01*
X38100000Y-26256655D01*
X37526511Y-26370729D01*
X37040330Y-26695585D01*
X36830000Y-27010366D01*
X36619670Y-26695585D01*
X36133489Y-26370729D01*
X35560000Y-26256655D01*
X34986511Y-26370729D01*
X34500330Y-26695585D01*
X34293539Y-27005069D01*
X33922036Y-26589268D01*
X33394791Y-26335291D01*
X33379026Y-26332642D01*
X33147000Y-26453783D01*
X33147000Y-27813000D01*
X33167000Y-27813000D01*
X33167000Y-28067000D01*
X33147000Y-28067000D01*
X33147000Y-28087000D01*
X32893000Y-28087000D01*
X32893000Y-28067000D01*
X32873000Y-28067000D01*
X32873000Y-27813000D01*
X32893000Y-27813000D01*
X32893000Y-26453783D01*
X32660974Y-26332642D01*
X32645209Y-26335291D01*
X32117964Y-26589268D01*
X31746461Y-27005069D01*
X31539670Y-26695585D01*
X31053489Y-26370729D01*
X30480000Y-26256655D01*
X29906511Y-26370729D01*
X29420330Y-26695585D01*
X29405500Y-26717780D01*
X29341927Y-26564302D01*
X29163299Y-26385673D01*
X28929910Y-26289000D01*
X28225750Y-26289000D01*
X28067000Y-26447750D01*
X28067000Y-27813000D01*
X28087000Y-27813000D01*
X28087000Y-28067000D01*
X28067000Y-28067000D01*
X28067000Y-29432250D01*
X28225750Y-29591000D01*
X28929910Y-29591000D01*
X29163299Y-29494327D01*
X29341927Y-29315698D01*
X29405500Y-29162220D01*
X29420330Y-29184415D01*
X29641800Y-29332397D01*
X29641800Y-29362400D01*
X29705604Y-29683166D01*
X29821156Y-29856101D01*
X29658927Y-29888370D01*
X29419957Y-30048045D01*
X27508045Y-31959957D01*
X27348370Y-32198927D01*
X27292300Y-32480812D01*
X27292300Y-33788510D01*
X27249800Y-33775000D01*
X26974800Y-33775000D01*
X26974800Y-34783000D01*
X26994800Y-34783000D01*
X26994800Y-35037000D01*
X26974800Y-35037000D01*
X26974800Y-36045000D01*
X27249800Y-36045000D01*
X27292300Y-36031490D01*
X27292300Y-37623188D01*
X27348370Y-37905073D01*
X27508045Y-38144043D01*
X28198457Y-38834455D01*
X28226689Y-38853319D01*
X28225360Y-38860000D01*
X28225360Y-39260000D01*
X28246017Y-39363852D01*
X28237800Y-39383690D01*
X28237800Y-39451250D01*
X28269758Y-39483208D01*
X28274643Y-39507765D01*
X28414991Y-39717809D01*
X28552964Y-39810000D01*
X28396550Y-39810000D01*
X28237800Y-39968750D01*
X28237800Y-40036310D01*
X28334473Y-40269699D01*
X28504890Y-40440115D01*
X28446571Y-40608869D01*
X28595237Y-40783000D01*
X29420800Y-40783000D01*
X29420800Y-40763000D01*
X29674800Y-40763000D01*
X29674800Y-40783000D01*
X30500363Y-40783000D01*
X30649029Y-40608869D01*
X30590710Y-40440115D01*
X30761127Y-40269699D01*
X30857800Y-40036310D01*
X30857800Y-39968750D01*
X30699050Y-39810000D01*
X30542636Y-39810000D01*
X30680609Y-39717809D01*
X30820957Y-39507765D01*
X30825842Y-39483208D01*
X30857800Y-39451250D01*
X30857800Y-39383690D01*
X30849583Y-39363852D01*
X30870240Y-39260000D01*
X30870240Y-38860000D01*
X30845376Y-38735000D01*
X30870240Y-38610000D01*
X30870240Y-38210000D01*
X30845376Y-38085000D01*
X30857029Y-38026419D01*
X30991701Y-38082340D01*
X31363667Y-38082664D01*
X31707443Y-37940619D01*
X31970692Y-37677829D01*
X32113338Y-37334301D01*
X32113662Y-36962335D01*
X32016700Y-36727668D01*
X32016700Y-36673994D01*
X32382903Y-37040197D01*
X32654835Y-37221896D01*
X32814617Y-37253679D01*
X32783843Y-37299735D01*
X32734560Y-37547500D01*
X32734560Y-38147500D01*
X32783843Y-38395265D01*
X32924191Y-38605309D01*
X33134235Y-38745657D01*
X33183581Y-38755472D01*
X33261145Y-38871555D01*
X33292015Y-38902425D01*
X33228162Y-39056201D01*
X33227838Y-39428167D01*
X33369883Y-39771943D01*
X33608994Y-40011471D01*
X33608838Y-40190167D01*
X33750883Y-40533943D01*
X34013673Y-40797192D01*
X34351033Y-40937277D01*
X34334500Y-40977191D01*
X34334500Y-41117750D01*
X34493250Y-41276500D01*
X35242500Y-41276500D01*
X35242500Y-41256500D01*
X35496500Y-41256500D01*
X35496500Y-41276500D01*
X36245750Y-41276500D01*
X36404500Y-41117750D01*
X36404500Y-40977191D01*
X36307827Y-40743802D01*
X36280225Y-40716200D01*
X36540925Y-40716200D01*
X36626191Y-40843809D01*
X36836235Y-40984157D01*
X37021459Y-41021000D01*
X36957690Y-41021000D01*
X36724301Y-41117673D01*
X36545673Y-41296302D01*
X36449000Y-41529691D01*
X36449000Y-41878250D01*
X36607750Y-42037000D01*
X37973000Y-42037000D01*
X37973000Y-42017000D01*
X38227000Y-42017000D01*
X38227000Y-42037000D01*
X39592250Y-42037000D01*
X39751000Y-41878250D01*
X39751000Y-41529691D01*
X39654327Y-41296302D01*
X39475699Y-41117673D01*
X39242310Y-41021000D01*
X39178541Y-41021000D01*
X39363765Y-40984157D01*
X39573809Y-40843809D01*
X39714157Y-40633765D01*
X39763440Y-40386000D01*
X39763440Y-40119615D01*
X39850115Y-40177530D01*
X40132000Y-40233600D01*
X41402000Y-40233600D01*
X41683885Y-40177530D01*
X41922855Y-40017855D01*
X42446855Y-39493855D01*
X42606530Y-39254885D01*
X42662600Y-38973000D01*
X42662600Y-38699704D01*
X42676000Y-38697038D01*
X42926000Y-38746767D01*
X43176000Y-38697038D01*
X43426000Y-38746767D01*
X43676000Y-38697038D01*
X43926000Y-38746767D01*
X44176000Y-38697038D01*
X44426000Y-38746767D01*
X44726406Y-38687012D01*
X44981079Y-38516846D01*
X45151245Y-38262173D01*
X45211000Y-37961767D01*
X45211000Y-37501000D01*
X45671767Y-37501000D01*
X45972173Y-37441245D01*
X45999400Y-37423053D01*
X45999400Y-39758181D01*
X45967765Y-39737043D01*
X45720000Y-39687760D01*
X43688000Y-39687760D01*
X43440235Y-39737043D01*
X43230191Y-39877391D01*
X43089843Y-40087435D01*
X43040560Y-40335200D01*
X43040560Y-43992800D01*
X43089843Y-44240565D01*
X43230191Y-44450609D01*
X43440235Y-44590957D01*
X43688000Y-44640240D01*
X45720000Y-44640240D01*
X45967765Y-44590957D01*
X46177809Y-44450609D01*
X46318157Y-44240565D01*
X46367440Y-43992800D01*
X46367440Y-43860190D01*
X47450500Y-43860190D01*
X47450500Y-44100750D01*
X47609250Y-44259500D01*
X48258500Y-44259500D01*
X48258500Y-43510250D01*
X48099750Y-43351500D01*
X47959191Y-43351500D01*
X47725802Y-43448173D01*
X47547173Y-43626801D01*
X47450500Y-43860190D01*
X46367440Y-43860190D01*
X46367440Y-41028603D01*
X48687192Y-43348355D01*
X48691899Y-43351500D01*
X48671250Y-43351500D01*
X48512500Y-43510250D01*
X48512500Y-44259500D01*
X48532500Y-44259500D01*
X48532500Y-44513500D01*
X48512500Y-44513500D01*
X48512500Y-45656500D01*
X48532500Y-45656500D01*
X48532500Y-45910500D01*
X48512500Y-45910500D01*
X48512500Y-45930500D01*
X48258500Y-45930500D01*
X48258500Y-45910500D01*
X47609250Y-45910500D01*
X47450500Y-46069250D01*
X47450500Y-46101000D01*
X30374440Y-46101000D01*
X30374440Y-45320000D01*
X30325157Y-45072235D01*
X30236327Y-44939293D01*
X30300157Y-44843765D01*
X30341649Y-44635167D01*
X33926338Y-44635167D01*
X34068383Y-44978943D01*
X34331173Y-45242192D01*
X34674701Y-45384838D01*
X35046667Y-45385162D01*
X35281334Y-45288200D01*
X36540925Y-45288200D01*
X36626191Y-45415809D01*
X36836235Y-45556157D01*
X37084000Y-45605440D01*
X39116000Y-45605440D01*
X39363765Y-45556157D01*
X39573809Y-45415809D01*
X39714157Y-45205765D01*
X39763440Y-44958000D01*
X39763440Y-44672250D01*
X47450500Y-44672250D01*
X47450500Y-44912810D01*
X47521824Y-45085000D01*
X47450500Y-45257190D01*
X47450500Y-45497750D01*
X47609250Y-45656500D01*
X48258500Y-45656500D01*
X48258500Y-44513500D01*
X47609250Y-44513500D01*
X47450500Y-44672250D01*
X39763440Y-44672250D01*
X39763440Y-43942000D01*
X39714157Y-43694235D01*
X39573809Y-43484191D01*
X39363765Y-43343843D01*
X39178541Y-43307000D01*
X39242310Y-43307000D01*
X39475699Y-43210327D01*
X39654327Y-43031698D01*
X39751000Y-42798309D01*
X39751000Y-42449750D01*
X39592250Y-42291000D01*
X38227000Y-42291000D01*
X38227000Y-42311000D01*
X37973000Y-42311000D01*
X37973000Y-42291000D01*
X36607750Y-42291000D01*
X36449000Y-42449750D01*
X36449000Y-42798309D01*
X36545673Y-43031698D01*
X36724301Y-43210327D01*
X36957690Y-43307000D01*
X37021459Y-43307000D01*
X36836235Y-43343843D01*
X36626191Y-43484191D01*
X36540925Y-43611800D01*
X35281028Y-43611800D01*
X35048299Y-43515162D01*
X34676333Y-43514838D01*
X34332557Y-43656883D01*
X34069308Y-43919673D01*
X33926662Y-44263201D01*
X33926338Y-44635167D01*
X30341649Y-44635167D01*
X30349440Y-44596000D01*
X30349440Y-43796000D01*
X30300157Y-43548235D01*
X30159809Y-43338191D01*
X29949765Y-43197843D01*
X29702000Y-43148560D01*
X29510028Y-43148560D01*
X29510162Y-42994833D01*
X29368117Y-42651057D01*
X29105327Y-42387808D01*
X28761799Y-42245162D01*
X28389833Y-42244838D01*
X28152604Y-42342859D01*
X28216919Y-42211874D01*
X28090754Y-42037000D01*
X26974800Y-42037000D01*
X26974800Y-43045000D01*
X27249800Y-43045000D01*
X27674478Y-42910002D01*
X27674834Y-42909702D01*
X27640162Y-42993201D01*
X27640092Y-43073198D01*
X27530646Y-43182644D01*
X27454235Y-43197843D01*
X27244191Y-43338191D01*
X27103843Y-43548235D01*
X27054560Y-43796000D01*
X27054560Y-44596000D01*
X27103843Y-44843765D01*
X27164472Y-44934502D01*
X27138673Y-44960301D01*
X27042000Y-45193690D01*
X27042000Y-45434250D01*
X27200750Y-45593000D01*
X27850000Y-45593000D01*
X27850000Y-45573000D01*
X28104000Y-45573000D01*
X28104000Y-45593000D01*
X28124000Y-45593000D01*
X28124000Y-45847000D01*
X28104000Y-45847000D01*
X28104000Y-45867000D01*
X27850000Y-45867000D01*
X27850000Y-45847000D01*
X27200750Y-45847000D01*
X27042000Y-46005750D01*
X27042000Y-46101000D01*
X26085000Y-46101000D01*
X26085000Y-42930308D01*
X26445800Y-43045000D01*
X26720800Y-43045000D01*
X26720800Y-42037000D01*
X26700800Y-42037000D01*
X26700800Y-41783000D01*
X26720800Y-41783000D01*
X26720800Y-40775000D01*
X26974800Y-40775000D01*
X26974800Y-41783000D01*
X28090754Y-41783000D01*
X28216919Y-41608126D01*
X28021991Y-41211131D01*
X28446571Y-41211131D01*
X28588232Y-41621049D01*
X28875979Y-41945552D01*
X29249862Y-42129268D01*
X29420800Y-42002734D01*
X29420800Y-41037000D01*
X29674800Y-41037000D01*
X29674800Y-42002734D01*
X29845738Y-42129268D01*
X30219621Y-41945552D01*
X30446892Y-41689250D01*
X34334500Y-41689250D01*
X34334500Y-41829809D01*
X34431173Y-42063198D01*
X34609801Y-42241827D01*
X34843190Y-42338500D01*
X35083750Y-42338500D01*
X35242500Y-42179750D01*
X35242500Y-41530500D01*
X35496500Y-41530500D01*
X35496500Y-42179750D01*
X35655250Y-42338500D01*
X35895810Y-42338500D01*
X36129199Y-42241827D01*
X36307827Y-42063198D01*
X36404500Y-41829809D01*
X36404500Y-41689250D01*
X36245750Y-41530500D01*
X35496500Y-41530500D01*
X35242500Y-41530500D01*
X34493250Y-41530500D01*
X34334500Y-41689250D01*
X30446892Y-41689250D01*
X30507368Y-41621049D01*
X30649029Y-41211131D01*
X30500363Y-41037000D01*
X29674800Y-41037000D01*
X29420800Y-41037000D01*
X28595237Y-41037000D01*
X28446571Y-41211131D01*
X28021991Y-41211131D01*
X28015168Y-41197237D01*
X27674478Y-40909998D01*
X27249800Y-40775000D01*
X26974800Y-40775000D01*
X26720800Y-40775000D01*
X26445800Y-40775000D01*
X26085000Y-40889692D01*
X26085000Y-35930308D01*
X26445800Y-36045000D01*
X26720800Y-36045000D01*
X26720800Y-35037000D01*
X26700800Y-35037000D01*
X26700800Y-34783000D01*
X26720800Y-34783000D01*
X26720800Y-33775000D01*
X26445800Y-33775000D01*
X26085000Y-33889692D01*
X26085000Y-28225750D01*
X26441400Y-28225750D01*
X26441400Y-29082309D01*
X26538073Y-29315698D01*
X26716701Y-29494327D01*
X26950090Y-29591000D01*
X27654250Y-29591000D01*
X27813000Y-29432250D01*
X27813000Y-28067000D01*
X26600150Y-28067000D01*
X26441400Y-28225750D01*
X26085000Y-28225750D01*
X26085000Y-28007467D01*
X26238602Y-27235259D01*
X26441400Y-26931750D01*
X26441400Y-27654250D01*
X26600150Y-27813000D01*
X27813000Y-27813000D01*
X27813000Y-26447750D01*
X27654250Y-26289000D01*
X27159831Y-26289000D01*
X27235257Y-26238602D01*
X28007467Y-26085000D01*
X71052533Y-26085000D01*
X71824741Y-26238602D01*
G36*
X52800560Y-44812000D02*
X52849843Y-45059765D01*
X52898500Y-45132585D01*
X52898500Y-45279276D01*
X52813000Y-45485691D01*
X52813000Y-45626250D01*
X52918500Y-45731750D01*
X52918500Y-45784998D01*
X52813000Y-45784998D01*
X52813000Y-45872400D01*
X52624500Y-45872400D01*
X52624500Y-45656500D01*
X52644500Y-45656500D01*
X52644500Y-44513500D01*
X52624500Y-44513500D01*
X52624500Y-44364100D01*
X52800560Y-44364100D01*
X52800560Y-44812000D01*
X52800560Y-44812000D01*
G37*
X52800560Y-44812000D02*
X52849843Y-45059765D01*
X52898500Y-45132585D01*
X52898500Y-45279276D01*
X52813000Y-45485691D01*
X52813000Y-45626250D01*
X52918500Y-45731750D01*
X52918500Y-45784998D01*
X52813000Y-45784998D01*
X52813000Y-45872400D01*
X52624500Y-45872400D01*
X52624500Y-45656500D01*
X52644500Y-45656500D01*
X52644500Y-44513500D01*
X52624500Y-44513500D01*
X52624500Y-44364100D01*
X52800560Y-44364100D01*
X52800560Y-44812000D01*
G36*
X55230310Y-45819444D02*
X55240844Y-45872400D01*
X54883000Y-45872400D01*
X54883000Y-45784998D01*
X54724252Y-45784998D01*
X54883000Y-45626250D01*
X54883000Y-45485691D01*
X54841284Y-45384979D01*
X55049167Y-45385160D01*
X55133777Y-45350200D01*
X55230310Y-45350200D01*
X55230310Y-45819444D01*
X55230310Y-45819444D01*
G37*
X55230310Y-45819444D02*
X55240844Y-45872400D01*
X54883000Y-45872400D01*
X54883000Y-45784998D01*
X54724252Y-45784998D01*
X54883000Y-45626250D01*
X54883000Y-45485691D01*
X54841284Y-45384979D01*
X55049167Y-45385160D01*
X55133777Y-45350200D01*
X55230310Y-45350200D01*
X55230310Y-45819444D01*
G36*
X64516000Y-43177000D02*
X64532000Y-43177000D01*
X64532000Y-43402250D01*
X64536000Y-43406250D01*
X64536000Y-43431000D01*
X64516000Y-43431000D01*
X64516000Y-43451000D01*
X64262000Y-43451000D01*
X64262000Y-43431000D01*
X64242000Y-43431000D01*
X64242000Y-43177000D01*
X64262000Y-43177000D01*
X64262000Y-43157000D01*
X64516000Y-43157000D01*
X64516000Y-43177000D01*
X64516000Y-43177000D01*
G37*
X64516000Y-43177000D02*
X64532000Y-43177000D01*
X64532000Y-43402250D01*
X64536000Y-43406250D01*
X64536000Y-43431000D01*
X64516000Y-43431000D01*
X64516000Y-43451000D01*
X64262000Y-43451000D01*
X64262000Y-43431000D01*
X64242000Y-43431000D01*
X64242000Y-43177000D01*
X64262000Y-43177000D01*
X64262000Y-43157000D01*
X64516000Y-43157000D01*
X64516000Y-43177000D01*
G36*
X50036500Y-36385500D02*
X50056500Y-36385500D01*
X50056500Y-36639500D01*
X50036500Y-36639500D01*
X50036500Y-37388750D01*
X50195250Y-37547500D01*
X50335809Y-37547500D01*
X50569198Y-37450827D01*
X50610453Y-37409573D01*
X50761735Y-37510657D01*
X51009500Y-37559940D01*
X51609500Y-37559940D01*
X51611989Y-37559445D01*
X51643735Y-37580657D01*
X51891500Y-37629940D01*
X53047900Y-37629940D01*
X53047900Y-37935060D01*
X51891500Y-37935060D01*
X51643735Y-37984343D01*
X51611989Y-38005555D01*
X51609500Y-38005060D01*
X51009500Y-38005060D01*
X50761735Y-38054343D01*
X50610453Y-38155427D01*
X50569198Y-38114173D01*
X50335809Y-38017500D01*
X50195250Y-38017500D01*
X50036500Y-38176250D01*
X50036500Y-38925500D01*
X50056500Y-38925500D01*
X50056500Y-39179500D01*
X50036500Y-39179500D01*
X50036500Y-39199500D01*
X49782500Y-39199500D01*
X49782500Y-39179500D01*
X49762500Y-39179500D01*
X49762500Y-38925500D01*
X49782500Y-38925500D01*
X49782500Y-38176250D01*
X49623750Y-38017500D01*
X49606266Y-38017500D01*
X49606266Y-37547500D01*
X49623750Y-37547500D01*
X49782500Y-37388750D01*
X49782500Y-36639500D01*
X49762500Y-36639500D01*
X49762500Y-36385500D01*
X49782500Y-36385500D01*
X49782500Y-36365500D01*
X50036500Y-36365500D01*
X50036500Y-36385500D01*
X50036500Y-36385500D01*
G37*
X50036500Y-36385500D02*
X50056500Y-36385500D01*
X50056500Y-36639500D01*
X50036500Y-36639500D01*
X50036500Y-37388750D01*
X50195250Y-37547500D01*
X50335809Y-37547500D01*
X50569198Y-37450827D01*
X50610453Y-37409573D01*
X50761735Y-37510657D01*
X51009500Y-37559940D01*
X51609500Y-37559940D01*
X51611989Y-37559445D01*
X51643735Y-37580657D01*
X51891500Y-37629940D01*
X53047900Y-37629940D01*
X53047900Y-37935060D01*
X51891500Y-37935060D01*
X51643735Y-37984343D01*
X51611989Y-38005555D01*
X51609500Y-38005060D01*
X51009500Y-38005060D01*
X50761735Y-38054343D01*
X50610453Y-38155427D01*
X50569198Y-38114173D01*
X50335809Y-38017500D01*
X50195250Y-38017500D01*
X50036500Y-38176250D01*
X50036500Y-38925500D01*
X50056500Y-38925500D01*
X50056500Y-39179500D01*
X50036500Y-39179500D01*
X50036500Y-39199500D01*
X49782500Y-39199500D01*
X49782500Y-39179500D01*
X49762500Y-39179500D01*
X49762500Y-38925500D01*
X49782500Y-38925500D01*
X49782500Y-38176250D01*
X49623750Y-38017500D01*
X49606266Y-38017500D01*
X49606266Y-37547500D01*
X49623750Y-37547500D01*
X49782500Y-37388750D01*
X49782500Y-36639500D01*
X49762500Y-36639500D01*
X49762500Y-36385500D01*
X49782500Y-36385500D01*
X49782500Y-36365500D01*
X50036500Y-36365500D01*
X50036500Y-36385500D01*
G36*
X39524724Y-37272776D02*
X39780175Y-37443463D01*
X40081500Y-37503400D01*
X40476000Y-37503400D01*
X40488066Y-37501000D01*
X40578767Y-37501000D01*
X40543594Y-37677829D01*
X40535555Y-37718245D01*
X40535555Y-37876881D01*
X40281564Y-38130429D01*
X40142365Y-38465655D01*
X39763855Y-38087145D01*
X39524885Y-37927470D01*
X39243000Y-37871400D01*
X35159000Y-37871400D01*
X35159000Y-37720500D01*
X35179000Y-37720500D01*
X35179000Y-37700500D01*
X35433000Y-37700500D01*
X35433000Y-37720500D01*
X36703000Y-37720500D01*
X36703000Y-37700500D01*
X36957000Y-37700500D01*
X36957000Y-37720500D01*
X38227000Y-37720500D01*
X38227000Y-37700500D01*
X38481000Y-37700500D01*
X38481000Y-37720500D01*
X39230250Y-37720500D01*
X39389000Y-37561750D01*
X39389000Y-37421191D01*
X39311836Y-37234900D01*
X39486848Y-37234900D01*
X39524724Y-37272776D01*
X39524724Y-37272776D01*
G37*
X39524724Y-37272776D02*
X39780175Y-37443463D01*
X40081500Y-37503400D01*
X40476000Y-37503400D01*
X40488066Y-37501000D01*
X40578767Y-37501000D01*
X40543594Y-37677829D01*
X40535555Y-37718245D01*
X40535555Y-37876881D01*
X40281564Y-38130429D01*
X40142365Y-38465655D01*
X39763855Y-38087145D01*
X39524885Y-37927470D01*
X39243000Y-37871400D01*
X35159000Y-37871400D01*
X35159000Y-37720500D01*
X35179000Y-37720500D01*
X35179000Y-37700500D01*
X35433000Y-37700500D01*
X35433000Y-37720500D01*
X36703000Y-37720500D01*
X36703000Y-37700500D01*
X36957000Y-37700500D01*
X36957000Y-37720500D01*
X38227000Y-37720500D01*
X38227000Y-37700500D01*
X38481000Y-37700500D01*
X38481000Y-37720500D01*
X39230250Y-37720500D01*
X39389000Y-37561750D01*
X39389000Y-37421191D01*
X39311836Y-37234900D01*
X39486848Y-37234900D01*
X39524724Y-37272776D01*
G36*
X65605000Y-37465000D02*
X65311000Y-37465000D01*
X65311000Y-37323940D01*
X65605000Y-37323940D01*
X65605000Y-37465000D01*
X65605000Y-37465000D01*
G37*
X65605000Y-37465000D02*
X65311000Y-37465000D01*
X65311000Y-37323940D01*
X65605000Y-37323940D01*
X65605000Y-37465000D01*
G36*
X33354838Y-31935167D02*
X33363020Y-31954969D01*
X33361191Y-31956191D01*
X33220843Y-32166235D01*
X33171560Y-32414000D01*
X33171560Y-32864000D01*
X33220843Y-33111765D01*
X33275800Y-33194013D01*
X33275800Y-34115987D01*
X33220843Y-34198235D01*
X33171560Y-34446000D01*
X33171560Y-34896000D01*
X33220843Y-35143765D01*
X33275800Y-35226013D01*
X33275800Y-35302400D01*
X33317662Y-35512857D01*
X33241501Y-35528007D01*
X32881176Y-35167682D01*
X32897157Y-35143765D01*
X32946440Y-34896000D01*
X32946440Y-34446000D01*
X32897157Y-34198235D01*
X32756809Y-33988191D01*
X32546765Y-33847843D01*
X32299000Y-33798560D01*
X32016700Y-33798560D01*
X32016700Y-33511440D01*
X32299000Y-33511440D01*
X32546765Y-33462157D01*
X32756809Y-33321809D01*
X32897157Y-33111765D01*
X32946440Y-32864000D01*
X32946440Y-32414000D01*
X32897157Y-32166235D01*
X32756809Y-31956191D01*
X32546765Y-31815843D01*
X32299000Y-31766560D01*
X31709000Y-31766560D01*
X31536862Y-31800800D01*
X31390600Y-31800800D01*
X31069835Y-31864604D01*
X30797903Y-32046303D01*
X30585803Y-32258403D01*
X30404104Y-32530334D01*
X30373307Y-32685162D01*
X30340300Y-32851100D01*
X30340300Y-35010542D01*
X30219621Y-34874448D01*
X29845738Y-34690732D01*
X29674800Y-34817266D01*
X29674800Y-35783000D01*
X29694800Y-35783000D01*
X29694800Y-36037000D01*
X29674800Y-36037000D01*
X29674800Y-36057000D01*
X29420800Y-36057000D01*
X29420800Y-36037000D01*
X29400800Y-36037000D01*
X29400800Y-35783000D01*
X29420800Y-35783000D01*
X29420800Y-34817266D01*
X29249862Y-34690732D01*
X29222700Y-34704079D01*
X29222700Y-32975298D01*
X30435298Y-31762700D01*
X33354988Y-31762700D01*
X33354838Y-31935167D01*
X33354838Y-31935167D01*
G37*
X33354838Y-31935167D02*
X33363020Y-31954969D01*
X33361191Y-31956191D01*
X33220843Y-32166235D01*
X33171560Y-32414000D01*
X33171560Y-32864000D01*
X33220843Y-33111765D01*
X33275800Y-33194013D01*
X33275800Y-34115987D01*
X33220843Y-34198235D01*
X33171560Y-34446000D01*
X33171560Y-34896000D01*
X33220843Y-35143765D01*
X33275800Y-35226013D01*
X33275800Y-35302400D01*
X33317662Y-35512857D01*
X33241501Y-35528007D01*
X32881176Y-35167682D01*
X32897157Y-35143765D01*
X32946440Y-34896000D01*
X32946440Y-34446000D01*
X32897157Y-34198235D01*
X32756809Y-33988191D01*
X32546765Y-33847843D01*
X32299000Y-33798560D01*
X32016700Y-33798560D01*
X32016700Y-33511440D01*
X32299000Y-33511440D01*
X32546765Y-33462157D01*
X32756809Y-33321809D01*
X32897157Y-33111765D01*
X32946440Y-32864000D01*
X32946440Y-32414000D01*
X32897157Y-32166235D01*
X32756809Y-31956191D01*
X32546765Y-31815843D01*
X32299000Y-31766560D01*
X31709000Y-31766560D01*
X31536862Y-31800800D01*
X31390600Y-31800800D01*
X31069835Y-31864604D01*
X30797903Y-32046303D01*
X30585803Y-32258403D01*
X30404104Y-32530334D01*
X30373307Y-32685162D01*
X30340300Y-32851100D01*
X30340300Y-35010542D01*
X30219621Y-34874448D01*
X29845738Y-34690732D01*
X29674800Y-34817266D01*
X29674800Y-35783000D01*
X29694800Y-35783000D01*
X29694800Y-36037000D01*
X29674800Y-36037000D01*
X29674800Y-36057000D01*
X29420800Y-36057000D01*
X29420800Y-36037000D01*
X29400800Y-36037000D01*
X29400800Y-35783000D01*
X29420800Y-35783000D01*
X29420800Y-34817266D01*
X29249862Y-34690732D01*
X29222700Y-34704079D01*
X29222700Y-32975298D01*
X30435298Y-31762700D01*
X33354988Y-31762700D01*
X33354838Y-31935167D01*
G36*
X37040330Y-29184415D02*
X37495250Y-29488383D01*
X37546470Y-29745885D01*
X37706145Y-29984855D01*
X39027091Y-31305801D01*
X39070470Y-31523885D01*
X39230145Y-31762855D01*
X40093745Y-32626455D01*
X40332715Y-32786130D01*
X40614600Y-32842200D01*
X40641000Y-32842200D01*
X40641000Y-32931000D01*
X40180233Y-32931000D01*
X39879827Y-32990755D01*
X39625154Y-33160921D01*
X39454988Y-33415594D01*
X39395233Y-33716000D01*
X39444962Y-33966000D01*
X39395233Y-34216000D01*
X39450979Y-34496250D01*
X39449031Y-34500800D01*
X39128700Y-34500800D01*
X39128700Y-33560312D01*
X39072630Y-33278427D01*
X38912955Y-33039457D01*
X36359126Y-30485628D01*
X36494838Y-30158799D01*
X36495162Y-29786833D01*
X36398200Y-29552166D01*
X36398200Y-29332397D01*
X36619670Y-29184415D01*
X36830000Y-28869634D01*
X37040330Y-29184415D01*
X37040330Y-29184415D01*
G37*
X37040330Y-29184415D02*
X37495250Y-29488383D01*
X37546470Y-29745885D01*
X37706145Y-29984855D01*
X39027091Y-31305801D01*
X39070470Y-31523885D01*
X39230145Y-31762855D01*
X40093745Y-32626455D01*
X40332715Y-32786130D01*
X40614600Y-32842200D01*
X40641000Y-32842200D01*
X40641000Y-32931000D01*
X40180233Y-32931000D01*
X39879827Y-32990755D01*
X39625154Y-33160921D01*
X39454988Y-33415594D01*
X39395233Y-33716000D01*
X39444962Y-33966000D01*
X39395233Y-34216000D01*
X39450979Y-34496250D01*
X39449031Y-34500800D01*
X39128700Y-34500800D01*
X39128700Y-33560312D01*
X39072630Y-33278427D01*
X38912955Y-33039457D01*
X36359126Y-30485628D01*
X36494838Y-30158799D01*
X36495162Y-29786833D01*
X36398200Y-29552166D01*
X36398200Y-29332397D01*
X36619670Y-29184415D01*
X36830000Y-28869634D01*
X37040330Y-29184415D01*
G36*
X54820330Y-29184415D02*
X55287424Y-29496518D01*
X55359145Y-29603855D01*
X55740145Y-29984855D01*
X55979115Y-30144530D01*
X56261000Y-30200600D01*
X56705190Y-30200600D01*
X56823900Y-30319310D01*
X56823900Y-32147000D01*
X56800750Y-32147000D01*
X56642000Y-32305750D01*
X56642000Y-32955000D01*
X56662000Y-32955000D01*
X56662000Y-33209000D01*
X56642000Y-33209000D01*
X56642000Y-33229000D01*
X56388000Y-33229000D01*
X56388000Y-33209000D01*
X56368000Y-33209000D01*
X56368000Y-32955000D01*
X56388000Y-32955000D01*
X56388000Y-32305750D01*
X56229250Y-32147000D01*
X55988690Y-32147000D01*
X55755301Y-32243673D01*
X55744488Y-32254486D01*
X55638765Y-32183843D01*
X55391000Y-32134560D01*
X54591000Y-32134560D01*
X54343235Y-32183843D01*
X54253504Y-32243800D01*
X54204496Y-32243800D01*
X54114765Y-32183843D01*
X53867000Y-32134560D01*
X53067000Y-32134560D01*
X52819235Y-32183843D01*
X52713512Y-32254486D01*
X52702699Y-32243673D01*
X52469310Y-32147000D01*
X52228750Y-32147000D01*
X52070000Y-32305750D01*
X52070000Y-32955000D01*
X52090000Y-32955000D01*
X52090000Y-33209000D01*
X52070000Y-33209000D01*
X52070000Y-33229000D01*
X51816000Y-33229000D01*
X51816000Y-33209000D01*
X50546000Y-33209000D01*
X50546000Y-33229000D01*
X50292000Y-33229000D01*
X50292000Y-33209000D01*
X50272000Y-33209000D01*
X50272000Y-32955000D01*
X50292000Y-32955000D01*
X50292000Y-32305750D01*
X50546000Y-32305750D01*
X50546000Y-32955000D01*
X51816000Y-32955000D01*
X51816000Y-32305750D01*
X51657250Y-32147000D01*
X51416690Y-32147000D01*
X51183301Y-32243673D01*
X51181000Y-32245974D01*
X51178699Y-32243673D01*
X50945310Y-32147000D01*
X50704750Y-32147000D01*
X50546000Y-32305750D01*
X50292000Y-32305750D01*
X50133250Y-32147000D01*
X49892690Y-32147000D01*
X49659301Y-32243673D01*
X49606266Y-32296708D01*
X49606266Y-31064444D01*
X50343110Y-30327600D01*
X52578000Y-30327600D01*
X52859885Y-30271530D01*
X53098855Y-30111855D01*
X53648786Y-29561924D01*
X53913489Y-29509271D01*
X54399670Y-29184415D01*
X54610000Y-28869634D01*
X54820330Y-29184415D01*
X54820330Y-29184415D01*
G37*
X54820330Y-29184415D02*
X55287424Y-29496518D01*
X55359145Y-29603855D01*
X55740145Y-29984855D01*
X55979115Y-30144530D01*
X56261000Y-30200600D01*
X56705190Y-30200600D01*
X56823900Y-30319310D01*
X56823900Y-32147000D01*
X56800750Y-32147000D01*
X56642000Y-32305750D01*
X56642000Y-32955000D01*
X56662000Y-32955000D01*
X56662000Y-33209000D01*
X56642000Y-33209000D01*
X56642000Y-33229000D01*
X56388000Y-33229000D01*
X56388000Y-33209000D01*
X56368000Y-33209000D01*
X56368000Y-32955000D01*
X56388000Y-32955000D01*
X56388000Y-32305750D01*
X56229250Y-32147000D01*
X55988690Y-32147000D01*
X55755301Y-32243673D01*
X55744488Y-32254486D01*
X55638765Y-32183843D01*
X55391000Y-32134560D01*
X54591000Y-32134560D01*
X54343235Y-32183843D01*
X54253504Y-32243800D01*
X54204496Y-32243800D01*
X54114765Y-32183843D01*
X53867000Y-32134560D01*
X53067000Y-32134560D01*
X52819235Y-32183843D01*
X52713512Y-32254486D01*
X52702699Y-32243673D01*
X52469310Y-32147000D01*
X52228750Y-32147000D01*
X52070000Y-32305750D01*
X52070000Y-32955000D01*
X52090000Y-32955000D01*
X52090000Y-33209000D01*
X52070000Y-33209000D01*
X52070000Y-33229000D01*
X51816000Y-33229000D01*
X51816000Y-33209000D01*
X50546000Y-33209000D01*
X50546000Y-33229000D01*
X50292000Y-33229000D01*
X50292000Y-33209000D01*
X50272000Y-33209000D01*
X50272000Y-32955000D01*
X50292000Y-32955000D01*
X50292000Y-32305750D01*
X50546000Y-32305750D01*
X50546000Y-32955000D01*
X51816000Y-32955000D01*
X51816000Y-32305750D01*
X51657250Y-32147000D01*
X51416690Y-32147000D01*
X51183301Y-32243673D01*
X51181000Y-32245974D01*
X51178699Y-32243673D01*
X50945310Y-32147000D01*
X50704750Y-32147000D01*
X50546000Y-32305750D01*
X50292000Y-32305750D01*
X50133250Y-32147000D01*
X49892690Y-32147000D01*
X49659301Y-32243673D01*
X49606266Y-32296708D01*
X49606266Y-31064444D01*
X50343110Y-30327600D01*
X52578000Y-30327600D01*
X52859885Y-30271530D01*
X53098855Y-30111855D01*
X53648786Y-29561924D01*
X53913489Y-29509271D01*
X54399670Y-29184415D01*
X54610000Y-28869634D01*
X54820330Y-29184415D01*
M02*
