M48
INCH,TZ
T1C0.012
T2C0.020
T3C0.022
T4C0.040
%
G90
G05
T1
X10400Y-17150
X10400Y-17650
X10405Y-14280
X10405Y-14780
X10405Y-15280
X10405Y-15780
X11000Y-11900
X11250Y-17000
X11400Y-16650
X11800Y-13100
X11900Y-16900
X12275Y-14625
X12400Y-15600
X12400Y-16100
X12400Y-16600
X12400Y-17100
X12900Y-14600
X12900Y-15850
X12900Y-16350
X12900Y-16850
X12900Y-17350
X13400Y-11700
X13400Y-16100
X13400Y-16600
X13400Y-17100
X13450Y-15450
X13500Y-12500
X13532Y-14000
X13600Y-15750
X13725Y-17500
X14000Y-11800
X14000Y-14000
X14300Y-15418
X14700Y-12000
X15425Y-12925
X15600Y-14900
X15600Y-14900
X16100Y-16500
X16100Y-17000
X16110Y-11690
X16130Y-12390
X16171Y-15221
X16600Y-16000
X16600Y-16500
X16600Y-17000
X17000Y-12418
X17000Y-11690
X17100Y-15500
X17600Y-15500
X18000Y-11652
X18000Y-12418
X18100Y-15000
X18100Y-15500
X18400Y-16600
X18600Y-18000
X18700Y-22000
X19700Y-12500
X19700Y-14900
X19950Y-17750
X20200Y-12000
X20200Y-12500
X20700Y-12000
X20700Y-12500
X21200Y-12000
X21200Y-12500
X21600Y-17500
X21659Y-14540
X21700Y-12000
X21700Y-12500
X21700Y-18050
X22150Y-15719
X22150Y-16113
X22150Y-16507
X22150Y-16901
X22200Y-12000
X22200Y-12500
X22420Y-14768
X22544Y-15719
X22544Y-16113
X22544Y-16507
X22544Y-16901
X22937Y-15719
X22937Y-16113
X22937Y-16507
X22937Y-16901
X23331Y-15719
X23331Y-16113
X23331Y-16507
X23331Y-16901
X24000Y-12500
X24000Y-13000
X24000Y-13500
X24250Y-15200
X24500Y-12750
X24500Y-13250
X24500Y-13750
X25000Y-12500
X25000Y-13000
X25000Y-13500
X25000Y-18800
X25000Y-19300
X25000Y-19800
X25000Y-20300
X25000Y-20800
X25000Y-21300
X25500Y-12750
X25500Y-13250
X25500Y-13750
X26000Y-12500
X26000Y-13000
X26000Y-13500
X26500Y-12750
X26500Y-13250
X26500Y-13750
X26500Y-14250
X26500Y-14750
X26500Y-15250
X26500Y-15750
X27000Y-12500
X27000Y-13000
X27000Y-13500
X27000Y-14000
X27000Y-14500
X27000Y-15000
X27000Y-15500
X27000Y-16000
X27000Y-26600
X27500Y-13250
X27500Y-13750
X27500Y-14250
X27500Y-14750
X27500Y-15250
X27500Y-15750
X27600Y-26600
X27600Y-27100
X28000Y-13500
X28000Y-14000
X28000Y-14500
X28000Y-15000
X28000Y-15500
X28000Y-16000
X28100Y-26600
X28100Y-27100
X28600Y-26600
X28600Y-27100
T4
X11000Y-11000
X11000Y-28000
X12000Y-11000
X12000Y-28000
X13000Y-11000
X13000Y-28000
X14000Y-11000
X14000Y-28000
X15000Y-11000
X15000Y-28000
X16000Y-11000
X16000Y-28000
X17000Y-11000
X17000Y-28000
X18000Y-11000
X18000Y-28000
X19000Y-11000
X19000Y-28000
X20000Y-11000
X20000Y-28000
X21000Y-11000
X21000Y-28000
X22000Y-11000
X22000Y-28000
X23000Y-11000
X23000Y-28000
X24000Y-11000
X24000Y-28000
X25000Y-11000
X25000Y-28000
X26000Y-11000
X26000Y-28000
X27000Y-11000
X27000Y-28000
X28000Y-11000
X28000Y-28000
T2
X10442Y-13744G85X10698Y-13744
G05
X10442Y-16500G85X10698Y-16500
G05
T3
X11633Y-14079G85X11633Y-14197
G05
X11633Y-16047G85X11633Y-16165
G05
T0
M30
