G04 #@! TF.FileFunction,Legend,Bot*
%FSLAX46Y46*%
G04 Gerber Fmt 4.6, Leading zero omitted, Abs format (unit mm)*
G04 Created by KiCad (PCBNEW (2016-06-08 BZR 6904)-stable) date Sat Jun 25 00:42:27 2016*
%MOMM*%
%LPD*%
G01*
G04 APERTURE LIST*
%ADD10C,0.152400*%
%ADD11C,0.300000*%
%ADD12C,0.010000*%
%ADD13C,0.150000*%
G04 APERTURE END LIST*
D10*
D11*
X48298571Y-39137142D02*
X46798571Y-39137142D01*
X48298571Y-39994285D01*
X46798571Y-39994285D01*
X48298571Y-41565714D02*
X47584285Y-41065714D01*
X48298571Y-40708571D02*
X46798571Y-40708571D01*
X46798571Y-41280000D01*
X46870000Y-41422857D01*
X46941428Y-41494285D01*
X47084285Y-41565714D01*
X47298571Y-41565714D01*
X47441428Y-41494285D01*
X47512857Y-41422857D01*
X47584285Y-41280000D01*
X47584285Y-40708571D01*
X47512857Y-42708571D02*
X47512857Y-42208571D01*
X48298571Y-42208571D02*
X46798571Y-42208571D01*
X46798571Y-42922857D01*
X46798571Y-44208571D02*
X46798571Y-43494285D01*
X47512857Y-43422857D01*
X47441428Y-43494285D01*
X47370000Y-43637142D01*
X47370000Y-43994285D01*
X47441428Y-44137142D01*
X47512857Y-44208571D01*
X47655714Y-44280000D01*
X48012857Y-44280000D01*
X48155714Y-44208571D01*
X48227142Y-44137142D01*
X48298571Y-43994285D01*
X48298571Y-43637142D01*
X48227142Y-43494285D01*
X48155714Y-43422857D01*
X46941428Y-44851428D02*
X46870000Y-44922857D01*
X46798571Y-45065714D01*
X46798571Y-45422857D01*
X46870000Y-45565714D01*
X46941428Y-45637142D01*
X47084285Y-45708571D01*
X47227142Y-45708571D01*
X47441428Y-45637142D01*
X48298571Y-44780000D01*
X48298571Y-45708571D01*
X47441428Y-46565714D02*
X47370000Y-46422857D01*
X47298571Y-46351428D01*
X47155714Y-46280000D01*
X47084285Y-46280000D01*
X46941428Y-46351428D01*
X46870000Y-46422857D01*
X46798571Y-46565714D01*
X46798571Y-46851428D01*
X46870000Y-46994285D01*
X46941428Y-47065714D01*
X47084285Y-47137142D01*
X47155714Y-47137142D01*
X47298571Y-47065714D01*
X47370000Y-46994285D01*
X47441428Y-46851428D01*
X47441428Y-46565714D01*
X47512857Y-46422857D01*
X47584285Y-46351428D01*
X47727142Y-46280000D01*
X48012857Y-46280000D01*
X48155714Y-46351428D01*
X48227142Y-46422857D01*
X48298571Y-46565714D01*
X48298571Y-46851428D01*
X48227142Y-46994285D01*
X48155714Y-47065714D01*
X48012857Y-47137142D01*
X47727142Y-47137142D01*
X47584285Y-47065714D01*
X47512857Y-46994285D01*
X47441428Y-46851428D01*
X46798571Y-47637142D02*
X46798571Y-48565714D01*
X47370000Y-48065714D01*
X47370000Y-48280000D01*
X47441428Y-48422857D01*
X47512857Y-48494285D01*
X47655714Y-48565714D01*
X48012857Y-48565714D01*
X48155714Y-48494285D01*
X48227142Y-48422857D01*
X48298571Y-48280000D01*
X48298571Y-47851428D01*
X48227142Y-47708571D01*
X48155714Y-47637142D01*
X46941428Y-49137142D02*
X46870000Y-49208571D01*
X46798571Y-49351428D01*
X46798571Y-49708571D01*
X46870000Y-49851428D01*
X46941428Y-49922857D01*
X47084285Y-49994285D01*
X47227142Y-49994285D01*
X47441428Y-49922857D01*
X48298571Y-49065714D01*
X48298571Y-49994285D01*
X48298571Y-51780000D02*
X46798571Y-51780000D01*
X48298571Y-52637142D01*
X46798571Y-52637142D01*
X47512857Y-53851428D02*
X47512857Y-53351428D01*
X48298571Y-53351428D02*
X46798571Y-53351428D01*
X46798571Y-54065714D01*
X48155714Y-55494285D02*
X48227142Y-55422857D01*
X48298571Y-55208571D01*
X48298571Y-55065714D01*
X48227142Y-54851428D01*
X48084285Y-54708571D01*
X47941428Y-54637142D01*
X47655714Y-54565714D01*
X47441428Y-54565714D01*
X47155714Y-54637142D01*
X47012857Y-54708571D01*
X46870000Y-54851428D01*
X46798571Y-55065714D01*
X46798571Y-55208571D01*
X46870000Y-55422857D01*
X46941428Y-55494285D01*
X47727142Y-56137142D02*
X47727142Y-57280000D01*
X48298571Y-56708571D02*
X47155714Y-56708571D01*
X47512857Y-58494285D02*
X47584285Y-58708571D01*
X47655714Y-58780000D01*
X47798571Y-58851428D01*
X48012857Y-58851428D01*
X48155714Y-58780000D01*
X48227142Y-58708571D01*
X48298571Y-58565714D01*
X48298571Y-57994285D01*
X46798571Y-57994285D01*
X46798571Y-58494285D01*
X46870000Y-58637142D01*
X46941428Y-58708571D01*
X47084285Y-58780000D01*
X47227142Y-58780000D01*
X47370000Y-58708571D01*
X47441428Y-58637142D01*
X47512857Y-58494285D01*
X47512857Y-57994285D01*
X46798571Y-59280000D02*
X46798571Y-60137142D01*
X48298571Y-59708571D02*
X46798571Y-59708571D01*
X50848571Y-40958571D02*
X50134285Y-40458571D01*
X50848571Y-40101428D02*
X49348571Y-40101428D01*
X49348571Y-40672857D01*
X49420000Y-40815714D01*
X49491428Y-40887142D01*
X49634285Y-40958571D01*
X49848571Y-40958571D01*
X49991428Y-40887142D01*
X50062857Y-40815714D01*
X50134285Y-40672857D01*
X50134285Y-40101428D01*
X50062857Y-41601428D02*
X50062857Y-42101428D01*
X50848571Y-42315714D02*
X50848571Y-41601428D01*
X49348571Y-41601428D01*
X49348571Y-42315714D01*
X49348571Y-42744285D02*
X50848571Y-43244285D01*
X49348571Y-43744285D01*
X50420000Y-45315714D02*
X50420000Y-46030000D01*
X50848571Y-45172857D02*
X49348571Y-45672857D01*
X50848571Y-46172857D01*
X50848571Y-47458571D02*
X50848571Y-46601428D01*
X50848571Y-47030000D02*
X49348571Y-47030000D01*
X49562857Y-46887142D01*
X49705714Y-46744285D01*
X49777142Y-46601428D01*
X49491428Y-49172857D02*
X49420000Y-49244285D01*
X49348571Y-49387142D01*
X49348571Y-49744285D01*
X49420000Y-49887142D01*
X49491428Y-49958571D01*
X49634285Y-50030000D01*
X49777142Y-50030000D01*
X49991428Y-49958571D01*
X50848571Y-49101428D01*
X50848571Y-50030000D01*
X49348571Y-50958571D02*
X49348571Y-51101428D01*
X49420000Y-51244285D01*
X49491428Y-51315714D01*
X49634285Y-51387142D01*
X49920000Y-51458571D01*
X50277142Y-51458571D01*
X50562857Y-51387142D01*
X50705714Y-51315714D01*
X50777142Y-51244285D01*
X50848571Y-51101428D01*
X50848571Y-50958571D01*
X50777142Y-50815714D01*
X50705714Y-50744285D01*
X50562857Y-50672857D01*
X50277142Y-50601428D01*
X49920000Y-50601428D01*
X49634285Y-50672857D01*
X49491428Y-50744285D01*
X49420000Y-50815714D01*
X49348571Y-50958571D01*
X50848571Y-52887142D02*
X50848571Y-52030000D01*
X50848571Y-52458571D02*
X49348571Y-52458571D01*
X49562857Y-52315714D01*
X49705714Y-52172857D01*
X49777142Y-52030000D01*
X49348571Y-54172857D02*
X49348571Y-53887142D01*
X49420000Y-53744285D01*
X49491428Y-53672857D01*
X49705714Y-53530000D01*
X49991428Y-53458571D01*
X50562857Y-53458571D01*
X50705714Y-53530000D01*
X50777142Y-53601428D01*
X50848571Y-53744285D01*
X50848571Y-54030000D01*
X50777142Y-54172857D01*
X50705714Y-54244285D01*
X50562857Y-54315714D01*
X50205714Y-54315714D01*
X50062857Y-54244285D01*
X49991428Y-54172857D01*
X49920000Y-54030000D01*
X49920000Y-53744285D01*
X49991428Y-53601428D01*
X50062857Y-53530000D01*
X50205714Y-53458571D01*
X50277142Y-54958571D02*
X50277142Y-56101428D01*
X49348571Y-57101428D02*
X49348571Y-57244285D01*
X49420000Y-57387142D01*
X49491428Y-57458571D01*
X49634285Y-57530000D01*
X49920000Y-57601428D01*
X50277142Y-57601428D01*
X50562857Y-57530000D01*
X50705714Y-57458571D01*
X50777142Y-57387142D01*
X50848571Y-57244285D01*
X50848571Y-57101428D01*
X50777142Y-56958571D01*
X50705714Y-56887142D01*
X50562857Y-56815714D01*
X50277142Y-56744285D01*
X49920000Y-56744285D01*
X49634285Y-56815714D01*
X49491428Y-56887142D01*
X49420000Y-56958571D01*
X49348571Y-57101428D01*
X49348571Y-58887142D02*
X49348571Y-58601428D01*
X49420000Y-58458571D01*
X49491428Y-58387142D01*
X49705714Y-58244285D01*
X49991428Y-58172857D01*
X50562857Y-58172857D01*
X50705714Y-58244285D01*
X50777142Y-58315714D01*
X50848571Y-58458571D01*
X50848571Y-58744285D01*
X50777142Y-58887142D01*
X50705714Y-58958571D01*
X50562857Y-59030000D01*
X50205714Y-59030000D01*
X50062857Y-58958571D01*
X49991428Y-58887142D01*
X49920000Y-58744285D01*
X49920000Y-58458571D01*
X49991428Y-58315714D01*
X50062857Y-58244285D01*
X50205714Y-58172857D01*
X70370000Y-64643142D02*
X70298571Y-64500285D01*
X70298571Y-64286000D01*
X70370000Y-64071714D01*
X70512857Y-63928857D01*
X70655714Y-63857428D01*
X70941428Y-63786000D01*
X71155714Y-63786000D01*
X71441428Y-63857428D01*
X71584285Y-63928857D01*
X71727142Y-64071714D01*
X71798571Y-64286000D01*
X71798571Y-64428857D01*
X71727142Y-64643142D01*
X71655714Y-64714571D01*
X71155714Y-64714571D01*
X71155714Y-64428857D01*
X71798571Y-65357428D02*
X70298571Y-65357428D01*
X71798571Y-66214571D01*
X70298571Y-66214571D01*
X71798571Y-66928857D02*
X70298571Y-66928857D01*
X70298571Y-67286000D01*
X70370000Y-67500285D01*
X70512857Y-67643142D01*
X70655714Y-67714571D01*
X70941428Y-67786000D01*
X71155714Y-67786000D01*
X71441428Y-67714571D01*
X71584285Y-67643142D01*
X71727142Y-67500285D01*
X71798571Y-67286000D01*
X71798571Y-66928857D01*
X68687142Y-63143142D02*
X68687142Y-64286000D01*
X69258571Y-63714571D02*
X68115714Y-63714571D01*
X67758571Y-64857428D02*
X67758571Y-65786000D01*
X68330000Y-65286000D01*
X68330000Y-65500285D01*
X68401428Y-65643142D01*
X68472857Y-65714571D01*
X68615714Y-65786000D01*
X68972857Y-65786000D01*
X69115714Y-65714571D01*
X69187142Y-65643142D01*
X69258571Y-65500285D01*
X69258571Y-65071714D01*
X69187142Y-64928857D01*
X69115714Y-64857428D01*
X67758571Y-66214571D02*
X69258571Y-66714571D01*
X67758571Y-67214571D01*
X67758571Y-67571714D02*
X67758571Y-68500285D01*
X68330000Y-68000285D01*
X68330000Y-68214571D01*
X68401428Y-68357428D01*
X68472857Y-68428857D01*
X68615714Y-68500285D01*
X68972857Y-68500285D01*
X69115714Y-68428857D01*
X69187142Y-68357428D01*
X69258571Y-68214571D01*
X69258571Y-67786000D01*
X69187142Y-67643142D01*
X69115714Y-67571714D01*
X66718571Y-62893142D02*
X65218571Y-62893142D01*
X65218571Y-63464571D01*
X65290000Y-63607428D01*
X65361428Y-63678857D01*
X65504285Y-63750285D01*
X65718571Y-63750285D01*
X65861428Y-63678857D01*
X65932857Y-63607428D01*
X66004285Y-63464571D01*
X66004285Y-62893142D01*
X65218571Y-64678857D02*
X65218571Y-64821714D01*
X65290000Y-64964571D01*
X65361428Y-65036000D01*
X65504285Y-65107428D01*
X65790000Y-65178857D01*
X66147142Y-65178857D01*
X66432857Y-65107428D01*
X66575714Y-65036000D01*
X66647142Y-64964571D01*
X66718571Y-64821714D01*
X66718571Y-64678857D01*
X66647142Y-64536000D01*
X66575714Y-64464571D01*
X66432857Y-64393142D01*
X66147142Y-64321714D01*
X65790000Y-64321714D01*
X65504285Y-64393142D01*
X65361428Y-64464571D01*
X65290000Y-64536000D01*
X65218571Y-64678857D01*
X66575714Y-65821714D02*
X66647142Y-65893142D01*
X66718571Y-65821714D01*
X66647142Y-65750285D01*
X66575714Y-65821714D01*
X66718571Y-65821714D01*
X65361428Y-66464571D02*
X65290000Y-66536000D01*
X65218571Y-66678857D01*
X65218571Y-67036000D01*
X65290000Y-67178857D01*
X65361428Y-67250285D01*
X65504285Y-67321714D01*
X65647142Y-67321714D01*
X65861428Y-67250285D01*
X66718571Y-66393142D01*
X66718571Y-67321714D01*
X65718571Y-68607428D02*
X66718571Y-68607428D01*
X65147142Y-68250285D02*
X66218571Y-67893142D01*
X66218571Y-68821714D01*
X64178571Y-62893142D02*
X62678571Y-62893142D01*
X62678571Y-63464571D01*
X62750000Y-63607428D01*
X62821428Y-63678857D01*
X62964285Y-63750285D01*
X63178571Y-63750285D01*
X63321428Y-63678857D01*
X63392857Y-63607428D01*
X63464285Y-63464571D01*
X63464285Y-62893142D01*
X62678571Y-64678857D02*
X62678571Y-64821714D01*
X62750000Y-64964571D01*
X62821428Y-65036000D01*
X62964285Y-65107428D01*
X63250000Y-65178857D01*
X63607142Y-65178857D01*
X63892857Y-65107428D01*
X64035714Y-65036000D01*
X64107142Y-64964571D01*
X64178571Y-64821714D01*
X64178571Y-64678857D01*
X64107142Y-64536000D01*
X64035714Y-64464571D01*
X63892857Y-64393142D01*
X63607142Y-64321714D01*
X63250000Y-64321714D01*
X62964285Y-64393142D01*
X62821428Y-64464571D01*
X62750000Y-64536000D01*
X62678571Y-64678857D01*
X64035714Y-65821714D02*
X64107142Y-65893142D01*
X64178571Y-65821714D01*
X64107142Y-65750285D01*
X64035714Y-65821714D01*
X64178571Y-65821714D01*
X62821428Y-66464571D02*
X62750000Y-66536000D01*
X62678571Y-66678857D01*
X62678571Y-67036000D01*
X62750000Y-67178857D01*
X62821428Y-67250285D01*
X62964285Y-67321714D01*
X63107142Y-67321714D01*
X63321428Y-67250285D01*
X64178571Y-66393142D01*
X64178571Y-67321714D01*
X62678571Y-67821714D02*
X62678571Y-68750285D01*
X63250000Y-68250285D01*
X63250000Y-68464571D01*
X63321428Y-68607428D01*
X63392857Y-68678857D01*
X63535714Y-68750285D01*
X63892857Y-68750285D01*
X64035714Y-68678857D01*
X64107142Y-68607428D01*
X64178571Y-68464571D01*
X64178571Y-68036000D01*
X64107142Y-67893142D01*
X64035714Y-67821714D01*
X61638571Y-62893142D02*
X60138571Y-62893142D01*
X60138571Y-63464571D01*
X60210000Y-63607428D01*
X60281428Y-63678857D01*
X60424285Y-63750285D01*
X60638571Y-63750285D01*
X60781428Y-63678857D01*
X60852857Y-63607428D01*
X60924285Y-63464571D01*
X60924285Y-62893142D01*
X60138571Y-64678857D02*
X60138571Y-64821714D01*
X60210000Y-64964571D01*
X60281428Y-65036000D01*
X60424285Y-65107428D01*
X60710000Y-65178857D01*
X61067142Y-65178857D01*
X61352857Y-65107428D01*
X61495714Y-65036000D01*
X61567142Y-64964571D01*
X61638571Y-64821714D01*
X61638571Y-64678857D01*
X61567142Y-64536000D01*
X61495714Y-64464571D01*
X61352857Y-64393142D01*
X61067142Y-64321714D01*
X60710000Y-64321714D01*
X60424285Y-64393142D01*
X60281428Y-64464571D01*
X60210000Y-64536000D01*
X60138571Y-64678857D01*
X61495714Y-65821714D02*
X61567142Y-65893142D01*
X61638571Y-65821714D01*
X61567142Y-65750285D01*
X61495714Y-65821714D01*
X61638571Y-65821714D01*
X60281428Y-66464571D02*
X60210000Y-66536000D01*
X60138571Y-66678857D01*
X60138571Y-67036000D01*
X60210000Y-67178857D01*
X60281428Y-67250285D01*
X60424285Y-67321714D01*
X60567142Y-67321714D01*
X60781428Y-67250285D01*
X61638571Y-66393142D01*
X61638571Y-67321714D01*
X60281428Y-67893142D02*
X60210000Y-67964571D01*
X60138571Y-68107428D01*
X60138571Y-68464571D01*
X60210000Y-68607428D01*
X60281428Y-68678857D01*
X60424285Y-68750285D01*
X60567142Y-68750285D01*
X60781428Y-68678857D01*
X61638571Y-67821714D01*
X61638571Y-68750285D01*
X59027142Y-62607428D02*
X59098571Y-62821714D01*
X59098571Y-63178857D01*
X59027142Y-63321714D01*
X58955714Y-63393142D01*
X58812857Y-63464571D01*
X58670000Y-63464571D01*
X58527142Y-63393142D01*
X58455714Y-63321714D01*
X58384285Y-63178857D01*
X58312857Y-62893142D01*
X58241428Y-62750285D01*
X58170000Y-62678857D01*
X58027142Y-62607428D01*
X57884285Y-62607428D01*
X57741428Y-62678857D01*
X57670000Y-62750285D01*
X57598571Y-62893142D01*
X57598571Y-63250285D01*
X57670000Y-63464571D01*
X57598571Y-63964571D02*
X59098571Y-64321714D01*
X58027142Y-64607428D01*
X59098571Y-64893142D01*
X57598571Y-65250285D01*
X59098571Y-65821714D02*
X57598571Y-65821714D01*
X57598571Y-66178857D01*
X57670000Y-66393142D01*
X57812857Y-66536000D01*
X57955714Y-66607428D01*
X58241428Y-66678857D01*
X58455714Y-66678857D01*
X58741428Y-66607428D01*
X58884285Y-66536000D01*
X59027142Y-66393142D01*
X59098571Y-66178857D01*
X59098571Y-65821714D01*
X59098571Y-67321714D02*
X57598571Y-67321714D01*
X57598571Y-68321714D02*
X57598571Y-68607428D01*
X57670000Y-68750285D01*
X57812857Y-68893142D01*
X58098571Y-68964571D01*
X58598571Y-68964571D01*
X58884285Y-68893142D01*
X59027142Y-68750285D01*
X59098571Y-68607428D01*
X59098571Y-68321714D01*
X59027142Y-68178857D01*
X58884285Y-68036000D01*
X58598571Y-67964571D01*
X58098571Y-67964571D01*
X57812857Y-68036000D01*
X57670000Y-68178857D01*
X57598571Y-68321714D01*
X56487142Y-60627142D02*
X56558571Y-60841428D01*
X56558571Y-61198571D01*
X56487142Y-61341428D01*
X56415714Y-61412857D01*
X56272857Y-61484285D01*
X56130000Y-61484285D01*
X55987142Y-61412857D01*
X55915714Y-61341428D01*
X55844285Y-61198571D01*
X55772857Y-60912857D01*
X55701428Y-60770000D01*
X55630000Y-60698571D01*
X55487142Y-60627142D01*
X55344285Y-60627142D01*
X55201428Y-60698571D01*
X55130000Y-60770000D01*
X55058571Y-60912857D01*
X55058571Y-61270000D01*
X55130000Y-61484285D01*
X55058571Y-61984285D02*
X56558571Y-62341428D01*
X55487142Y-62627142D01*
X56558571Y-62912857D01*
X55058571Y-63270000D01*
X56558571Y-63841428D02*
X55058571Y-63841428D01*
X55058571Y-64198571D01*
X55130000Y-64412857D01*
X55272857Y-64555714D01*
X55415714Y-64627142D01*
X55701428Y-64698571D01*
X55915714Y-64698571D01*
X56201428Y-64627142D01*
X56344285Y-64555714D01*
X56487142Y-64412857D01*
X56558571Y-64198571D01*
X56558571Y-63841428D01*
X56415714Y-66198571D02*
X56487142Y-66127142D01*
X56558571Y-65912857D01*
X56558571Y-65770000D01*
X56487142Y-65555714D01*
X56344285Y-65412857D01*
X56201428Y-65341428D01*
X55915714Y-65270000D01*
X55701428Y-65270000D01*
X55415714Y-65341428D01*
X55272857Y-65412857D01*
X55130000Y-65555714D01*
X55058571Y-65770000D01*
X55058571Y-65912857D01*
X55130000Y-66127142D01*
X55201428Y-66198571D01*
X56558571Y-67555714D02*
X56558571Y-66841428D01*
X55058571Y-66841428D01*
X56558571Y-68055714D02*
X55058571Y-68055714D01*
X56558571Y-68912857D02*
X55701428Y-68270000D01*
X55058571Y-68912857D02*
X55915714Y-68055714D01*
X54018571Y-62893142D02*
X52518571Y-62893142D01*
X52518571Y-63464571D01*
X52590000Y-63607428D01*
X52661428Y-63678857D01*
X52804285Y-63750285D01*
X53018571Y-63750285D01*
X53161428Y-63678857D01*
X53232857Y-63607428D01*
X53304285Y-63464571D01*
X53304285Y-62893142D01*
X52518571Y-64678857D02*
X52518571Y-64821714D01*
X52590000Y-64964571D01*
X52661428Y-65036000D01*
X52804285Y-65107428D01*
X53090000Y-65178857D01*
X53447142Y-65178857D01*
X53732857Y-65107428D01*
X53875714Y-65036000D01*
X53947142Y-64964571D01*
X54018571Y-64821714D01*
X54018571Y-64678857D01*
X53947142Y-64536000D01*
X53875714Y-64464571D01*
X53732857Y-64393142D01*
X53447142Y-64321714D01*
X53090000Y-64321714D01*
X52804285Y-64393142D01*
X52661428Y-64464571D01*
X52590000Y-64536000D01*
X52518571Y-64678857D01*
X53875714Y-65821714D02*
X53947142Y-65893142D01*
X54018571Y-65821714D01*
X53947142Y-65750285D01*
X53875714Y-65821714D01*
X54018571Y-65821714D01*
X52661428Y-66464571D02*
X52590000Y-66536000D01*
X52518571Y-66678857D01*
X52518571Y-67036000D01*
X52590000Y-67178857D01*
X52661428Y-67250285D01*
X52804285Y-67321714D01*
X52947142Y-67321714D01*
X53161428Y-67250285D01*
X54018571Y-66393142D01*
X54018571Y-67321714D01*
X54018571Y-68750285D02*
X54018571Y-67893142D01*
X54018571Y-68321714D02*
X52518571Y-68321714D01*
X52732857Y-68178857D01*
X52875714Y-68036000D01*
X52947142Y-67893142D01*
X41318571Y-62893142D02*
X39818571Y-62893142D01*
X39818571Y-63464571D01*
X39890000Y-63607428D01*
X39961428Y-63678857D01*
X40104285Y-63750285D01*
X40318571Y-63750285D01*
X40461428Y-63678857D01*
X40532857Y-63607428D01*
X40604285Y-63464571D01*
X40604285Y-62893142D01*
X39818571Y-64678857D02*
X39818571Y-64821714D01*
X39890000Y-64964571D01*
X39961428Y-65036000D01*
X40104285Y-65107428D01*
X40390000Y-65178857D01*
X40747142Y-65178857D01*
X41032857Y-65107428D01*
X41175714Y-65036000D01*
X41247142Y-64964571D01*
X41318571Y-64821714D01*
X41318571Y-64678857D01*
X41247142Y-64536000D01*
X41175714Y-64464571D01*
X41032857Y-64393142D01*
X40747142Y-64321714D01*
X40390000Y-64321714D01*
X40104285Y-64393142D01*
X39961428Y-64464571D01*
X39890000Y-64536000D01*
X39818571Y-64678857D01*
X41175714Y-65821714D02*
X41247142Y-65893142D01*
X41318571Y-65821714D01*
X41247142Y-65750285D01*
X41175714Y-65821714D01*
X41318571Y-65821714D01*
X41318571Y-67321714D02*
X41318571Y-66464571D01*
X41318571Y-66893142D02*
X39818571Y-66893142D01*
X40032857Y-66750285D01*
X40175714Y-66607428D01*
X40247142Y-66464571D01*
X39818571Y-68607428D02*
X39818571Y-68321714D01*
X39890000Y-68178857D01*
X39961428Y-68107428D01*
X40175714Y-67964571D01*
X40461428Y-67893142D01*
X41032857Y-67893142D01*
X41175714Y-67964571D01*
X41247142Y-68036000D01*
X41318571Y-68178857D01*
X41318571Y-68464571D01*
X41247142Y-68607428D01*
X41175714Y-68678857D01*
X41032857Y-68750285D01*
X40675714Y-68750285D01*
X40532857Y-68678857D01*
X40461428Y-68607428D01*
X40390000Y-68464571D01*
X40390000Y-68178857D01*
X40461428Y-68036000D01*
X40532857Y-67964571D01*
X40675714Y-67893142D01*
X38778571Y-62893142D02*
X37278571Y-62893142D01*
X37278571Y-63464571D01*
X37350000Y-63607428D01*
X37421428Y-63678857D01*
X37564285Y-63750285D01*
X37778571Y-63750285D01*
X37921428Y-63678857D01*
X37992857Y-63607428D01*
X38064285Y-63464571D01*
X38064285Y-62893142D01*
X37278571Y-64678857D02*
X37278571Y-64821714D01*
X37350000Y-64964571D01*
X37421428Y-65036000D01*
X37564285Y-65107428D01*
X37850000Y-65178857D01*
X38207142Y-65178857D01*
X38492857Y-65107428D01*
X38635714Y-65036000D01*
X38707142Y-64964571D01*
X38778571Y-64821714D01*
X38778571Y-64678857D01*
X38707142Y-64536000D01*
X38635714Y-64464571D01*
X38492857Y-64393142D01*
X38207142Y-64321714D01*
X37850000Y-64321714D01*
X37564285Y-64393142D01*
X37421428Y-64464571D01*
X37350000Y-64536000D01*
X37278571Y-64678857D01*
X38635714Y-65821714D02*
X38707142Y-65893142D01*
X38778571Y-65821714D01*
X38707142Y-65750285D01*
X38635714Y-65821714D01*
X38778571Y-65821714D01*
X38778571Y-67321714D02*
X38778571Y-66464571D01*
X38778571Y-66893142D02*
X37278571Y-66893142D01*
X37492857Y-66750285D01*
X37635714Y-66607428D01*
X37707142Y-66464571D01*
X37278571Y-68678857D02*
X37278571Y-67964571D01*
X37992857Y-67893142D01*
X37921428Y-67964571D01*
X37850000Y-68107428D01*
X37850000Y-68464571D01*
X37921428Y-68607428D01*
X37992857Y-68678857D01*
X38135714Y-68750285D01*
X38492857Y-68750285D01*
X38635714Y-68678857D01*
X38707142Y-68607428D01*
X38778571Y-68464571D01*
X38778571Y-68107428D01*
X38707142Y-67964571D01*
X38635714Y-67893142D01*
X36238571Y-62893142D02*
X34738571Y-62893142D01*
X34738571Y-63464571D01*
X34810000Y-63607428D01*
X34881428Y-63678857D01*
X35024285Y-63750285D01*
X35238571Y-63750285D01*
X35381428Y-63678857D01*
X35452857Y-63607428D01*
X35524285Y-63464571D01*
X35524285Y-62893142D01*
X34738571Y-64678857D02*
X34738571Y-64821714D01*
X34810000Y-64964571D01*
X34881428Y-65036000D01*
X35024285Y-65107428D01*
X35310000Y-65178857D01*
X35667142Y-65178857D01*
X35952857Y-65107428D01*
X36095714Y-65036000D01*
X36167142Y-64964571D01*
X36238571Y-64821714D01*
X36238571Y-64678857D01*
X36167142Y-64536000D01*
X36095714Y-64464571D01*
X35952857Y-64393142D01*
X35667142Y-64321714D01*
X35310000Y-64321714D01*
X35024285Y-64393142D01*
X34881428Y-64464571D01*
X34810000Y-64536000D01*
X34738571Y-64678857D01*
X36095714Y-65821714D02*
X36167142Y-65893142D01*
X36238571Y-65821714D01*
X36167142Y-65750285D01*
X36095714Y-65821714D01*
X36238571Y-65821714D01*
X36238571Y-67321714D02*
X36238571Y-66464571D01*
X36238571Y-66893142D02*
X34738571Y-66893142D01*
X34952857Y-66750285D01*
X35095714Y-66607428D01*
X35167142Y-66464571D01*
X35238571Y-68607428D02*
X36238571Y-68607428D01*
X34667142Y-68250285D02*
X35738571Y-67893142D01*
X35738571Y-68821714D01*
X33698571Y-62893142D02*
X32198571Y-62893142D01*
X32198571Y-63464571D01*
X32270000Y-63607428D01*
X32341428Y-63678857D01*
X32484285Y-63750285D01*
X32698571Y-63750285D01*
X32841428Y-63678857D01*
X32912857Y-63607428D01*
X32984285Y-63464571D01*
X32984285Y-62893142D01*
X32198571Y-64678857D02*
X32198571Y-64821714D01*
X32270000Y-64964571D01*
X32341428Y-65036000D01*
X32484285Y-65107428D01*
X32770000Y-65178857D01*
X33127142Y-65178857D01*
X33412857Y-65107428D01*
X33555714Y-65036000D01*
X33627142Y-64964571D01*
X33698571Y-64821714D01*
X33698571Y-64678857D01*
X33627142Y-64536000D01*
X33555714Y-64464571D01*
X33412857Y-64393142D01*
X33127142Y-64321714D01*
X32770000Y-64321714D01*
X32484285Y-64393142D01*
X32341428Y-64464571D01*
X32270000Y-64536000D01*
X32198571Y-64678857D01*
X33555714Y-65821714D02*
X33627142Y-65893142D01*
X33698571Y-65821714D01*
X33627142Y-65750285D01*
X33555714Y-65821714D01*
X33698571Y-65821714D01*
X33698571Y-67321714D02*
X33698571Y-66464571D01*
X33698571Y-66893142D02*
X32198571Y-66893142D01*
X32412857Y-66750285D01*
X32555714Y-66607428D01*
X32627142Y-66464571D01*
X32198571Y-67821714D02*
X32198571Y-68750285D01*
X32770000Y-68250285D01*
X32770000Y-68464571D01*
X32841428Y-68607428D01*
X32912857Y-68678857D01*
X33055714Y-68750285D01*
X33412857Y-68750285D01*
X33555714Y-68678857D01*
X33627142Y-68607428D01*
X33698571Y-68464571D01*
X33698571Y-68036000D01*
X33627142Y-67893142D01*
X33555714Y-67821714D01*
X43858571Y-62893142D02*
X42358571Y-62893142D01*
X42358571Y-63464571D01*
X42430000Y-63607428D01*
X42501428Y-63678857D01*
X42644285Y-63750285D01*
X42858571Y-63750285D01*
X43001428Y-63678857D01*
X43072857Y-63607428D01*
X43144285Y-63464571D01*
X43144285Y-62893142D01*
X42358571Y-64678857D02*
X42358571Y-64821714D01*
X42430000Y-64964571D01*
X42501428Y-65036000D01*
X42644285Y-65107428D01*
X42930000Y-65178857D01*
X43287142Y-65178857D01*
X43572857Y-65107428D01*
X43715714Y-65036000D01*
X43787142Y-64964571D01*
X43858571Y-64821714D01*
X43858571Y-64678857D01*
X43787142Y-64536000D01*
X43715714Y-64464571D01*
X43572857Y-64393142D01*
X43287142Y-64321714D01*
X42930000Y-64321714D01*
X42644285Y-64393142D01*
X42501428Y-64464571D01*
X42430000Y-64536000D01*
X42358571Y-64678857D01*
X43715714Y-65821714D02*
X43787142Y-65893142D01*
X43858571Y-65821714D01*
X43787142Y-65750285D01*
X43715714Y-65821714D01*
X43858571Y-65821714D01*
X43858571Y-67321714D02*
X43858571Y-66464571D01*
X43858571Y-66893142D02*
X42358571Y-66893142D01*
X42572857Y-66750285D01*
X42715714Y-66607428D01*
X42787142Y-66464571D01*
X42358571Y-67821714D02*
X42358571Y-68821714D01*
X43858571Y-68178857D01*
X51478571Y-62893142D02*
X49978571Y-62893142D01*
X49978571Y-63464571D01*
X50050000Y-63607428D01*
X50121428Y-63678857D01*
X50264285Y-63750285D01*
X50478571Y-63750285D01*
X50621428Y-63678857D01*
X50692857Y-63607428D01*
X50764285Y-63464571D01*
X50764285Y-62893142D01*
X49978571Y-64678857D02*
X49978571Y-64821714D01*
X50050000Y-64964571D01*
X50121428Y-65036000D01*
X50264285Y-65107428D01*
X50550000Y-65178857D01*
X50907142Y-65178857D01*
X51192857Y-65107428D01*
X51335714Y-65036000D01*
X51407142Y-64964571D01*
X51478571Y-64821714D01*
X51478571Y-64678857D01*
X51407142Y-64536000D01*
X51335714Y-64464571D01*
X51192857Y-64393142D01*
X50907142Y-64321714D01*
X50550000Y-64321714D01*
X50264285Y-64393142D01*
X50121428Y-64464571D01*
X50050000Y-64536000D01*
X49978571Y-64678857D01*
X51335714Y-65821714D02*
X51407142Y-65893142D01*
X51478571Y-65821714D01*
X51407142Y-65750285D01*
X51335714Y-65821714D01*
X51478571Y-65821714D01*
X50121428Y-66464571D02*
X50050000Y-66536000D01*
X49978571Y-66678857D01*
X49978571Y-67036000D01*
X50050000Y-67178857D01*
X50121428Y-67250285D01*
X50264285Y-67321714D01*
X50407142Y-67321714D01*
X50621428Y-67250285D01*
X51478571Y-66393142D01*
X51478571Y-67321714D01*
X49978571Y-68250285D02*
X49978571Y-68393142D01*
X50050000Y-68536000D01*
X50121428Y-68607428D01*
X50264285Y-68678857D01*
X50550000Y-68750285D01*
X50907142Y-68750285D01*
X51192857Y-68678857D01*
X51335714Y-68607428D01*
X51407142Y-68536000D01*
X51478571Y-68393142D01*
X51478571Y-68250285D01*
X51407142Y-68107428D01*
X51335714Y-68036000D01*
X51192857Y-67964571D01*
X50907142Y-67893142D01*
X50550000Y-67893142D01*
X50264285Y-67964571D01*
X50121428Y-68036000D01*
X50050000Y-68107428D01*
X49978571Y-68250285D01*
X48938571Y-62893142D02*
X47438571Y-62893142D01*
X47438571Y-63464571D01*
X47510000Y-63607428D01*
X47581428Y-63678857D01*
X47724285Y-63750285D01*
X47938571Y-63750285D01*
X48081428Y-63678857D01*
X48152857Y-63607428D01*
X48224285Y-63464571D01*
X48224285Y-62893142D01*
X47438571Y-64678857D02*
X47438571Y-64821714D01*
X47510000Y-64964571D01*
X47581428Y-65036000D01*
X47724285Y-65107428D01*
X48010000Y-65178857D01*
X48367142Y-65178857D01*
X48652857Y-65107428D01*
X48795714Y-65036000D01*
X48867142Y-64964571D01*
X48938571Y-64821714D01*
X48938571Y-64678857D01*
X48867142Y-64536000D01*
X48795714Y-64464571D01*
X48652857Y-64393142D01*
X48367142Y-64321714D01*
X48010000Y-64321714D01*
X47724285Y-64393142D01*
X47581428Y-64464571D01*
X47510000Y-64536000D01*
X47438571Y-64678857D01*
X48795714Y-65821714D02*
X48867142Y-65893142D01*
X48938571Y-65821714D01*
X48867142Y-65750285D01*
X48795714Y-65821714D01*
X48938571Y-65821714D01*
X48938571Y-67321714D02*
X48938571Y-66464571D01*
X48938571Y-66893142D02*
X47438571Y-66893142D01*
X47652857Y-66750285D01*
X47795714Y-66607428D01*
X47867142Y-66464571D01*
X48938571Y-68036000D02*
X48938571Y-68321714D01*
X48867142Y-68464571D01*
X48795714Y-68536000D01*
X48581428Y-68678857D01*
X48295714Y-68750285D01*
X47724285Y-68750285D01*
X47581428Y-68678857D01*
X47510000Y-68607428D01*
X47438571Y-68464571D01*
X47438571Y-68178857D01*
X47510000Y-68036000D01*
X47581428Y-67964571D01*
X47724285Y-67893142D01*
X48081428Y-67893142D01*
X48224285Y-67964571D01*
X48295714Y-68036000D01*
X48367142Y-68178857D01*
X48367142Y-68464571D01*
X48295714Y-68607428D01*
X48224285Y-68678857D01*
X48081428Y-68750285D01*
X46398571Y-62893142D02*
X44898571Y-62893142D01*
X44898571Y-63464571D01*
X44970000Y-63607428D01*
X45041428Y-63678857D01*
X45184285Y-63750285D01*
X45398571Y-63750285D01*
X45541428Y-63678857D01*
X45612857Y-63607428D01*
X45684285Y-63464571D01*
X45684285Y-62893142D01*
X44898571Y-64678857D02*
X44898571Y-64821714D01*
X44970000Y-64964571D01*
X45041428Y-65036000D01*
X45184285Y-65107428D01*
X45470000Y-65178857D01*
X45827142Y-65178857D01*
X46112857Y-65107428D01*
X46255714Y-65036000D01*
X46327142Y-64964571D01*
X46398571Y-64821714D01*
X46398571Y-64678857D01*
X46327142Y-64536000D01*
X46255714Y-64464571D01*
X46112857Y-64393142D01*
X45827142Y-64321714D01*
X45470000Y-64321714D01*
X45184285Y-64393142D01*
X45041428Y-64464571D01*
X44970000Y-64536000D01*
X44898571Y-64678857D01*
X46255714Y-65821714D02*
X46327142Y-65893142D01*
X46398571Y-65821714D01*
X46327142Y-65750285D01*
X46255714Y-65821714D01*
X46398571Y-65821714D01*
X46398571Y-67321714D02*
X46398571Y-66464571D01*
X46398571Y-66893142D02*
X44898571Y-66893142D01*
X45112857Y-66750285D01*
X45255714Y-66607428D01*
X45327142Y-66464571D01*
X45541428Y-68178857D02*
X45470000Y-68036000D01*
X45398571Y-67964571D01*
X45255714Y-67893142D01*
X45184285Y-67893142D01*
X45041428Y-67964571D01*
X44970000Y-68036000D01*
X44898571Y-68178857D01*
X44898571Y-68464571D01*
X44970000Y-68607428D01*
X45041428Y-68678857D01*
X45184285Y-68750285D01*
X45255714Y-68750285D01*
X45398571Y-68678857D01*
X45470000Y-68607428D01*
X45541428Y-68464571D01*
X45541428Y-68178857D01*
X45612857Y-68036000D01*
X45684285Y-67964571D01*
X45827142Y-67893142D01*
X46112857Y-67893142D01*
X46255714Y-67964571D01*
X46327142Y-68036000D01*
X46398571Y-68178857D01*
X46398571Y-68464571D01*
X46327142Y-68607428D01*
X46255714Y-68678857D01*
X46112857Y-68750285D01*
X45827142Y-68750285D01*
X45684285Y-68678857D01*
X45612857Y-68607428D01*
X45541428Y-68464571D01*
X28618571Y-62893142D02*
X27118571Y-62893142D01*
X27118571Y-63464571D01*
X27190000Y-63607428D01*
X27261428Y-63678857D01*
X27404285Y-63750285D01*
X27618571Y-63750285D01*
X27761428Y-63678857D01*
X27832857Y-63607428D01*
X27904285Y-63464571D01*
X27904285Y-62893142D01*
X27118571Y-64678857D02*
X27118571Y-64821714D01*
X27190000Y-64964571D01*
X27261428Y-65036000D01*
X27404285Y-65107428D01*
X27690000Y-65178857D01*
X28047142Y-65178857D01*
X28332857Y-65107428D01*
X28475714Y-65036000D01*
X28547142Y-64964571D01*
X28618571Y-64821714D01*
X28618571Y-64678857D01*
X28547142Y-64536000D01*
X28475714Y-64464571D01*
X28332857Y-64393142D01*
X28047142Y-64321714D01*
X27690000Y-64321714D01*
X27404285Y-64393142D01*
X27261428Y-64464571D01*
X27190000Y-64536000D01*
X27118571Y-64678857D01*
X28475714Y-65821714D02*
X28547142Y-65893142D01*
X28618571Y-65821714D01*
X28547142Y-65750285D01*
X28475714Y-65821714D01*
X28618571Y-65821714D01*
X28618571Y-67321714D02*
X28618571Y-66464571D01*
X28618571Y-66893142D02*
X27118571Y-66893142D01*
X27332857Y-66750285D01*
X27475714Y-66607428D01*
X27547142Y-66464571D01*
X28618571Y-68750285D02*
X28618571Y-67893142D01*
X28618571Y-68321714D02*
X27118571Y-68321714D01*
X27332857Y-68178857D01*
X27475714Y-68036000D01*
X27547142Y-67893142D01*
X31158571Y-62893142D02*
X29658571Y-62893142D01*
X29658571Y-63464571D01*
X29730000Y-63607428D01*
X29801428Y-63678857D01*
X29944285Y-63750285D01*
X30158571Y-63750285D01*
X30301428Y-63678857D01*
X30372857Y-63607428D01*
X30444285Y-63464571D01*
X30444285Y-62893142D01*
X29658571Y-64678857D02*
X29658571Y-64821714D01*
X29730000Y-64964571D01*
X29801428Y-65036000D01*
X29944285Y-65107428D01*
X30230000Y-65178857D01*
X30587142Y-65178857D01*
X30872857Y-65107428D01*
X31015714Y-65036000D01*
X31087142Y-64964571D01*
X31158571Y-64821714D01*
X31158571Y-64678857D01*
X31087142Y-64536000D01*
X31015714Y-64464571D01*
X30872857Y-64393142D01*
X30587142Y-64321714D01*
X30230000Y-64321714D01*
X29944285Y-64393142D01*
X29801428Y-64464571D01*
X29730000Y-64536000D01*
X29658571Y-64678857D01*
X31015714Y-65821714D02*
X31087142Y-65893142D01*
X31158571Y-65821714D01*
X31087142Y-65750285D01*
X31015714Y-65821714D01*
X31158571Y-65821714D01*
X31158571Y-67321714D02*
X31158571Y-66464571D01*
X31158571Y-66893142D02*
X29658571Y-66893142D01*
X29872857Y-66750285D01*
X30015714Y-66607428D01*
X30087142Y-66464571D01*
X29801428Y-67893142D02*
X29730000Y-67964571D01*
X29658571Y-68107428D01*
X29658571Y-68464571D01*
X29730000Y-68607428D01*
X29801428Y-68678857D01*
X29944285Y-68750285D01*
X30087142Y-68750285D01*
X30301428Y-68678857D01*
X31158571Y-67821714D01*
X31158571Y-68750285D01*
X29658571Y-31782000D02*
X29658571Y-31067714D01*
X30372857Y-30996285D01*
X30301428Y-31067714D01*
X30230000Y-31210571D01*
X30230000Y-31567714D01*
X30301428Y-31710571D01*
X30372857Y-31782000D01*
X30515714Y-31853428D01*
X30872857Y-31853428D01*
X31015714Y-31782000D01*
X31087142Y-31710571D01*
X31158571Y-31567714D01*
X31158571Y-31210571D01*
X31087142Y-31067714D01*
X31015714Y-30996285D01*
X29658571Y-32282000D02*
X31158571Y-32782000D01*
X29658571Y-33282000D01*
X31301428Y-33424857D02*
X31301428Y-34567714D01*
X31158571Y-34924857D02*
X29658571Y-34924857D01*
X31158571Y-35639142D02*
X29658571Y-35639142D01*
X31158571Y-36496285D01*
X29658571Y-36496285D01*
X27190000Y-32639142D02*
X27118571Y-32496285D01*
X27118571Y-32282000D01*
X27190000Y-32067714D01*
X27332857Y-31924857D01*
X27475714Y-31853428D01*
X27761428Y-31782000D01*
X27975714Y-31782000D01*
X28261428Y-31853428D01*
X28404285Y-31924857D01*
X28547142Y-32067714D01*
X28618571Y-32282000D01*
X28618571Y-32424857D01*
X28547142Y-32639142D01*
X28475714Y-32710571D01*
X27975714Y-32710571D01*
X27975714Y-32424857D01*
X28618571Y-33353428D02*
X27118571Y-33353428D01*
X28618571Y-34210571D01*
X27118571Y-34210571D01*
X28618571Y-34924857D02*
X27118571Y-34924857D01*
X27118571Y-35282000D01*
X27190000Y-35496285D01*
X27332857Y-35639142D01*
X27475714Y-35710571D01*
X27761428Y-35782000D01*
X27975714Y-35782000D01*
X28261428Y-35710571D01*
X28404285Y-35639142D01*
X28547142Y-35496285D01*
X28618571Y-35282000D01*
X28618571Y-34924857D01*
X46398571Y-30889142D02*
X44898571Y-30889142D01*
X44898571Y-31460571D01*
X44970000Y-31603428D01*
X45041428Y-31674857D01*
X45184285Y-31746285D01*
X45398571Y-31746285D01*
X45541428Y-31674857D01*
X45612857Y-31603428D01*
X45684285Y-31460571D01*
X45684285Y-30889142D01*
X44898571Y-32674857D02*
X44898571Y-32817714D01*
X44970000Y-32960571D01*
X45041428Y-33032000D01*
X45184285Y-33103428D01*
X45470000Y-33174857D01*
X45827142Y-33174857D01*
X46112857Y-33103428D01*
X46255714Y-33032000D01*
X46327142Y-32960571D01*
X46398571Y-32817714D01*
X46398571Y-32674857D01*
X46327142Y-32532000D01*
X46255714Y-32460571D01*
X46112857Y-32389142D01*
X45827142Y-32317714D01*
X45470000Y-32317714D01*
X45184285Y-32389142D01*
X45041428Y-32460571D01*
X44970000Y-32532000D01*
X44898571Y-32674857D01*
X46255714Y-33817714D02*
X46327142Y-33889142D01*
X46398571Y-33817714D01*
X46327142Y-33746285D01*
X46255714Y-33817714D01*
X46398571Y-33817714D01*
X44898571Y-34817714D02*
X44898571Y-34960571D01*
X44970000Y-35103428D01*
X45041428Y-35174857D01*
X45184285Y-35246285D01*
X45470000Y-35317714D01*
X45827142Y-35317714D01*
X46112857Y-35246285D01*
X46255714Y-35174857D01*
X46327142Y-35103428D01*
X46398571Y-34960571D01*
X46398571Y-34817714D01*
X46327142Y-34674857D01*
X46255714Y-34603428D01*
X46112857Y-34532000D01*
X45827142Y-34460571D01*
X45470000Y-34460571D01*
X45184285Y-34532000D01*
X45041428Y-34603428D01*
X44970000Y-34674857D01*
X44898571Y-34817714D01*
X44898571Y-36674857D02*
X44898571Y-35960571D01*
X45612857Y-35889142D01*
X45541428Y-35960571D01*
X45470000Y-36103428D01*
X45470000Y-36460571D01*
X45541428Y-36603428D01*
X45612857Y-36674857D01*
X45755714Y-36746285D01*
X46112857Y-36746285D01*
X46255714Y-36674857D01*
X46327142Y-36603428D01*
X46398571Y-36460571D01*
X46398571Y-36103428D01*
X46327142Y-35960571D01*
X46255714Y-35889142D01*
X48938571Y-30889142D02*
X47438571Y-30889142D01*
X47438571Y-31460571D01*
X47510000Y-31603428D01*
X47581428Y-31674857D01*
X47724285Y-31746285D01*
X47938571Y-31746285D01*
X48081428Y-31674857D01*
X48152857Y-31603428D01*
X48224285Y-31460571D01*
X48224285Y-30889142D01*
X47438571Y-32674857D02*
X47438571Y-32817714D01*
X47510000Y-32960571D01*
X47581428Y-33032000D01*
X47724285Y-33103428D01*
X48010000Y-33174857D01*
X48367142Y-33174857D01*
X48652857Y-33103428D01*
X48795714Y-33032000D01*
X48867142Y-32960571D01*
X48938571Y-32817714D01*
X48938571Y-32674857D01*
X48867142Y-32532000D01*
X48795714Y-32460571D01*
X48652857Y-32389142D01*
X48367142Y-32317714D01*
X48010000Y-32317714D01*
X47724285Y-32389142D01*
X47581428Y-32460571D01*
X47510000Y-32532000D01*
X47438571Y-32674857D01*
X48795714Y-33817714D02*
X48867142Y-33889142D01*
X48938571Y-33817714D01*
X48867142Y-33746285D01*
X48795714Y-33817714D01*
X48938571Y-33817714D01*
X47438571Y-34817714D02*
X47438571Y-34960571D01*
X47510000Y-35103428D01*
X47581428Y-35174857D01*
X47724285Y-35246285D01*
X48010000Y-35317714D01*
X48367142Y-35317714D01*
X48652857Y-35246285D01*
X48795714Y-35174857D01*
X48867142Y-35103428D01*
X48938571Y-34960571D01*
X48938571Y-34817714D01*
X48867142Y-34674857D01*
X48795714Y-34603428D01*
X48652857Y-34532000D01*
X48367142Y-34460571D01*
X48010000Y-34460571D01*
X47724285Y-34532000D01*
X47581428Y-34603428D01*
X47510000Y-34674857D01*
X47438571Y-34817714D01*
X47938571Y-36603428D02*
X48938571Y-36603428D01*
X47367142Y-36246285D02*
X48438571Y-35889142D01*
X48438571Y-36817714D01*
X51478571Y-30889142D02*
X49978571Y-30889142D01*
X49978571Y-31460571D01*
X50050000Y-31603428D01*
X50121428Y-31674857D01*
X50264285Y-31746285D01*
X50478571Y-31746285D01*
X50621428Y-31674857D01*
X50692857Y-31603428D01*
X50764285Y-31460571D01*
X50764285Y-30889142D01*
X49978571Y-32674857D02*
X49978571Y-32817714D01*
X50050000Y-32960571D01*
X50121428Y-33032000D01*
X50264285Y-33103428D01*
X50550000Y-33174857D01*
X50907142Y-33174857D01*
X51192857Y-33103428D01*
X51335714Y-33032000D01*
X51407142Y-32960571D01*
X51478571Y-32817714D01*
X51478571Y-32674857D01*
X51407142Y-32532000D01*
X51335714Y-32460571D01*
X51192857Y-32389142D01*
X50907142Y-32317714D01*
X50550000Y-32317714D01*
X50264285Y-32389142D01*
X50121428Y-32460571D01*
X50050000Y-32532000D01*
X49978571Y-32674857D01*
X51335714Y-33817714D02*
X51407142Y-33889142D01*
X51478571Y-33817714D01*
X51407142Y-33746285D01*
X51335714Y-33817714D01*
X51478571Y-33817714D01*
X49978571Y-34817714D02*
X49978571Y-34960571D01*
X50050000Y-35103428D01*
X50121428Y-35174857D01*
X50264285Y-35246285D01*
X50550000Y-35317714D01*
X50907142Y-35317714D01*
X51192857Y-35246285D01*
X51335714Y-35174857D01*
X51407142Y-35103428D01*
X51478571Y-34960571D01*
X51478571Y-34817714D01*
X51407142Y-34674857D01*
X51335714Y-34603428D01*
X51192857Y-34532000D01*
X50907142Y-34460571D01*
X50550000Y-34460571D01*
X50264285Y-34532000D01*
X50121428Y-34603428D01*
X50050000Y-34674857D01*
X49978571Y-34817714D01*
X49978571Y-35817714D02*
X49978571Y-36746285D01*
X50550000Y-36246285D01*
X50550000Y-36460571D01*
X50621428Y-36603428D01*
X50692857Y-36674857D01*
X50835714Y-36746285D01*
X51192857Y-36746285D01*
X51335714Y-36674857D01*
X51407142Y-36603428D01*
X51478571Y-36460571D01*
X51478571Y-36032000D01*
X51407142Y-35889142D01*
X51335714Y-35817714D01*
X43858571Y-30889142D02*
X42358571Y-30889142D01*
X42358571Y-31460571D01*
X42430000Y-31603428D01*
X42501428Y-31674857D01*
X42644285Y-31746285D01*
X42858571Y-31746285D01*
X43001428Y-31674857D01*
X43072857Y-31603428D01*
X43144285Y-31460571D01*
X43144285Y-30889142D01*
X42358571Y-32674857D02*
X42358571Y-32817714D01*
X42430000Y-32960571D01*
X42501428Y-33032000D01*
X42644285Y-33103428D01*
X42930000Y-33174857D01*
X43287142Y-33174857D01*
X43572857Y-33103428D01*
X43715714Y-33032000D01*
X43787142Y-32960571D01*
X43858571Y-32817714D01*
X43858571Y-32674857D01*
X43787142Y-32532000D01*
X43715714Y-32460571D01*
X43572857Y-32389142D01*
X43287142Y-32317714D01*
X42930000Y-32317714D01*
X42644285Y-32389142D01*
X42501428Y-32460571D01*
X42430000Y-32532000D01*
X42358571Y-32674857D01*
X43715714Y-33817714D02*
X43787142Y-33889142D01*
X43858571Y-33817714D01*
X43787142Y-33746285D01*
X43715714Y-33817714D01*
X43858571Y-33817714D01*
X42358571Y-34817714D02*
X42358571Y-34960571D01*
X42430000Y-35103428D01*
X42501428Y-35174857D01*
X42644285Y-35246285D01*
X42930000Y-35317714D01*
X43287142Y-35317714D01*
X43572857Y-35246285D01*
X43715714Y-35174857D01*
X43787142Y-35103428D01*
X43858571Y-34960571D01*
X43858571Y-34817714D01*
X43787142Y-34674857D01*
X43715714Y-34603428D01*
X43572857Y-34532000D01*
X43287142Y-34460571D01*
X42930000Y-34460571D01*
X42644285Y-34532000D01*
X42501428Y-34603428D01*
X42430000Y-34674857D01*
X42358571Y-34817714D01*
X42358571Y-36603428D02*
X42358571Y-36317714D01*
X42430000Y-36174857D01*
X42501428Y-36103428D01*
X42715714Y-35960571D01*
X43001428Y-35889142D01*
X43572857Y-35889142D01*
X43715714Y-35960571D01*
X43787142Y-36032000D01*
X43858571Y-36174857D01*
X43858571Y-36460571D01*
X43787142Y-36603428D01*
X43715714Y-36674857D01*
X43572857Y-36746285D01*
X43215714Y-36746285D01*
X43072857Y-36674857D01*
X43001428Y-36603428D01*
X42930000Y-36460571D01*
X42930000Y-36174857D01*
X43001428Y-36032000D01*
X43072857Y-35960571D01*
X43215714Y-35889142D01*
X32270000Y-32639142D02*
X32198571Y-32496285D01*
X32198571Y-32282000D01*
X32270000Y-32067714D01*
X32412857Y-31924857D01*
X32555714Y-31853428D01*
X32841428Y-31782000D01*
X33055714Y-31782000D01*
X33341428Y-31853428D01*
X33484285Y-31924857D01*
X33627142Y-32067714D01*
X33698571Y-32282000D01*
X33698571Y-32424857D01*
X33627142Y-32639142D01*
X33555714Y-32710571D01*
X33055714Y-32710571D01*
X33055714Y-32424857D01*
X33698571Y-33353428D02*
X32198571Y-33353428D01*
X33698571Y-34210571D01*
X32198571Y-34210571D01*
X33698571Y-34924857D02*
X32198571Y-34924857D01*
X32198571Y-35282000D01*
X32270000Y-35496285D01*
X32412857Y-35639142D01*
X32555714Y-35710571D01*
X32841428Y-35782000D01*
X33055714Y-35782000D01*
X33341428Y-35710571D01*
X33484285Y-35639142D01*
X33627142Y-35496285D01*
X33698571Y-35282000D01*
X33698571Y-34924857D01*
X35667142Y-31139142D02*
X35667142Y-32282000D01*
X36238571Y-31710571D02*
X35095714Y-31710571D01*
X34738571Y-32853428D02*
X34738571Y-33782000D01*
X35310000Y-33282000D01*
X35310000Y-33496285D01*
X35381428Y-33639142D01*
X35452857Y-33710571D01*
X35595714Y-33782000D01*
X35952857Y-33782000D01*
X36095714Y-33710571D01*
X36167142Y-33639142D01*
X36238571Y-33496285D01*
X36238571Y-33067714D01*
X36167142Y-32924857D01*
X36095714Y-32853428D01*
X34738571Y-34210571D02*
X36238571Y-34710571D01*
X34738571Y-35210571D01*
X34738571Y-35567714D02*
X34738571Y-36496285D01*
X35310000Y-35996285D01*
X35310000Y-36210571D01*
X35381428Y-36353428D01*
X35452857Y-36424857D01*
X35595714Y-36496285D01*
X35952857Y-36496285D01*
X36095714Y-36424857D01*
X36167142Y-36353428D01*
X36238571Y-36210571D01*
X36238571Y-35782000D01*
X36167142Y-35639142D01*
X36095714Y-35567714D01*
X38778571Y-30889142D02*
X37278571Y-30889142D01*
X37278571Y-31460571D01*
X37350000Y-31603428D01*
X37421428Y-31674857D01*
X37564285Y-31746285D01*
X37778571Y-31746285D01*
X37921428Y-31674857D01*
X37992857Y-31603428D01*
X38064285Y-31460571D01*
X38064285Y-30889142D01*
X37278571Y-32674857D02*
X37278571Y-32817714D01*
X37350000Y-32960571D01*
X37421428Y-33032000D01*
X37564285Y-33103428D01*
X37850000Y-33174857D01*
X38207142Y-33174857D01*
X38492857Y-33103428D01*
X38635714Y-33032000D01*
X38707142Y-32960571D01*
X38778571Y-32817714D01*
X38778571Y-32674857D01*
X38707142Y-32532000D01*
X38635714Y-32460571D01*
X38492857Y-32389142D01*
X38207142Y-32317714D01*
X37850000Y-32317714D01*
X37564285Y-32389142D01*
X37421428Y-32460571D01*
X37350000Y-32532000D01*
X37278571Y-32674857D01*
X38635714Y-33817714D02*
X38707142Y-33889142D01*
X38778571Y-33817714D01*
X38707142Y-33746285D01*
X38635714Y-33817714D01*
X38778571Y-33817714D01*
X37278571Y-34817714D02*
X37278571Y-34960571D01*
X37350000Y-35103428D01*
X37421428Y-35174857D01*
X37564285Y-35246285D01*
X37850000Y-35317714D01*
X38207142Y-35317714D01*
X38492857Y-35246285D01*
X38635714Y-35174857D01*
X38707142Y-35103428D01*
X38778571Y-34960571D01*
X38778571Y-34817714D01*
X38707142Y-34674857D01*
X38635714Y-34603428D01*
X38492857Y-34532000D01*
X38207142Y-34460571D01*
X37850000Y-34460571D01*
X37564285Y-34532000D01*
X37421428Y-34603428D01*
X37350000Y-34674857D01*
X37278571Y-34817714D01*
X37921428Y-36174857D02*
X37850000Y-36032000D01*
X37778571Y-35960571D01*
X37635714Y-35889142D01*
X37564285Y-35889142D01*
X37421428Y-35960571D01*
X37350000Y-36032000D01*
X37278571Y-36174857D01*
X37278571Y-36460571D01*
X37350000Y-36603428D01*
X37421428Y-36674857D01*
X37564285Y-36746285D01*
X37635714Y-36746285D01*
X37778571Y-36674857D01*
X37850000Y-36603428D01*
X37921428Y-36460571D01*
X37921428Y-36174857D01*
X37992857Y-36032000D01*
X38064285Y-35960571D01*
X38207142Y-35889142D01*
X38492857Y-35889142D01*
X38635714Y-35960571D01*
X38707142Y-36032000D01*
X38778571Y-36174857D01*
X38778571Y-36460571D01*
X38707142Y-36603428D01*
X38635714Y-36674857D01*
X38492857Y-36746285D01*
X38207142Y-36746285D01*
X38064285Y-36674857D01*
X37992857Y-36603428D01*
X37921428Y-36460571D01*
X41318571Y-30889142D02*
X39818571Y-30889142D01*
X39818571Y-31460571D01*
X39890000Y-31603428D01*
X39961428Y-31674857D01*
X40104285Y-31746285D01*
X40318571Y-31746285D01*
X40461428Y-31674857D01*
X40532857Y-31603428D01*
X40604285Y-31460571D01*
X40604285Y-30889142D01*
X39818571Y-32674857D02*
X39818571Y-32817714D01*
X39890000Y-32960571D01*
X39961428Y-33032000D01*
X40104285Y-33103428D01*
X40390000Y-33174857D01*
X40747142Y-33174857D01*
X41032857Y-33103428D01*
X41175714Y-33032000D01*
X41247142Y-32960571D01*
X41318571Y-32817714D01*
X41318571Y-32674857D01*
X41247142Y-32532000D01*
X41175714Y-32460571D01*
X41032857Y-32389142D01*
X40747142Y-32317714D01*
X40390000Y-32317714D01*
X40104285Y-32389142D01*
X39961428Y-32460571D01*
X39890000Y-32532000D01*
X39818571Y-32674857D01*
X41175714Y-33817714D02*
X41247142Y-33889142D01*
X41318571Y-33817714D01*
X41247142Y-33746285D01*
X41175714Y-33817714D01*
X41318571Y-33817714D01*
X39818571Y-34817714D02*
X39818571Y-34960571D01*
X39890000Y-35103428D01*
X39961428Y-35174857D01*
X40104285Y-35246285D01*
X40390000Y-35317714D01*
X40747142Y-35317714D01*
X41032857Y-35246285D01*
X41175714Y-35174857D01*
X41247142Y-35103428D01*
X41318571Y-34960571D01*
X41318571Y-34817714D01*
X41247142Y-34674857D01*
X41175714Y-34603428D01*
X41032857Y-34532000D01*
X40747142Y-34460571D01*
X40390000Y-34460571D01*
X40104285Y-34532000D01*
X39961428Y-34603428D01*
X39890000Y-34674857D01*
X39818571Y-34817714D01*
X39818571Y-35817714D02*
X39818571Y-36817714D01*
X41318571Y-36174857D01*
X54018571Y-30889142D02*
X52518571Y-30889142D01*
X52518571Y-31460571D01*
X52590000Y-31603428D01*
X52661428Y-31674857D01*
X52804285Y-31746285D01*
X53018571Y-31746285D01*
X53161428Y-31674857D01*
X53232857Y-31603428D01*
X53304285Y-31460571D01*
X53304285Y-30889142D01*
X52518571Y-32674857D02*
X52518571Y-32817714D01*
X52590000Y-32960571D01*
X52661428Y-33032000D01*
X52804285Y-33103428D01*
X53090000Y-33174857D01*
X53447142Y-33174857D01*
X53732857Y-33103428D01*
X53875714Y-33032000D01*
X53947142Y-32960571D01*
X54018571Y-32817714D01*
X54018571Y-32674857D01*
X53947142Y-32532000D01*
X53875714Y-32460571D01*
X53732857Y-32389142D01*
X53447142Y-32317714D01*
X53090000Y-32317714D01*
X52804285Y-32389142D01*
X52661428Y-32460571D01*
X52590000Y-32532000D01*
X52518571Y-32674857D01*
X53875714Y-33817714D02*
X53947142Y-33889142D01*
X54018571Y-33817714D01*
X53947142Y-33746285D01*
X53875714Y-33817714D01*
X54018571Y-33817714D01*
X52518571Y-34817714D02*
X52518571Y-34960571D01*
X52590000Y-35103428D01*
X52661428Y-35174857D01*
X52804285Y-35246285D01*
X53090000Y-35317714D01*
X53447142Y-35317714D01*
X53732857Y-35246285D01*
X53875714Y-35174857D01*
X53947142Y-35103428D01*
X54018571Y-34960571D01*
X54018571Y-34817714D01*
X53947142Y-34674857D01*
X53875714Y-34603428D01*
X53732857Y-34532000D01*
X53447142Y-34460571D01*
X53090000Y-34460571D01*
X52804285Y-34532000D01*
X52661428Y-34603428D01*
X52590000Y-34674857D01*
X52518571Y-34817714D01*
X52661428Y-35889142D02*
X52590000Y-35960571D01*
X52518571Y-36103428D01*
X52518571Y-36460571D01*
X52590000Y-36603428D01*
X52661428Y-36674857D01*
X52804285Y-36746285D01*
X52947142Y-36746285D01*
X53161428Y-36674857D01*
X54018571Y-35817714D01*
X54018571Y-36746285D01*
X56558571Y-30889142D02*
X55058571Y-30889142D01*
X55058571Y-31460571D01*
X55130000Y-31603428D01*
X55201428Y-31674857D01*
X55344285Y-31746285D01*
X55558571Y-31746285D01*
X55701428Y-31674857D01*
X55772857Y-31603428D01*
X55844285Y-31460571D01*
X55844285Y-30889142D01*
X55058571Y-32674857D02*
X55058571Y-32817714D01*
X55130000Y-32960571D01*
X55201428Y-33032000D01*
X55344285Y-33103428D01*
X55630000Y-33174857D01*
X55987142Y-33174857D01*
X56272857Y-33103428D01*
X56415714Y-33032000D01*
X56487142Y-32960571D01*
X56558571Y-32817714D01*
X56558571Y-32674857D01*
X56487142Y-32532000D01*
X56415714Y-32460571D01*
X56272857Y-32389142D01*
X55987142Y-32317714D01*
X55630000Y-32317714D01*
X55344285Y-32389142D01*
X55201428Y-32460571D01*
X55130000Y-32532000D01*
X55058571Y-32674857D01*
X56415714Y-33817714D02*
X56487142Y-33889142D01*
X56558571Y-33817714D01*
X56487142Y-33746285D01*
X56415714Y-33817714D01*
X56558571Y-33817714D01*
X55058571Y-34389142D02*
X55058571Y-35317714D01*
X55630000Y-34817714D01*
X55630000Y-35032000D01*
X55701428Y-35174857D01*
X55772857Y-35246285D01*
X55915714Y-35317714D01*
X56272857Y-35317714D01*
X56415714Y-35246285D01*
X56487142Y-35174857D01*
X56558571Y-35032000D01*
X56558571Y-34603428D01*
X56487142Y-34460571D01*
X56415714Y-34389142D01*
X56558571Y-36746285D02*
X56558571Y-35889142D01*
X56558571Y-36317714D02*
X55058571Y-36317714D01*
X55272857Y-36174857D01*
X55415714Y-36032000D01*
X55487142Y-35889142D01*
X59098571Y-30889142D02*
X57598571Y-30889142D01*
X57598571Y-31460571D01*
X57670000Y-31603428D01*
X57741428Y-31674857D01*
X57884285Y-31746285D01*
X58098571Y-31746285D01*
X58241428Y-31674857D01*
X58312857Y-31603428D01*
X58384285Y-31460571D01*
X58384285Y-30889142D01*
X57598571Y-32674857D02*
X57598571Y-32817714D01*
X57670000Y-32960571D01*
X57741428Y-33032000D01*
X57884285Y-33103428D01*
X58170000Y-33174857D01*
X58527142Y-33174857D01*
X58812857Y-33103428D01*
X58955714Y-33032000D01*
X59027142Y-32960571D01*
X59098571Y-32817714D01*
X59098571Y-32674857D01*
X59027142Y-32532000D01*
X58955714Y-32460571D01*
X58812857Y-32389142D01*
X58527142Y-32317714D01*
X58170000Y-32317714D01*
X57884285Y-32389142D01*
X57741428Y-32460571D01*
X57670000Y-32532000D01*
X57598571Y-32674857D01*
X58955714Y-33817714D02*
X59027142Y-33889142D01*
X59098571Y-33817714D01*
X59027142Y-33746285D01*
X58955714Y-33817714D01*
X59098571Y-33817714D01*
X57598571Y-34389142D02*
X57598571Y-35317714D01*
X58170000Y-34817714D01*
X58170000Y-35032000D01*
X58241428Y-35174857D01*
X58312857Y-35246285D01*
X58455714Y-35317714D01*
X58812857Y-35317714D01*
X58955714Y-35246285D01*
X59027142Y-35174857D01*
X59098571Y-35032000D01*
X59098571Y-34603428D01*
X59027142Y-34460571D01*
X58955714Y-34389142D01*
X57598571Y-36246285D02*
X57598571Y-36389142D01*
X57670000Y-36532000D01*
X57741428Y-36603428D01*
X57884285Y-36674857D01*
X58170000Y-36746285D01*
X58527142Y-36746285D01*
X58812857Y-36674857D01*
X58955714Y-36603428D01*
X59027142Y-36532000D01*
X59098571Y-36389142D01*
X59098571Y-36246285D01*
X59027142Y-36103428D01*
X58955714Y-36032000D01*
X58812857Y-35960571D01*
X58527142Y-35889142D01*
X58170000Y-35889142D01*
X57884285Y-35960571D01*
X57741428Y-36032000D01*
X57670000Y-36103428D01*
X57598571Y-36246285D01*
X61638571Y-30889142D02*
X60138571Y-30889142D01*
X60138571Y-31460571D01*
X60210000Y-31603428D01*
X60281428Y-31674857D01*
X60424285Y-31746285D01*
X60638571Y-31746285D01*
X60781428Y-31674857D01*
X60852857Y-31603428D01*
X60924285Y-31460571D01*
X60924285Y-30889142D01*
X60138571Y-32674857D02*
X60138571Y-32817714D01*
X60210000Y-32960571D01*
X60281428Y-33032000D01*
X60424285Y-33103428D01*
X60710000Y-33174857D01*
X61067142Y-33174857D01*
X61352857Y-33103428D01*
X61495714Y-33032000D01*
X61567142Y-32960571D01*
X61638571Y-32817714D01*
X61638571Y-32674857D01*
X61567142Y-32532000D01*
X61495714Y-32460571D01*
X61352857Y-32389142D01*
X61067142Y-32317714D01*
X60710000Y-32317714D01*
X60424285Y-32389142D01*
X60281428Y-32460571D01*
X60210000Y-32532000D01*
X60138571Y-32674857D01*
X61495714Y-33817714D02*
X61567142Y-33889142D01*
X61638571Y-33817714D01*
X61567142Y-33746285D01*
X61495714Y-33817714D01*
X61638571Y-33817714D01*
X60281428Y-34460571D02*
X60210000Y-34532000D01*
X60138571Y-34674857D01*
X60138571Y-35032000D01*
X60210000Y-35174857D01*
X60281428Y-35246285D01*
X60424285Y-35317714D01*
X60567142Y-35317714D01*
X60781428Y-35246285D01*
X61638571Y-34389142D01*
X61638571Y-35317714D01*
X61638571Y-36032000D02*
X61638571Y-36317714D01*
X61567142Y-36460571D01*
X61495714Y-36532000D01*
X61281428Y-36674857D01*
X60995714Y-36746285D01*
X60424285Y-36746285D01*
X60281428Y-36674857D01*
X60210000Y-36603428D01*
X60138571Y-36460571D01*
X60138571Y-36174857D01*
X60210000Y-36032000D01*
X60281428Y-35960571D01*
X60424285Y-35889142D01*
X60781428Y-35889142D01*
X60924285Y-35960571D01*
X60995714Y-36032000D01*
X61067142Y-36174857D01*
X61067142Y-36460571D01*
X60995714Y-36603428D01*
X60924285Y-36674857D01*
X60781428Y-36746285D01*
X64178571Y-30889142D02*
X62678571Y-30889142D01*
X62678571Y-31460571D01*
X62750000Y-31603428D01*
X62821428Y-31674857D01*
X62964285Y-31746285D01*
X63178571Y-31746285D01*
X63321428Y-31674857D01*
X63392857Y-31603428D01*
X63464285Y-31460571D01*
X63464285Y-30889142D01*
X62678571Y-32674857D02*
X62678571Y-32817714D01*
X62750000Y-32960571D01*
X62821428Y-33032000D01*
X62964285Y-33103428D01*
X63250000Y-33174857D01*
X63607142Y-33174857D01*
X63892857Y-33103428D01*
X64035714Y-33032000D01*
X64107142Y-32960571D01*
X64178571Y-32817714D01*
X64178571Y-32674857D01*
X64107142Y-32532000D01*
X64035714Y-32460571D01*
X63892857Y-32389142D01*
X63607142Y-32317714D01*
X63250000Y-32317714D01*
X62964285Y-32389142D01*
X62821428Y-32460571D01*
X62750000Y-32532000D01*
X62678571Y-32674857D01*
X64035714Y-33817714D02*
X64107142Y-33889142D01*
X64178571Y-33817714D01*
X64107142Y-33746285D01*
X64035714Y-33817714D01*
X64178571Y-33817714D01*
X62821428Y-34460571D02*
X62750000Y-34532000D01*
X62678571Y-34674857D01*
X62678571Y-35032000D01*
X62750000Y-35174857D01*
X62821428Y-35246285D01*
X62964285Y-35317714D01*
X63107142Y-35317714D01*
X63321428Y-35246285D01*
X64178571Y-34389142D01*
X64178571Y-35317714D01*
X63321428Y-36174857D02*
X63250000Y-36032000D01*
X63178571Y-35960571D01*
X63035714Y-35889142D01*
X62964285Y-35889142D01*
X62821428Y-35960571D01*
X62750000Y-36032000D01*
X62678571Y-36174857D01*
X62678571Y-36460571D01*
X62750000Y-36603428D01*
X62821428Y-36674857D01*
X62964285Y-36746285D01*
X63035714Y-36746285D01*
X63178571Y-36674857D01*
X63250000Y-36603428D01*
X63321428Y-36460571D01*
X63321428Y-36174857D01*
X63392857Y-36032000D01*
X63464285Y-35960571D01*
X63607142Y-35889142D01*
X63892857Y-35889142D01*
X64035714Y-35960571D01*
X64107142Y-36032000D01*
X64178571Y-36174857D01*
X64178571Y-36460571D01*
X64107142Y-36603428D01*
X64035714Y-36674857D01*
X63892857Y-36746285D01*
X63607142Y-36746285D01*
X63464285Y-36674857D01*
X63392857Y-36603428D01*
X63321428Y-36460571D01*
X66718571Y-30889142D02*
X65218571Y-30889142D01*
X65218571Y-31460571D01*
X65290000Y-31603428D01*
X65361428Y-31674857D01*
X65504285Y-31746285D01*
X65718571Y-31746285D01*
X65861428Y-31674857D01*
X65932857Y-31603428D01*
X66004285Y-31460571D01*
X66004285Y-30889142D01*
X65218571Y-32674857D02*
X65218571Y-32817714D01*
X65290000Y-32960571D01*
X65361428Y-33032000D01*
X65504285Y-33103428D01*
X65790000Y-33174857D01*
X66147142Y-33174857D01*
X66432857Y-33103428D01*
X66575714Y-33032000D01*
X66647142Y-32960571D01*
X66718571Y-32817714D01*
X66718571Y-32674857D01*
X66647142Y-32532000D01*
X66575714Y-32460571D01*
X66432857Y-32389142D01*
X66147142Y-32317714D01*
X65790000Y-32317714D01*
X65504285Y-32389142D01*
X65361428Y-32460571D01*
X65290000Y-32532000D01*
X65218571Y-32674857D01*
X66575714Y-33817714D02*
X66647142Y-33889142D01*
X66718571Y-33817714D01*
X66647142Y-33746285D01*
X66575714Y-33817714D01*
X66718571Y-33817714D01*
X65361428Y-34460571D02*
X65290000Y-34532000D01*
X65218571Y-34674857D01*
X65218571Y-35032000D01*
X65290000Y-35174857D01*
X65361428Y-35246285D01*
X65504285Y-35317714D01*
X65647142Y-35317714D01*
X65861428Y-35246285D01*
X66718571Y-34389142D01*
X66718571Y-35317714D01*
X65218571Y-35817714D02*
X65218571Y-36817714D01*
X66718571Y-36174857D01*
X69258571Y-30889142D02*
X67758571Y-30889142D01*
X67758571Y-31460571D01*
X67830000Y-31603428D01*
X67901428Y-31674857D01*
X68044285Y-31746285D01*
X68258571Y-31746285D01*
X68401428Y-31674857D01*
X68472857Y-31603428D01*
X68544285Y-31460571D01*
X68544285Y-30889142D01*
X67758571Y-32674857D02*
X67758571Y-32817714D01*
X67830000Y-32960571D01*
X67901428Y-33032000D01*
X68044285Y-33103428D01*
X68330000Y-33174857D01*
X68687142Y-33174857D01*
X68972857Y-33103428D01*
X69115714Y-33032000D01*
X69187142Y-32960571D01*
X69258571Y-32817714D01*
X69258571Y-32674857D01*
X69187142Y-32532000D01*
X69115714Y-32460571D01*
X68972857Y-32389142D01*
X68687142Y-32317714D01*
X68330000Y-32317714D01*
X68044285Y-32389142D01*
X67901428Y-32460571D01*
X67830000Y-32532000D01*
X67758571Y-32674857D01*
X69115714Y-33817714D02*
X69187142Y-33889142D01*
X69258571Y-33817714D01*
X69187142Y-33746285D01*
X69115714Y-33817714D01*
X69258571Y-33817714D01*
X67901428Y-34460571D02*
X67830000Y-34532000D01*
X67758571Y-34674857D01*
X67758571Y-35032000D01*
X67830000Y-35174857D01*
X67901428Y-35246285D01*
X68044285Y-35317714D01*
X68187142Y-35317714D01*
X68401428Y-35246285D01*
X69258571Y-34389142D01*
X69258571Y-35317714D01*
X67758571Y-36603428D02*
X67758571Y-36317714D01*
X67830000Y-36174857D01*
X67901428Y-36103428D01*
X68115714Y-35960571D01*
X68401428Y-35889142D01*
X68972857Y-35889142D01*
X69115714Y-35960571D01*
X69187142Y-36032000D01*
X69258571Y-36174857D01*
X69258571Y-36460571D01*
X69187142Y-36603428D01*
X69115714Y-36674857D01*
X68972857Y-36746285D01*
X68615714Y-36746285D01*
X68472857Y-36674857D01*
X68401428Y-36603428D01*
X68330000Y-36460571D01*
X68330000Y-36174857D01*
X68401428Y-36032000D01*
X68472857Y-35960571D01*
X68615714Y-35889142D01*
X71798571Y-30889142D02*
X70298571Y-30889142D01*
X70298571Y-31460571D01*
X70370000Y-31603428D01*
X70441428Y-31674857D01*
X70584285Y-31746285D01*
X70798571Y-31746285D01*
X70941428Y-31674857D01*
X71012857Y-31603428D01*
X71084285Y-31460571D01*
X71084285Y-30889142D01*
X70298571Y-32674857D02*
X70298571Y-32817714D01*
X70370000Y-32960571D01*
X70441428Y-33032000D01*
X70584285Y-33103428D01*
X70870000Y-33174857D01*
X71227142Y-33174857D01*
X71512857Y-33103428D01*
X71655714Y-33032000D01*
X71727142Y-32960571D01*
X71798571Y-32817714D01*
X71798571Y-32674857D01*
X71727142Y-32532000D01*
X71655714Y-32460571D01*
X71512857Y-32389142D01*
X71227142Y-32317714D01*
X70870000Y-32317714D01*
X70584285Y-32389142D01*
X70441428Y-32460571D01*
X70370000Y-32532000D01*
X70298571Y-32674857D01*
X71655714Y-33817714D02*
X71727142Y-33889142D01*
X71798571Y-33817714D01*
X71727142Y-33746285D01*
X71655714Y-33817714D01*
X71798571Y-33817714D01*
X70441428Y-34460571D02*
X70370000Y-34532000D01*
X70298571Y-34674857D01*
X70298571Y-35032000D01*
X70370000Y-35174857D01*
X70441428Y-35246285D01*
X70584285Y-35317714D01*
X70727142Y-35317714D01*
X70941428Y-35246285D01*
X71798571Y-34389142D01*
X71798571Y-35317714D01*
X70298571Y-36674857D02*
X70298571Y-35960571D01*
X71012857Y-35889142D01*
X70941428Y-35960571D01*
X70870000Y-36103428D01*
X70870000Y-36460571D01*
X70941428Y-36603428D01*
X71012857Y-36674857D01*
X71155714Y-36746285D01*
X71512857Y-36746285D01*
X71655714Y-36674857D01*
X71727142Y-36603428D01*
X71798571Y-36460571D01*
X71798571Y-36103428D01*
X71727142Y-35960571D01*
X71655714Y-35889142D01*
D12*
G36*
X70235055Y-50010218D02*
X70259097Y-50087339D01*
X70296421Y-50156782D01*
X70345763Y-50217238D01*
X70405862Y-50267394D01*
X70475455Y-50305937D01*
X70541459Y-50328674D01*
X70590821Y-50337308D01*
X70648790Y-50341068D01*
X70708869Y-50339972D01*
X70764564Y-50334040D01*
X70793928Y-50327971D01*
X70870424Y-50300427D01*
X70939320Y-50260447D01*
X70999104Y-50209572D01*
X71048261Y-50149341D01*
X71085276Y-50081293D01*
X71108358Y-50008292D01*
X71117834Y-49942814D01*
X71116755Y-49880211D01*
X71107596Y-49823687D01*
X71083822Y-49749228D01*
X71047188Y-49682410D01*
X70999201Y-49624117D01*
X70941367Y-49575238D01*
X70875193Y-49536657D01*
X70802186Y-49509261D01*
X70723851Y-49493936D01*
X70641696Y-49491570D01*
X70561101Y-49502211D01*
X70483010Y-49526226D01*
X70412820Y-49562979D01*
X70351972Y-49611371D01*
X70301906Y-49670304D01*
X70270843Y-49723759D01*
X70241725Y-49796620D01*
X70226536Y-49866757D01*
X70224785Y-49938090D01*
X70235055Y-50010218D01*
X70235055Y-50010218D01*
G37*
X70235055Y-50010218D02*
X70259097Y-50087339D01*
X70296421Y-50156782D01*
X70345763Y-50217238D01*
X70405862Y-50267394D01*
X70475455Y-50305937D01*
X70541459Y-50328674D01*
X70590821Y-50337308D01*
X70648790Y-50341068D01*
X70708869Y-50339972D01*
X70764564Y-50334040D01*
X70793928Y-50327971D01*
X70870424Y-50300427D01*
X70939320Y-50260447D01*
X70999104Y-50209572D01*
X71048261Y-50149341D01*
X71085276Y-50081293D01*
X71108358Y-50008292D01*
X71117834Y-49942814D01*
X71116755Y-49880211D01*
X71107596Y-49823687D01*
X71083822Y-49749228D01*
X71047188Y-49682410D01*
X70999201Y-49624117D01*
X70941367Y-49575238D01*
X70875193Y-49536657D01*
X70802186Y-49509261D01*
X70723851Y-49493936D01*
X70641696Y-49491570D01*
X70561101Y-49502211D01*
X70483010Y-49526226D01*
X70412820Y-49562979D01*
X70351972Y-49611371D01*
X70301906Y-49670304D01*
X70270843Y-49723759D01*
X70241725Y-49796620D01*
X70226536Y-49866757D01*
X70224785Y-49938090D01*
X70235055Y-50010218D01*
G36*
X66257258Y-41558698D02*
X66260220Y-41586392D01*
X66263624Y-41621984D01*
X66266584Y-41656000D01*
X66284799Y-41785472D01*
X66318049Y-41911919D01*
X66366430Y-42035485D01*
X66430034Y-42156314D01*
X66508954Y-42274550D01*
X66603286Y-42390337D01*
X66713120Y-42503821D01*
X66838553Y-42615143D01*
X66940906Y-42695793D01*
X67046791Y-42772162D01*
X67165555Y-42852007D01*
X67294965Y-42933959D01*
X67432784Y-43016646D01*
X67576776Y-43098695D01*
X67724707Y-43178736D01*
X67748450Y-43191191D01*
X67790353Y-43213307D01*
X67827272Y-43233232D01*
X67856939Y-43249707D01*
X67877082Y-43261470D01*
X67885433Y-43267259D01*
X67885469Y-43267313D01*
X67880197Y-43272969D01*
X67862945Y-43284263D01*
X67835992Y-43299856D01*
X67801617Y-43318407D01*
X67776426Y-43331391D01*
X67578317Y-43435042D01*
X67395660Y-43537598D01*
X67228095Y-43639425D01*
X67075265Y-43740890D01*
X66936814Y-43842359D01*
X66812384Y-43944197D01*
X66701618Y-44046772D01*
X66604158Y-44150449D01*
X66519647Y-44255595D01*
X66447727Y-44362575D01*
X66388042Y-44471757D01*
X66340234Y-44583505D01*
X66303945Y-44698187D01*
X66278819Y-44816169D01*
X66270550Y-44874656D01*
X66266137Y-44910769D01*
X66261816Y-44944514D01*
X66258327Y-44970142D01*
X66257482Y-44975859D01*
X66252917Y-45005625D01*
X66694146Y-45005625D01*
X66776186Y-45005581D01*
X66853272Y-45005456D01*
X66923980Y-45005258D01*
X66986884Y-45004994D01*
X67040559Y-45004673D01*
X67083580Y-45004302D01*
X67114521Y-45003890D01*
X67131957Y-45003445D01*
X67135375Y-45003135D01*
X67136350Y-44994755D01*
X67138997Y-44973884D01*
X67142899Y-44943771D01*
X67147134Y-44911487D01*
X67162583Y-44825860D01*
X67186080Y-44747893D01*
X67219200Y-44674126D01*
X67263521Y-44601102D01*
X67320620Y-44525363D01*
X67326324Y-44518435D01*
X67366118Y-44472366D01*
X67406836Y-44429654D01*
X67451213Y-44387801D01*
X67501984Y-44344310D01*
X67561883Y-44296683D01*
X67605583Y-44263397D01*
X67667844Y-44217635D01*
X67731256Y-44173316D01*
X67797457Y-44129461D01*
X67868087Y-44085095D01*
X67944784Y-44039239D01*
X68029189Y-43990918D01*
X68122939Y-43939154D01*
X68227674Y-43882970D01*
X68345033Y-43821389D01*
X68361719Y-43812720D01*
X68418052Y-43783452D01*
X68471328Y-43755713D01*
X68519507Y-43730571D01*
X68560550Y-43709090D01*
X68592418Y-43692338D01*
X68613071Y-43681380D01*
X68617851Y-43678795D01*
X68651733Y-43660218D01*
X68789395Y-43730210D01*
X68926182Y-43800938D01*
X69059707Y-43872288D01*
X69187959Y-43943116D01*
X69308928Y-44012279D01*
X69420604Y-44078633D01*
X69520977Y-44141036D01*
X69584094Y-44182194D01*
X69668834Y-44240290D01*
X69742829Y-44294602D01*
X69809722Y-44348055D01*
X69873158Y-44403570D01*
X69936779Y-44464071D01*
X69942437Y-44469661D01*
X70012004Y-44542433D01*
X70068577Y-44610723D01*
X70113488Y-44676881D01*
X70148072Y-44743258D01*
X70173662Y-44812205D01*
X70191592Y-44886072D01*
X70197041Y-44918341D01*
X70210154Y-45005624D01*
X70657776Y-45005625D01*
X71105397Y-45005625D01*
X71100326Y-44924265D01*
X71093331Y-44836896D01*
X71083827Y-44761837D01*
X71071330Y-44695651D01*
X71063675Y-44664312D01*
X71030928Y-44560127D01*
X70988050Y-44458175D01*
X70934608Y-44358053D01*
X70870169Y-44259357D01*
X70794298Y-44161685D01*
X70706564Y-44064633D01*
X70606532Y-43967799D01*
X70493770Y-43870780D01*
X70367843Y-43773172D01*
X70228319Y-43674573D01*
X70074764Y-43574580D01*
X69906745Y-43472789D01*
X69723829Y-43368799D01*
X69596000Y-43299440D01*
X69556004Y-43278052D01*
X69521146Y-43259311D01*
X69493729Y-43244462D01*
X69476054Y-43234752D01*
X69470405Y-43231463D01*
X69475973Y-43227090D01*
X69493028Y-43216872D01*
X69518980Y-43202299D01*
X69551235Y-43184862D01*
X69553748Y-43183527D01*
X69688098Y-43111731D01*
X69809295Y-43045842D01*
X69918594Y-42985106D01*
X70017254Y-42928772D01*
X70106531Y-42876084D01*
X70187681Y-42826291D01*
X70261961Y-42778640D01*
X70330629Y-42732376D01*
X70394941Y-42686747D01*
X70445313Y-42649274D01*
X70578815Y-42540363D01*
X70697123Y-42428047D01*
X70800165Y-42312424D01*
X70887870Y-42193590D01*
X70960165Y-42071641D01*
X71016980Y-41946675D01*
X71056607Y-41825030D01*
X71062466Y-41799534D01*
X71069510Y-41763742D01*
X71077156Y-41721249D01*
X71084823Y-41675652D01*
X71091930Y-41630546D01*
X71097894Y-41589527D01*
X71102133Y-41556189D01*
X71104066Y-41534129D01*
X71104125Y-41531401D01*
X71101680Y-41529114D01*
X71093616Y-41527200D01*
X71078838Y-41525637D01*
X71056251Y-41524406D01*
X71024760Y-41523485D01*
X70983271Y-41522853D01*
X70930690Y-41522491D01*
X70865920Y-41522378D01*
X70787869Y-41522492D01*
X70695441Y-41522814D01*
X70657641Y-41522980D01*
X70211156Y-41525031D01*
X70201114Y-41596468D01*
X70188538Y-41666111D01*
X70170650Y-41727880D01*
X70145515Y-41786509D01*
X70111200Y-41846730D01*
X70079447Y-41894125D01*
X70029812Y-41958132D01*
X69970110Y-42023044D01*
X69899764Y-42089277D01*
X69818196Y-42157248D01*
X69724828Y-42227373D01*
X69619084Y-42300070D01*
X69500384Y-42375754D01*
X69368152Y-42454843D01*
X69221810Y-42537753D01*
X69081726Y-42613764D01*
X69025408Y-42643779D01*
X68967966Y-42674390D01*
X68912636Y-42703873D01*
X68862652Y-42730505D01*
X68821246Y-42752564D01*
X68799669Y-42764057D01*
X68705806Y-42814047D01*
X68490106Y-42704515D01*
X68333416Y-42623724D01*
X68190704Y-42547490D01*
X68060952Y-42475157D01*
X67943143Y-42406069D01*
X67836260Y-42339569D01*
X67739286Y-42275003D01*
X67651205Y-42211713D01*
X67570997Y-42149045D01*
X67497647Y-42086342D01*
X67430138Y-42022947D01*
X67424375Y-42017247D01*
X67354559Y-41944122D01*
X67297200Y-41875151D01*
X67250493Y-41807512D01*
X67212636Y-41738381D01*
X67181824Y-41664936D01*
X67163162Y-41608375D01*
X67138255Y-41525031D01*
X66695530Y-41522979D01*
X66252804Y-41520928D01*
X66257258Y-41558698D01*
X66257258Y-41558698D01*
G37*
X66257258Y-41558698D02*
X66260220Y-41586392D01*
X66263624Y-41621984D01*
X66266584Y-41656000D01*
X66284799Y-41785472D01*
X66318049Y-41911919D01*
X66366430Y-42035485D01*
X66430034Y-42156314D01*
X66508954Y-42274550D01*
X66603286Y-42390337D01*
X66713120Y-42503821D01*
X66838553Y-42615143D01*
X66940906Y-42695793D01*
X67046791Y-42772162D01*
X67165555Y-42852007D01*
X67294965Y-42933959D01*
X67432784Y-43016646D01*
X67576776Y-43098695D01*
X67724707Y-43178736D01*
X67748450Y-43191191D01*
X67790353Y-43213307D01*
X67827272Y-43233232D01*
X67856939Y-43249707D01*
X67877082Y-43261470D01*
X67885433Y-43267259D01*
X67885469Y-43267313D01*
X67880197Y-43272969D01*
X67862945Y-43284263D01*
X67835992Y-43299856D01*
X67801617Y-43318407D01*
X67776426Y-43331391D01*
X67578317Y-43435042D01*
X67395660Y-43537598D01*
X67228095Y-43639425D01*
X67075265Y-43740890D01*
X66936814Y-43842359D01*
X66812384Y-43944197D01*
X66701618Y-44046772D01*
X66604158Y-44150449D01*
X66519647Y-44255595D01*
X66447727Y-44362575D01*
X66388042Y-44471757D01*
X66340234Y-44583505D01*
X66303945Y-44698187D01*
X66278819Y-44816169D01*
X66270550Y-44874656D01*
X66266137Y-44910769D01*
X66261816Y-44944514D01*
X66258327Y-44970142D01*
X66257482Y-44975859D01*
X66252917Y-45005625D01*
X66694146Y-45005625D01*
X66776186Y-45005581D01*
X66853272Y-45005456D01*
X66923980Y-45005258D01*
X66986884Y-45004994D01*
X67040559Y-45004673D01*
X67083580Y-45004302D01*
X67114521Y-45003890D01*
X67131957Y-45003445D01*
X67135375Y-45003135D01*
X67136350Y-44994755D01*
X67138997Y-44973884D01*
X67142899Y-44943771D01*
X67147134Y-44911487D01*
X67162583Y-44825860D01*
X67186080Y-44747893D01*
X67219200Y-44674126D01*
X67263521Y-44601102D01*
X67320620Y-44525363D01*
X67326324Y-44518435D01*
X67366118Y-44472366D01*
X67406836Y-44429654D01*
X67451213Y-44387801D01*
X67501984Y-44344310D01*
X67561883Y-44296683D01*
X67605583Y-44263397D01*
X67667844Y-44217635D01*
X67731256Y-44173316D01*
X67797457Y-44129461D01*
X67868087Y-44085095D01*
X67944784Y-44039239D01*
X68029189Y-43990918D01*
X68122939Y-43939154D01*
X68227674Y-43882970D01*
X68345033Y-43821389D01*
X68361719Y-43812720D01*
X68418052Y-43783452D01*
X68471328Y-43755713D01*
X68519507Y-43730571D01*
X68560550Y-43709090D01*
X68592418Y-43692338D01*
X68613071Y-43681380D01*
X68617851Y-43678795D01*
X68651733Y-43660218D01*
X68789395Y-43730210D01*
X68926182Y-43800938D01*
X69059707Y-43872288D01*
X69187959Y-43943116D01*
X69308928Y-44012279D01*
X69420604Y-44078633D01*
X69520977Y-44141036D01*
X69584094Y-44182194D01*
X69668834Y-44240290D01*
X69742829Y-44294602D01*
X69809722Y-44348055D01*
X69873158Y-44403570D01*
X69936779Y-44464071D01*
X69942437Y-44469661D01*
X70012004Y-44542433D01*
X70068577Y-44610723D01*
X70113488Y-44676881D01*
X70148072Y-44743258D01*
X70173662Y-44812205D01*
X70191592Y-44886072D01*
X70197041Y-44918341D01*
X70210154Y-45005624D01*
X70657776Y-45005625D01*
X71105397Y-45005625D01*
X71100326Y-44924265D01*
X71093331Y-44836896D01*
X71083827Y-44761837D01*
X71071330Y-44695651D01*
X71063675Y-44664312D01*
X71030928Y-44560127D01*
X70988050Y-44458175D01*
X70934608Y-44358053D01*
X70870169Y-44259357D01*
X70794298Y-44161685D01*
X70706564Y-44064633D01*
X70606532Y-43967799D01*
X70493770Y-43870780D01*
X70367843Y-43773172D01*
X70228319Y-43674573D01*
X70074764Y-43574580D01*
X69906745Y-43472789D01*
X69723829Y-43368799D01*
X69596000Y-43299440D01*
X69556004Y-43278052D01*
X69521146Y-43259311D01*
X69493729Y-43244462D01*
X69476054Y-43234752D01*
X69470405Y-43231463D01*
X69475973Y-43227090D01*
X69493028Y-43216872D01*
X69518980Y-43202299D01*
X69551235Y-43184862D01*
X69553748Y-43183527D01*
X69688098Y-43111731D01*
X69809295Y-43045842D01*
X69918594Y-42985106D01*
X70017254Y-42928772D01*
X70106531Y-42876084D01*
X70187681Y-42826291D01*
X70261961Y-42778640D01*
X70330629Y-42732376D01*
X70394941Y-42686747D01*
X70445313Y-42649274D01*
X70578815Y-42540363D01*
X70697123Y-42428047D01*
X70800165Y-42312424D01*
X70887870Y-42193590D01*
X70960165Y-42071641D01*
X71016980Y-41946675D01*
X71056607Y-41825030D01*
X71062466Y-41799534D01*
X71069510Y-41763742D01*
X71077156Y-41721249D01*
X71084823Y-41675652D01*
X71091930Y-41630546D01*
X71097894Y-41589527D01*
X71102133Y-41556189D01*
X71104066Y-41534129D01*
X71104125Y-41531401D01*
X71101680Y-41529114D01*
X71093616Y-41527200D01*
X71078838Y-41525637D01*
X71056251Y-41524406D01*
X71024760Y-41523485D01*
X70983271Y-41522853D01*
X70930690Y-41522491D01*
X70865920Y-41522378D01*
X70787869Y-41522492D01*
X70695441Y-41522814D01*
X70657641Y-41522980D01*
X70211156Y-41525031D01*
X70201114Y-41596468D01*
X70188538Y-41666111D01*
X70170650Y-41727880D01*
X70145515Y-41786509D01*
X70111200Y-41846730D01*
X70079447Y-41894125D01*
X70029812Y-41958132D01*
X69970110Y-42023044D01*
X69899764Y-42089277D01*
X69818196Y-42157248D01*
X69724828Y-42227373D01*
X69619084Y-42300070D01*
X69500384Y-42375754D01*
X69368152Y-42454843D01*
X69221810Y-42537753D01*
X69081726Y-42613764D01*
X69025408Y-42643779D01*
X68967966Y-42674390D01*
X68912636Y-42703873D01*
X68862652Y-42730505D01*
X68821246Y-42752564D01*
X68799669Y-42764057D01*
X68705806Y-42814047D01*
X68490106Y-42704515D01*
X68333416Y-42623724D01*
X68190704Y-42547490D01*
X68060952Y-42475157D01*
X67943143Y-42406069D01*
X67836260Y-42339569D01*
X67739286Y-42275003D01*
X67651205Y-42211713D01*
X67570997Y-42149045D01*
X67497647Y-42086342D01*
X67430138Y-42022947D01*
X67424375Y-42017247D01*
X67354559Y-41944122D01*
X67297200Y-41875151D01*
X67250493Y-41807512D01*
X67212636Y-41738381D01*
X67181824Y-41664936D01*
X67163162Y-41608375D01*
X67138255Y-41525031D01*
X66695530Y-41522979D01*
X66252804Y-41520928D01*
X66257258Y-41558698D01*
G36*
X67429863Y-52367796D02*
X67431204Y-52431976D01*
X67433501Y-52488776D01*
X67436757Y-52534323D01*
X67437156Y-52538312D01*
X67458183Y-52692564D01*
X67488911Y-52847100D01*
X67528376Y-52998304D01*
X67575615Y-53142562D01*
X67629662Y-53276262D01*
X67640110Y-53299079D01*
X67656872Y-53333054D01*
X67678339Y-53373774D01*
X67702458Y-53417625D01*
X67727175Y-53460990D01*
X67750438Y-53500255D01*
X67770193Y-53531802D01*
X67781887Y-53548781D01*
X67785319Y-53551969D01*
X67790647Y-53553321D01*
X67799201Y-53552260D01*
X67812309Y-53548210D01*
X67831300Y-53540594D01*
X67857502Y-53528836D01*
X67892245Y-53512358D01*
X67936856Y-53490584D01*
X67992666Y-53462938D01*
X68061001Y-53428843D01*
X68079068Y-53419809D01*
X68365550Y-53276525D01*
X68337168Y-53226903D01*
X68253325Y-53064887D01*
X68182102Y-52894724D01*
X68124406Y-52718984D01*
X68081145Y-52540239D01*
X68067177Y-52462906D01*
X68060051Y-52406127D01*
X68055349Y-52341441D01*
X68053068Y-52272836D01*
X68053206Y-52204302D01*
X68055762Y-52139828D01*
X68060734Y-52083404D01*
X68067398Y-52042218D01*
X68091848Y-51956141D01*
X68124653Y-51883051D01*
X68165636Y-51823148D01*
X68214618Y-51776631D01*
X68271422Y-51743698D01*
X68335869Y-51724549D01*
X68354346Y-51721793D01*
X68428308Y-51719722D01*
X68495853Y-51732148D01*
X68557177Y-51759138D01*
X68612476Y-51800757D01*
X68624159Y-51812196D01*
X68651942Y-51843226D01*
X68678240Y-51878364D01*
X68703638Y-51918940D01*
X68728721Y-51966280D01*
X68754074Y-52021713D01*
X68780282Y-52086567D01*
X68807931Y-52162169D01*
X68837607Y-52249849D01*
X68869893Y-52350933D01*
X68889390Y-52414082D01*
X68920234Y-52514239D01*
X68947434Y-52600846D01*
X68971578Y-52675655D01*
X68993256Y-52740418D01*
X69013056Y-52796885D01*
X69031567Y-52846808D01*
X69049377Y-52891937D01*
X69053229Y-52901321D01*
X69115563Y-53037721D01*
X69183733Y-53159385D01*
X69257775Y-53266356D01*
X69337724Y-53358674D01*
X69423618Y-53436381D01*
X69515490Y-53499519D01*
X69609543Y-53546545D01*
X69714971Y-53582797D01*
X69826708Y-53607169D01*
X69942264Y-53619778D01*
X70059152Y-53620741D01*
X70174882Y-53610176D01*
X70286966Y-53588198D01*
X70392916Y-53554926D01*
X70490242Y-53510477D01*
X70500875Y-53504594D01*
X70601781Y-53438628D01*
X70693729Y-53359941D01*
X70776495Y-53269072D01*
X70849856Y-53166557D01*
X70913587Y-53052932D01*
X70967465Y-52928735D01*
X71011265Y-52794501D01*
X71044764Y-52650769D01*
X71067738Y-52498075D01*
X71079962Y-52336955D01*
X71081213Y-52167947D01*
X71079495Y-52117625D01*
X71066686Y-51957529D01*
X71042475Y-51796484D01*
X71007582Y-51636826D01*
X70962725Y-51480894D01*
X70908626Y-51331027D01*
X70846003Y-51189563D01*
X70775578Y-51058840D01*
X70732533Y-50990500D01*
X70700644Y-50944032D01*
X70669379Y-50900835D01*
X70640443Y-50863088D01*
X70615542Y-50832967D01*
X70596382Y-50812652D01*
X70587902Y-50805791D01*
X70580647Y-50805682D01*
X70565557Y-50810167D01*
X70541668Y-50819683D01*
X70508016Y-50834664D01*
X70463639Y-50855548D01*
X70407571Y-50882768D01*
X70338850Y-50916762D01*
X70304136Y-50934087D01*
X70243575Y-50964489D01*
X70187713Y-50992743D01*
X70138090Y-51018056D01*
X70096247Y-51039633D01*
X70063724Y-51056677D01*
X70042060Y-51068396D01*
X70032795Y-51073992D01*
X70032563Y-51074289D01*
X70037188Y-51082058D01*
X70049527Y-51099020D01*
X70067278Y-51122054D01*
X70075014Y-51131814D01*
X70146487Y-51229563D01*
X70211754Y-51335292D01*
X70270498Y-51447469D01*
X70322402Y-51564561D01*
X70367151Y-51685033D01*
X70404427Y-51807353D01*
X70433914Y-51929989D01*
X70455295Y-52051406D01*
X70468255Y-52170071D01*
X70472476Y-52284452D01*
X70467643Y-52393016D01*
X70453438Y-52494229D01*
X70429545Y-52586558D01*
X70395648Y-52668470D01*
X70393206Y-52673179D01*
X70360554Y-52723903D01*
X70319314Y-52770527D01*
X70273242Y-52809465D01*
X70226096Y-52837132D01*
X70217641Y-52840696D01*
X70170937Y-52853354D01*
X70115661Y-52859470D01*
X70057717Y-52859019D01*
X70003009Y-52851973D01*
X69966204Y-52841817D01*
X69909227Y-52814739D01*
X69857423Y-52776931D01*
X69809628Y-52727154D01*
X69764681Y-52664168D01*
X69721419Y-52586733D01*
X69715118Y-52574031D01*
X69696839Y-52535752D01*
X69680084Y-52498411D01*
X69664087Y-52459875D01*
X69648083Y-52418014D01*
X69631304Y-52370695D01*
X69612984Y-52315785D01*
X69592356Y-52251152D01*
X69568654Y-52174666D01*
X69552455Y-52121593D01*
X69522503Y-52023866D01*
X69496027Y-51939442D01*
X69472301Y-51866314D01*
X69450601Y-51802474D01*
X69430201Y-51745917D01*
X69410378Y-51694635D01*
X69390405Y-51646621D01*
X69369558Y-51599870D01*
X69347113Y-51552374D01*
X69346008Y-51550093D01*
X69286448Y-51440376D01*
X69219077Y-51340069D01*
X69145301Y-51250979D01*
X69066529Y-51174914D01*
X69032438Y-51147395D01*
X68947673Y-51092293D01*
X68852349Y-51047369D01*
X68748501Y-51013141D01*
X68638168Y-50990126D01*
X68523388Y-50978843D01*
X68406196Y-50979808D01*
X68380488Y-50981699D01*
X68260446Y-50997836D01*
X68149838Y-51025292D01*
X68046241Y-51064830D01*
X67947232Y-51117213D01*
X67944403Y-51118933D01*
X67899738Y-51150056D01*
X67849981Y-51191186D01*
X67798579Y-51238944D01*
X67748976Y-51289952D01*
X67704618Y-51340832D01*
X67668951Y-51388207D01*
X67667385Y-51390531D01*
X67606949Y-51492761D01*
X67553878Y-51607019D01*
X67508995Y-51730868D01*
X67473122Y-51861873D01*
X67447081Y-51997598D01*
X67437433Y-52071671D01*
X67434024Y-52114687D01*
X67431560Y-52169680D01*
X67430044Y-52232776D01*
X67429477Y-52300105D01*
X67429863Y-52367796D01*
X67429863Y-52367796D01*
G37*
X67429863Y-52367796D02*
X67431204Y-52431976D01*
X67433501Y-52488776D01*
X67436757Y-52534323D01*
X67437156Y-52538312D01*
X67458183Y-52692564D01*
X67488911Y-52847100D01*
X67528376Y-52998304D01*
X67575615Y-53142562D01*
X67629662Y-53276262D01*
X67640110Y-53299079D01*
X67656872Y-53333054D01*
X67678339Y-53373774D01*
X67702458Y-53417625D01*
X67727175Y-53460990D01*
X67750438Y-53500255D01*
X67770193Y-53531802D01*
X67781887Y-53548781D01*
X67785319Y-53551969D01*
X67790647Y-53553321D01*
X67799201Y-53552260D01*
X67812309Y-53548210D01*
X67831300Y-53540594D01*
X67857502Y-53528836D01*
X67892245Y-53512358D01*
X67936856Y-53490584D01*
X67992666Y-53462938D01*
X68061001Y-53428843D01*
X68079068Y-53419809D01*
X68365550Y-53276525D01*
X68337168Y-53226903D01*
X68253325Y-53064887D01*
X68182102Y-52894724D01*
X68124406Y-52718984D01*
X68081145Y-52540239D01*
X68067177Y-52462906D01*
X68060051Y-52406127D01*
X68055349Y-52341441D01*
X68053068Y-52272836D01*
X68053206Y-52204302D01*
X68055762Y-52139828D01*
X68060734Y-52083404D01*
X68067398Y-52042218D01*
X68091848Y-51956141D01*
X68124653Y-51883051D01*
X68165636Y-51823148D01*
X68214618Y-51776631D01*
X68271422Y-51743698D01*
X68335869Y-51724549D01*
X68354346Y-51721793D01*
X68428308Y-51719722D01*
X68495853Y-51732148D01*
X68557177Y-51759138D01*
X68612476Y-51800757D01*
X68624159Y-51812196D01*
X68651942Y-51843226D01*
X68678240Y-51878364D01*
X68703638Y-51918940D01*
X68728721Y-51966280D01*
X68754074Y-52021713D01*
X68780282Y-52086567D01*
X68807931Y-52162169D01*
X68837607Y-52249849D01*
X68869893Y-52350933D01*
X68889390Y-52414082D01*
X68920234Y-52514239D01*
X68947434Y-52600846D01*
X68971578Y-52675655D01*
X68993256Y-52740418D01*
X69013056Y-52796885D01*
X69031567Y-52846808D01*
X69049377Y-52891937D01*
X69053229Y-52901321D01*
X69115563Y-53037721D01*
X69183733Y-53159385D01*
X69257775Y-53266356D01*
X69337724Y-53358674D01*
X69423618Y-53436381D01*
X69515490Y-53499519D01*
X69609543Y-53546545D01*
X69714971Y-53582797D01*
X69826708Y-53607169D01*
X69942264Y-53619778D01*
X70059152Y-53620741D01*
X70174882Y-53610176D01*
X70286966Y-53588198D01*
X70392916Y-53554926D01*
X70490242Y-53510477D01*
X70500875Y-53504594D01*
X70601781Y-53438628D01*
X70693729Y-53359941D01*
X70776495Y-53269072D01*
X70849856Y-53166557D01*
X70913587Y-53052932D01*
X70967465Y-52928735D01*
X71011265Y-52794501D01*
X71044764Y-52650769D01*
X71067738Y-52498075D01*
X71079962Y-52336955D01*
X71081213Y-52167947D01*
X71079495Y-52117625D01*
X71066686Y-51957529D01*
X71042475Y-51796484D01*
X71007582Y-51636826D01*
X70962725Y-51480894D01*
X70908626Y-51331027D01*
X70846003Y-51189563D01*
X70775578Y-51058840D01*
X70732533Y-50990500D01*
X70700644Y-50944032D01*
X70669379Y-50900835D01*
X70640443Y-50863088D01*
X70615542Y-50832967D01*
X70596382Y-50812652D01*
X70587902Y-50805791D01*
X70580647Y-50805682D01*
X70565557Y-50810167D01*
X70541668Y-50819683D01*
X70508016Y-50834664D01*
X70463639Y-50855548D01*
X70407571Y-50882768D01*
X70338850Y-50916762D01*
X70304136Y-50934087D01*
X70243575Y-50964489D01*
X70187713Y-50992743D01*
X70138090Y-51018056D01*
X70096247Y-51039633D01*
X70063724Y-51056677D01*
X70042060Y-51068396D01*
X70032795Y-51073992D01*
X70032563Y-51074289D01*
X70037188Y-51082058D01*
X70049527Y-51099020D01*
X70067278Y-51122054D01*
X70075014Y-51131814D01*
X70146487Y-51229563D01*
X70211754Y-51335292D01*
X70270498Y-51447469D01*
X70322402Y-51564561D01*
X70367151Y-51685033D01*
X70404427Y-51807353D01*
X70433914Y-51929989D01*
X70455295Y-52051406D01*
X70468255Y-52170071D01*
X70472476Y-52284452D01*
X70467643Y-52393016D01*
X70453438Y-52494229D01*
X70429545Y-52586558D01*
X70395648Y-52668470D01*
X70393206Y-52673179D01*
X70360554Y-52723903D01*
X70319314Y-52770527D01*
X70273242Y-52809465D01*
X70226096Y-52837132D01*
X70217641Y-52840696D01*
X70170937Y-52853354D01*
X70115661Y-52859470D01*
X70057717Y-52859019D01*
X70003009Y-52851973D01*
X69966204Y-52841817D01*
X69909227Y-52814739D01*
X69857423Y-52776931D01*
X69809628Y-52727154D01*
X69764681Y-52664168D01*
X69721419Y-52586733D01*
X69715118Y-52574031D01*
X69696839Y-52535752D01*
X69680084Y-52498411D01*
X69664087Y-52459875D01*
X69648083Y-52418014D01*
X69631304Y-52370695D01*
X69612984Y-52315785D01*
X69592356Y-52251152D01*
X69568654Y-52174666D01*
X69552455Y-52121593D01*
X69522503Y-52023866D01*
X69496027Y-51939442D01*
X69472301Y-51866314D01*
X69450601Y-51802474D01*
X69430201Y-51745917D01*
X69410378Y-51694635D01*
X69390405Y-51646621D01*
X69369558Y-51599870D01*
X69347113Y-51552374D01*
X69346008Y-51550093D01*
X69286448Y-51440376D01*
X69219077Y-51340069D01*
X69145301Y-51250979D01*
X69066529Y-51174914D01*
X69032438Y-51147395D01*
X68947673Y-51092293D01*
X68852349Y-51047369D01*
X68748501Y-51013141D01*
X68638168Y-50990126D01*
X68523388Y-50978843D01*
X68406196Y-50979808D01*
X68380488Y-50981699D01*
X68260446Y-50997836D01*
X68149838Y-51025292D01*
X68046241Y-51064830D01*
X67947232Y-51117213D01*
X67944403Y-51118933D01*
X67899738Y-51150056D01*
X67849981Y-51191186D01*
X67798579Y-51238944D01*
X67748976Y-51289952D01*
X67704618Y-51340832D01*
X67668951Y-51388207D01*
X67667385Y-51390531D01*
X67606949Y-51492761D01*
X67553878Y-51607019D01*
X67508995Y-51730868D01*
X67473122Y-51861873D01*
X67447081Y-51997598D01*
X67437433Y-52071671D01*
X67434024Y-52114687D01*
X67431560Y-52169680D01*
X67430044Y-52232776D01*
X67429477Y-52300105D01*
X67429863Y-52367796D01*
G36*
X67438533Y-56055288D02*
X67454686Y-56220171D01*
X67482337Y-56379167D01*
X67496416Y-56439593D01*
X67537420Y-56580166D01*
X67587180Y-56708699D01*
X67646690Y-56826999D01*
X67716942Y-56936872D01*
X67798930Y-57040127D01*
X67865191Y-57110793D01*
X67963982Y-57200768D01*
X68070532Y-57280436D01*
X68185757Y-57350202D01*
X68310573Y-57410470D01*
X68445895Y-57461644D01*
X68592639Y-57504127D01*
X68751722Y-57538324D01*
X68881625Y-57559045D01*
X68920387Y-57563227D01*
X68971943Y-57567060D01*
X69033211Y-57570460D01*
X69101112Y-57573346D01*
X69172567Y-57575635D01*
X69244494Y-57577246D01*
X69313816Y-57578097D01*
X69377451Y-57578104D01*
X69432319Y-57577187D01*
X69475342Y-57575262D01*
X69479285Y-57574980D01*
X69556313Y-57569205D01*
X69556313Y-54854295D01*
X69583429Y-54859382D01*
X69626005Y-54869829D01*
X69678267Y-54886502D01*
X69736054Y-54907862D01*
X69795208Y-54932365D01*
X69851569Y-54958471D01*
X69853969Y-54959657D01*
X69967548Y-55024493D01*
X70070503Y-55100901D01*
X70162369Y-55188255D01*
X70242679Y-55285927D01*
X70310968Y-55393291D01*
X70366770Y-55509720D01*
X70409620Y-55634587D01*
X70434440Y-55741093D01*
X70440655Y-55785868D01*
X70445230Y-55842360D01*
X70448126Y-55906494D01*
X70449307Y-55974193D01*
X70448733Y-56041382D01*
X70446368Y-56103984D01*
X70442173Y-56157923D01*
X70438578Y-56185593D01*
X70408145Y-56330542D01*
X70364407Y-56469734D01*
X70307991Y-56601843D01*
X70239523Y-56725540D01*
X70159630Y-56839499D01*
X70093384Y-56916925D01*
X70070770Y-56942213D01*
X70053337Y-56963658D01*
X70043295Y-56978423D01*
X70041791Y-56983130D01*
X70047998Y-56990202D01*
X70064500Y-57006866D01*
X70090001Y-57031866D01*
X70123203Y-57063950D01*
X70162807Y-57101863D01*
X70207517Y-57144353D01*
X70256033Y-57190165D01*
X70258781Y-57192751D01*
X70473094Y-57394424D01*
X70539224Y-57329759D01*
X70647327Y-57213027D01*
X70744080Y-57085664D01*
X70829234Y-56948386D01*
X70902539Y-56801910D01*
X70963746Y-56646953D01*
X71012604Y-56484233D01*
X71048864Y-56314466D01*
X71072276Y-56138371D01*
X71082591Y-55956664D01*
X71079899Y-55776812D01*
X71064237Y-55601762D01*
X71035032Y-55433095D01*
X70992617Y-55271394D01*
X70937326Y-55117240D01*
X70869493Y-54971218D01*
X70789452Y-54833908D01*
X70697534Y-54705894D01*
X70594075Y-54587757D01*
X70479407Y-54480081D01*
X70353864Y-54383448D01*
X70240995Y-54311669D01*
X70113478Y-54245548D01*
X69974783Y-54188353D01*
X69827404Y-54140938D01*
X69673832Y-54104155D01*
X69592031Y-54089462D01*
X69549049Y-54084171D01*
X69493655Y-54079696D01*
X69429296Y-54076112D01*
X69359417Y-54073494D01*
X69287465Y-54071918D01*
X69216887Y-54071458D01*
X69151127Y-54072191D01*
X69093633Y-54074191D01*
X69047851Y-54077534D01*
X69047584Y-54077562D01*
X68978859Y-54087496D01*
X68978859Y-54840359D01*
X68979592Y-54848119D01*
X68980299Y-54870819D01*
X68980974Y-54907525D01*
X68981613Y-54957300D01*
X68982210Y-55019212D01*
X68982759Y-55092323D01*
X68983254Y-55175700D01*
X68983692Y-55268408D01*
X68984065Y-55369511D01*
X68984369Y-55478076D01*
X68984598Y-55593166D01*
X68984747Y-55713847D01*
X68984811Y-55839184D01*
X68984813Y-55865263D01*
X68984813Y-56890340D01*
X68912972Y-56884917D01*
X68873961Y-56880450D01*
X68826787Y-56872793D01*
X68778532Y-56863178D01*
X68750373Y-56856572D01*
X68632013Y-56819255D01*
X68523798Y-56769806D01*
X68426004Y-56708527D01*
X68338908Y-56635721D01*
X68262786Y-56551691D01*
X68197915Y-56456739D01*
X68144569Y-56351167D01*
X68103027Y-56235278D01*
X68074938Y-56116946D01*
X68067457Y-56062440D01*
X68062566Y-55997048D01*
X68060264Y-55925363D01*
X68060551Y-55851982D01*
X68063428Y-55781496D01*
X68068895Y-55718503D01*
X68074943Y-55677593D01*
X68106152Y-55550592D01*
X68150402Y-55432454D01*
X68207324Y-55323545D01*
X68276551Y-55224232D01*
X68357713Y-55134880D01*
X68450443Y-55055856D01*
X68554371Y-54987525D01*
X68669130Y-54930255D01*
X68794350Y-54884410D01*
X68901469Y-54856283D01*
X68933457Y-54849346D01*
X68959448Y-54843928D01*
X68975639Y-54840810D01*
X68978859Y-54840359D01*
X68978859Y-54087496D01*
X68870712Y-54103129D01*
X68702299Y-54141814D01*
X68542597Y-54193458D01*
X68391858Y-54257899D01*
X68250333Y-54334977D01*
X68118274Y-54424531D01*
X67995935Y-54526399D01*
X67883566Y-54640421D01*
X67781420Y-54766437D01*
X67689749Y-54904284D01*
X67653597Y-54967187D01*
X67623198Y-55027569D01*
X67591707Y-55099111D01*
X67560806Y-55177340D01*
X67532179Y-55257784D01*
X67507506Y-55335971D01*
X67489344Y-55403750D01*
X67459282Y-55558751D01*
X67440808Y-55721236D01*
X67433899Y-55887863D01*
X67438533Y-56055288D01*
X67438533Y-56055288D01*
G37*
X67438533Y-56055288D02*
X67454686Y-56220171D01*
X67482337Y-56379167D01*
X67496416Y-56439593D01*
X67537420Y-56580166D01*
X67587180Y-56708699D01*
X67646690Y-56826999D01*
X67716942Y-56936872D01*
X67798930Y-57040127D01*
X67865191Y-57110793D01*
X67963982Y-57200768D01*
X68070532Y-57280436D01*
X68185757Y-57350202D01*
X68310573Y-57410470D01*
X68445895Y-57461644D01*
X68592639Y-57504127D01*
X68751722Y-57538324D01*
X68881625Y-57559045D01*
X68920387Y-57563227D01*
X68971943Y-57567060D01*
X69033211Y-57570460D01*
X69101112Y-57573346D01*
X69172567Y-57575635D01*
X69244494Y-57577246D01*
X69313816Y-57578097D01*
X69377451Y-57578104D01*
X69432319Y-57577187D01*
X69475342Y-57575262D01*
X69479285Y-57574980D01*
X69556313Y-57569205D01*
X69556313Y-54854295D01*
X69583429Y-54859382D01*
X69626005Y-54869829D01*
X69678267Y-54886502D01*
X69736054Y-54907862D01*
X69795208Y-54932365D01*
X69851569Y-54958471D01*
X69853969Y-54959657D01*
X69967548Y-55024493D01*
X70070503Y-55100901D01*
X70162369Y-55188255D01*
X70242679Y-55285927D01*
X70310968Y-55393291D01*
X70366770Y-55509720D01*
X70409620Y-55634587D01*
X70434440Y-55741093D01*
X70440655Y-55785868D01*
X70445230Y-55842360D01*
X70448126Y-55906494D01*
X70449307Y-55974193D01*
X70448733Y-56041382D01*
X70446368Y-56103984D01*
X70442173Y-56157923D01*
X70438578Y-56185593D01*
X70408145Y-56330542D01*
X70364407Y-56469734D01*
X70307991Y-56601843D01*
X70239523Y-56725540D01*
X70159630Y-56839499D01*
X70093384Y-56916925D01*
X70070770Y-56942213D01*
X70053337Y-56963658D01*
X70043295Y-56978423D01*
X70041791Y-56983130D01*
X70047998Y-56990202D01*
X70064500Y-57006866D01*
X70090001Y-57031866D01*
X70123203Y-57063950D01*
X70162807Y-57101863D01*
X70207517Y-57144353D01*
X70256033Y-57190165D01*
X70258781Y-57192751D01*
X70473094Y-57394424D01*
X70539224Y-57329759D01*
X70647327Y-57213027D01*
X70744080Y-57085664D01*
X70829234Y-56948386D01*
X70902539Y-56801910D01*
X70963746Y-56646953D01*
X71012604Y-56484233D01*
X71048864Y-56314466D01*
X71072276Y-56138371D01*
X71082591Y-55956664D01*
X71079899Y-55776812D01*
X71064237Y-55601762D01*
X71035032Y-55433095D01*
X70992617Y-55271394D01*
X70937326Y-55117240D01*
X70869493Y-54971218D01*
X70789452Y-54833908D01*
X70697534Y-54705894D01*
X70594075Y-54587757D01*
X70479407Y-54480081D01*
X70353864Y-54383448D01*
X70240995Y-54311669D01*
X70113478Y-54245548D01*
X69974783Y-54188353D01*
X69827404Y-54140938D01*
X69673832Y-54104155D01*
X69592031Y-54089462D01*
X69549049Y-54084171D01*
X69493655Y-54079696D01*
X69429296Y-54076112D01*
X69359417Y-54073494D01*
X69287465Y-54071918D01*
X69216887Y-54071458D01*
X69151127Y-54072191D01*
X69093633Y-54074191D01*
X69047851Y-54077534D01*
X69047584Y-54077562D01*
X68978859Y-54087496D01*
X68978859Y-54840359D01*
X68979592Y-54848119D01*
X68980299Y-54870819D01*
X68980974Y-54907525D01*
X68981613Y-54957300D01*
X68982210Y-55019212D01*
X68982759Y-55092323D01*
X68983254Y-55175700D01*
X68983692Y-55268408D01*
X68984065Y-55369511D01*
X68984369Y-55478076D01*
X68984598Y-55593166D01*
X68984747Y-55713847D01*
X68984811Y-55839184D01*
X68984813Y-55865263D01*
X68984813Y-56890340D01*
X68912972Y-56884917D01*
X68873961Y-56880450D01*
X68826787Y-56872793D01*
X68778532Y-56863178D01*
X68750373Y-56856572D01*
X68632013Y-56819255D01*
X68523798Y-56769806D01*
X68426004Y-56708527D01*
X68338908Y-56635721D01*
X68262786Y-56551691D01*
X68197915Y-56456739D01*
X68144569Y-56351167D01*
X68103027Y-56235278D01*
X68074938Y-56116946D01*
X68067457Y-56062440D01*
X68062566Y-55997048D01*
X68060264Y-55925363D01*
X68060551Y-55851982D01*
X68063428Y-55781496D01*
X68068895Y-55718503D01*
X68074943Y-55677593D01*
X68106152Y-55550592D01*
X68150402Y-55432454D01*
X68207324Y-55323545D01*
X68276551Y-55224232D01*
X68357713Y-55134880D01*
X68450443Y-55055856D01*
X68554371Y-54987525D01*
X68669130Y-54930255D01*
X68794350Y-54884410D01*
X68901469Y-54856283D01*
X68933457Y-54849346D01*
X68959448Y-54843928D01*
X68975639Y-54840810D01*
X68978859Y-54840359D01*
X68978859Y-54087496D01*
X68870712Y-54103129D01*
X68702299Y-54141814D01*
X68542597Y-54193458D01*
X68391858Y-54257899D01*
X68250333Y-54334977D01*
X68118274Y-54424531D01*
X67995935Y-54526399D01*
X67883566Y-54640421D01*
X67781420Y-54766437D01*
X67689749Y-54904284D01*
X67653597Y-54967187D01*
X67623198Y-55027569D01*
X67591707Y-55099111D01*
X67560806Y-55177340D01*
X67532179Y-55257784D01*
X67507506Y-55335971D01*
X67489344Y-55403750D01*
X67459282Y-55558751D01*
X67440808Y-55721236D01*
X67433899Y-55887863D01*
X67438533Y-56055288D01*
G36*
X71056500Y-46616937D02*
X71056500Y-45839062D01*
X67460813Y-45839062D01*
X67460813Y-46616937D01*
X71056500Y-46616937D01*
X71056500Y-46616937D01*
G37*
X71056500Y-46616937D02*
X71056500Y-45839062D01*
X67460813Y-45839062D01*
X67460813Y-46616937D01*
X71056500Y-46616937D01*
G36*
X71056500Y-48569562D02*
X71056500Y-47791687D01*
X66040000Y-47791687D01*
X66040000Y-48569562D01*
X71056500Y-48569562D01*
X71056500Y-48569562D01*
G37*
X71056500Y-48569562D02*
X71056500Y-47791687D01*
X66040000Y-47791687D01*
X66040000Y-48569562D01*
X71056500Y-48569562D01*
G36*
X65968689Y-46312402D02*
X65989902Y-46390807D01*
X66012629Y-46442045D01*
X66055542Y-46507625D01*
X66108701Y-46562792D01*
X66170265Y-46607423D01*
X66238390Y-46641395D01*
X66311235Y-46664585D01*
X66386958Y-46676870D01*
X66463715Y-46678126D01*
X66539664Y-46668230D01*
X66612963Y-46647059D01*
X66681769Y-46614490D01*
X66744241Y-46570400D01*
X66798535Y-46514665D01*
X66813012Y-46495574D01*
X66847413Y-46441592D01*
X66871179Y-46389169D01*
X66885901Y-46333375D01*
X66893171Y-46269279D01*
X66894252Y-46243875D01*
X66894362Y-46187907D01*
X66891434Y-46141808D01*
X66886309Y-46111097D01*
X66859115Y-46035212D01*
X66818531Y-45965963D01*
X66766231Y-45904979D01*
X66703890Y-45853892D01*
X66633184Y-45814332D01*
X66555786Y-45787930D01*
X66553911Y-45787484D01*
X66508883Y-45780170D01*
X66455477Y-45776545D01*
X66399681Y-45776606D01*
X66347478Y-45780350D01*
X66305590Y-45787588D01*
X66231766Y-45813273D01*
X66162431Y-45850731D01*
X66100490Y-45897836D01*
X66048848Y-45952464D01*
X66018215Y-45997812D01*
X65985750Y-46070791D01*
X65966649Y-46149487D01*
X65960950Y-46230993D01*
X65968689Y-46312402D01*
X65968689Y-46312402D01*
G37*
X65968689Y-46312402D02*
X65989902Y-46390807D01*
X66012629Y-46442045D01*
X66055542Y-46507625D01*
X66108701Y-46562792D01*
X66170265Y-46607423D01*
X66238390Y-46641395D01*
X66311235Y-46664585D01*
X66386958Y-46676870D01*
X66463715Y-46678126D01*
X66539664Y-46668230D01*
X66612963Y-46647059D01*
X66681769Y-46614490D01*
X66744241Y-46570400D01*
X66798535Y-46514665D01*
X66813012Y-46495574D01*
X66847413Y-46441592D01*
X66871179Y-46389169D01*
X66885901Y-46333375D01*
X66893171Y-46269279D01*
X66894252Y-46243875D01*
X66894362Y-46187907D01*
X66891434Y-46141808D01*
X66886309Y-46111097D01*
X66859115Y-46035212D01*
X66818531Y-45965963D01*
X66766231Y-45904979D01*
X66703890Y-45853892D01*
X66633184Y-45814332D01*
X66555786Y-45787930D01*
X66553911Y-45787484D01*
X66508883Y-45780170D01*
X66455477Y-45776545D01*
X66399681Y-45776606D01*
X66347478Y-45780350D01*
X66305590Y-45787588D01*
X66231766Y-45813273D01*
X66162431Y-45850731D01*
X66100490Y-45897836D01*
X66048848Y-45952464D01*
X66018215Y-45997812D01*
X65985750Y-46070791D01*
X65966649Y-46149487D01*
X65960950Y-46230993D01*
X65968689Y-46312402D01*
G36*
X58432133Y-46710203D02*
X58441968Y-46825005D01*
X58454292Y-46927824D01*
X58469813Y-47022452D01*
X58489242Y-47112680D01*
X58513287Y-47202301D01*
X58540155Y-47287656D01*
X58585085Y-47409534D01*
X58637810Y-47529038D01*
X58698821Y-47646668D01*
X58768612Y-47762925D01*
X58847674Y-47878312D01*
X58936500Y-47993327D01*
X59035580Y-48108474D01*
X59145408Y-48224252D01*
X59266475Y-48341163D01*
X59399274Y-48459708D01*
X59544296Y-48580388D01*
X59702033Y-48703703D01*
X59872977Y-48830155D01*
X60057622Y-48960246D01*
X60256457Y-49094475D01*
X60418242Y-49200130D01*
X60563077Y-49293480D01*
X60422210Y-49381075D01*
X60212074Y-49514566D01*
X60016747Y-49644568D01*
X59835664Y-49771551D01*
X59668262Y-49895983D01*
X59513976Y-50018333D01*
X59372240Y-50139068D01*
X59242491Y-50258657D01*
X59124163Y-50377568D01*
X59016693Y-50496271D01*
X58919515Y-50615233D01*
X58893673Y-50649187D01*
X58784108Y-50807648D01*
X58689039Y-50970898D01*
X58608696Y-51138356D01*
X58543311Y-51309443D01*
X58493115Y-51483578D01*
X58458339Y-51660183D01*
X58443950Y-51777763D01*
X58440176Y-51816683D01*
X58436446Y-51852238D01*
X58433245Y-51879964D01*
X58431410Y-51893390D01*
X58427218Y-51919187D01*
X59473362Y-51919187D01*
X59482810Y-51825921D01*
X59492041Y-51748251D01*
X59503427Y-51680409D01*
X59518216Y-51616374D01*
X59537657Y-51550125D01*
X59544108Y-51530344D01*
X59587021Y-51419314D01*
X59642062Y-51308540D01*
X59709592Y-51197629D01*
X59789969Y-51086182D01*
X59883553Y-50973806D01*
X59990703Y-50860104D01*
X60111779Y-50744680D01*
X60247140Y-50627138D01*
X60397146Y-50507082D01*
X60562155Y-50384118D01*
X60626625Y-50338128D01*
X60670883Y-50307551D01*
X60723638Y-50272120D01*
X60779803Y-50235193D01*
X60834288Y-50200130D01*
X60864750Y-50180951D01*
X60906976Y-50154379D01*
X60959121Y-50121139D01*
X61017890Y-50083355D01*
X61079985Y-50043156D01*
X61142110Y-50002668D01*
X61199559Y-49964947D01*
X61403400Y-49830521D01*
X61532934Y-49911731D01*
X61741897Y-50044772D01*
X61936290Y-50172832D01*
X62116491Y-50296278D01*
X62282880Y-50415475D01*
X62435833Y-50530791D01*
X62575729Y-50642589D01*
X62702946Y-50751238D01*
X62817862Y-50857102D01*
X62920856Y-50960548D01*
X63012305Y-51061942D01*
X63092587Y-51161649D01*
X63162081Y-51260037D01*
X63221164Y-51357470D01*
X63270215Y-51454315D01*
X63309612Y-51550939D01*
X63339733Y-51647706D01*
X63344204Y-51665187D01*
X63354631Y-51711944D01*
X63364700Y-51764950D01*
X63372747Y-51815183D01*
X63374954Y-51831875D01*
X63385086Y-51915218D01*
X63918793Y-51917258D01*
X64452500Y-51919299D01*
X64450945Y-51901383D01*
X64449838Y-51884463D01*
X64448453Y-51857611D01*
X64447142Y-51827906D01*
X64435199Y-51671138D01*
X64412008Y-51517905D01*
X64377265Y-51367780D01*
X64330667Y-51220338D01*
X64271910Y-51075151D01*
X64200690Y-50931794D01*
X64116703Y-50789840D01*
X64019645Y-50648863D01*
X63909212Y-50508436D01*
X63785100Y-50368133D01*
X63647006Y-50227527D01*
X63494625Y-50086192D01*
X63327654Y-49943702D01*
X63145789Y-49799630D01*
X62948726Y-49653550D01*
X62845156Y-49580153D01*
X62814818Y-49559236D01*
X62774682Y-49531985D01*
X62727008Y-49499897D01*
X62674057Y-49464470D01*
X62618089Y-49427204D01*
X62561366Y-49389595D01*
X62506147Y-49353144D01*
X62454694Y-49319347D01*
X62409267Y-49289704D01*
X62372127Y-49265713D01*
X62345535Y-49248871D01*
X62342502Y-49246997D01*
X62316097Y-49230760D01*
X62437752Y-49152647D01*
X62591022Y-49053616D01*
X62731480Y-48961502D01*
X62860189Y-48875506D01*
X62978211Y-48794832D01*
X63086610Y-48718683D01*
X63186449Y-48646261D01*
X63278789Y-48576768D01*
X63364696Y-48509409D01*
X63445230Y-48443386D01*
X63521456Y-48377901D01*
X63594435Y-48312157D01*
X63665232Y-48245357D01*
X63722771Y-48188865D01*
X63797149Y-48113146D01*
X63861694Y-48043976D01*
X63919084Y-47978128D01*
X63971996Y-47912379D01*
X64023109Y-47843504D01*
X64075099Y-47768279D01*
X64087732Y-47749334D01*
X64183669Y-47590584D01*
X64264807Y-47426170D01*
X64331077Y-47256257D01*
X64382413Y-47081007D01*
X64404325Y-46982062D01*
X64411561Y-46941822D01*
X64419084Y-46894071D01*
X64426421Y-46842509D01*
X64433100Y-46790834D01*
X64438650Y-46742745D01*
X64442598Y-46701940D01*
X64444473Y-46672119D01*
X64444563Y-46666595D01*
X64444563Y-46640750D01*
X63917349Y-46640750D01*
X63390136Y-46640749D01*
X63385955Y-46662578D01*
X63382942Y-46682091D01*
X63379369Y-46710578D01*
X63376615Y-46736000D01*
X63358327Y-46851592D01*
X63326496Y-46966342D01*
X63280816Y-47080775D01*
X63220987Y-47195417D01*
X63146705Y-47310795D01*
X63057667Y-47427432D01*
X62953570Y-47545855D01*
X62848369Y-47652834D01*
X62791870Y-47706620D01*
X62734299Y-47759217D01*
X62674596Y-47811414D01*
X62611698Y-47864000D01*
X62544545Y-47917766D01*
X62472073Y-47973501D01*
X62393223Y-48031996D01*
X62306932Y-48094041D01*
X62212138Y-48160424D01*
X62107781Y-48231937D01*
X61992798Y-48309368D01*
X61866127Y-48393508D01*
X61752210Y-48468445D01*
X61693050Y-48507163D01*
X61638072Y-48543036D01*
X61588679Y-48575156D01*
X61546272Y-48602617D01*
X61512256Y-48624510D01*
X61488031Y-48639929D01*
X61475003Y-48647967D01*
X61473141Y-48648937D01*
X61465339Y-48644902D01*
X61445911Y-48633546D01*
X61416678Y-48615990D01*
X61379457Y-48593357D01*
X61336067Y-48566771D01*
X61288326Y-48537352D01*
X61238053Y-48506224D01*
X61187066Y-48474509D01*
X61137184Y-48443329D01*
X61090225Y-48413806D01*
X61048007Y-48387064D01*
X61023500Y-48371403D01*
X60828580Y-48243213D01*
X60648640Y-48118473D01*
X60483252Y-47996811D01*
X60331988Y-47877852D01*
X60194421Y-47761224D01*
X60070121Y-47646554D01*
X59958663Y-47533467D01*
X59859617Y-47421590D01*
X59772556Y-47310550D01*
X59717367Y-47231385D01*
X59650052Y-47118409D01*
X59590963Y-46996699D01*
X59541992Y-46870755D01*
X59505026Y-46745083D01*
X59495331Y-46702265D01*
X59482542Y-46640750D01*
X58427109Y-46640750D01*
X58432133Y-46710203D01*
X58432133Y-46710203D01*
G37*
X58432133Y-46710203D02*
X58441968Y-46825005D01*
X58454292Y-46927824D01*
X58469813Y-47022452D01*
X58489242Y-47112680D01*
X58513287Y-47202301D01*
X58540155Y-47287656D01*
X58585085Y-47409534D01*
X58637810Y-47529038D01*
X58698821Y-47646668D01*
X58768612Y-47762925D01*
X58847674Y-47878312D01*
X58936500Y-47993327D01*
X59035580Y-48108474D01*
X59145408Y-48224252D01*
X59266475Y-48341163D01*
X59399274Y-48459708D01*
X59544296Y-48580388D01*
X59702033Y-48703703D01*
X59872977Y-48830155D01*
X60057622Y-48960246D01*
X60256457Y-49094475D01*
X60418242Y-49200130D01*
X60563077Y-49293480D01*
X60422210Y-49381075D01*
X60212074Y-49514566D01*
X60016747Y-49644568D01*
X59835664Y-49771551D01*
X59668262Y-49895983D01*
X59513976Y-50018333D01*
X59372240Y-50139068D01*
X59242491Y-50258657D01*
X59124163Y-50377568D01*
X59016693Y-50496271D01*
X58919515Y-50615233D01*
X58893673Y-50649187D01*
X58784108Y-50807648D01*
X58689039Y-50970898D01*
X58608696Y-51138356D01*
X58543311Y-51309443D01*
X58493115Y-51483578D01*
X58458339Y-51660183D01*
X58443950Y-51777763D01*
X58440176Y-51816683D01*
X58436446Y-51852238D01*
X58433245Y-51879964D01*
X58431410Y-51893390D01*
X58427218Y-51919187D01*
X59473362Y-51919187D01*
X59482810Y-51825921D01*
X59492041Y-51748251D01*
X59503427Y-51680409D01*
X59518216Y-51616374D01*
X59537657Y-51550125D01*
X59544108Y-51530344D01*
X59587021Y-51419314D01*
X59642062Y-51308540D01*
X59709592Y-51197629D01*
X59789969Y-51086182D01*
X59883553Y-50973806D01*
X59990703Y-50860104D01*
X60111779Y-50744680D01*
X60247140Y-50627138D01*
X60397146Y-50507082D01*
X60562155Y-50384118D01*
X60626625Y-50338128D01*
X60670883Y-50307551D01*
X60723638Y-50272120D01*
X60779803Y-50235193D01*
X60834288Y-50200130D01*
X60864750Y-50180951D01*
X60906976Y-50154379D01*
X60959121Y-50121139D01*
X61017890Y-50083355D01*
X61079985Y-50043156D01*
X61142110Y-50002668D01*
X61199559Y-49964947D01*
X61403400Y-49830521D01*
X61532934Y-49911731D01*
X61741897Y-50044772D01*
X61936290Y-50172832D01*
X62116491Y-50296278D01*
X62282880Y-50415475D01*
X62435833Y-50530791D01*
X62575729Y-50642589D01*
X62702946Y-50751238D01*
X62817862Y-50857102D01*
X62920856Y-50960548D01*
X63012305Y-51061942D01*
X63092587Y-51161649D01*
X63162081Y-51260037D01*
X63221164Y-51357470D01*
X63270215Y-51454315D01*
X63309612Y-51550939D01*
X63339733Y-51647706D01*
X63344204Y-51665187D01*
X63354631Y-51711944D01*
X63364700Y-51764950D01*
X63372747Y-51815183D01*
X63374954Y-51831875D01*
X63385086Y-51915218D01*
X63918793Y-51917258D01*
X64452500Y-51919299D01*
X64450945Y-51901383D01*
X64449838Y-51884463D01*
X64448453Y-51857611D01*
X64447142Y-51827906D01*
X64435199Y-51671138D01*
X64412008Y-51517905D01*
X64377265Y-51367780D01*
X64330667Y-51220338D01*
X64271910Y-51075151D01*
X64200690Y-50931794D01*
X64116703Y-50789840D01*
X64019645Y-50648863D01*
X63909212Y-50508436D01*
X63785100Y-50368133D01*
X63647006Y-50227527D01*
X63494625Y-50086192D01*
X63327654Y-49943702D01*
X63145789Y-49799630D01*
X62948726Y-49653550D01*
X62845156Y-49580153D01*
X62814818Y-49559236D01*
X62774682Y-49531985D01*
X62727008Y-49499897D01*
X62674057Y-49464470D01*
X62618089Y-49427204D01*
X62561366Y-49389595D01*
X62506147Y-49353144D01*
X62454694Y-49319347D01*
X62409267Y-49289704D01*
X62372127Y-49265713D01*
X62345535Y-49248871D01*
X62342502Y-49246997D01*
X62316097Y-49230760D01*
X62437752Y-49152647D01*
X62591022Y-49053616D01*
X62731480Y-48961502D01*
X62860189Y-48875506D01*
X62978211Y-48794832D01*
X63086610Y-48718683D01*
X63186449Y-48646261D01*
X63278789Y-48576768D01*
X63364696Y-48509409D01*
X63445230Y-48443386D01*
X63521456Y-48377901D01*
X63594435Y-48312157D01*
X63665232Y-48245357D01*
X63722771Y-48188865D01*
X63797149Y-48113146D01*
X63861694Y-48043976D01*
X63919084Y-47978128D01*
X63971996Y-47912379D01*
X64023109Y-47843504D01*
X64075099Y-47768279D01*
X64087732Y-47749334D01*
X64183669Y-47590584D01*
X64264807Y-47426170D01*
X64331077Y-47256257D01*
X64382413Y-47081007D01*
X64404325Y-46982062D01*
X64411561Y-46941822D01*
X64419084Y-46894071D01*
X64426421Y-46842509D01*
X64433100Y-46790834D01*
X64438650Y-46742745D01*
X64442598Y-46701940D01*
X64444473Y-46672119D01*
X64444563Y-46666595D01*
X64444563Y-46640750D01*
X63917349Y-46640750D01*
X63390136Y-46640749D01*
X63385955Y-46662578D01*
X63382942Y-46682091D01*
X63379369Y-46710578D01*
X63376615Y-46736000D01*
X63358327Y-46851592D01*
X63326496Y-46966342D01*
X63280816Y-47080775D01*
X63220987Y-47195417D01*
X63146705Y-47310795D01*
X63057667Y-47427432D01*
X62953570Y-47545855D01*
X62848369Y-47652834D01*
X62791870Y-47706620D01*
X62734299Y-47759217D01*
X62674596Y-47811414D01*
X62611698Y-47864000D01*
X62544545Y-47917766D01*
X62472073Y-47973501D01*
X62393223Y-48031996D01*
X62306932Y-48094041D01*
X62212138Y-48160424D01*
X62107781Y-48231937D01*
X61992798Y-48309368D01*
X61866127Y-48393508D01*
X61752210Y-48468445D01*
X61693050Y-48507163D01*
X61638072Y-48543036D01*
X61588679Y-48575156D01*
X61546272Y-48602617D01*
X61512256Y-48624510D01*
X61488031Y-48639929D01*
X61475003Y-48647967D01*
X61473141Y-48648937D01*
X61465339Y-48644902D01*
X61445911Y-48633546D01*
X61416678Y-48615990D01*
X61379457Y-48593357D01*
X61336067Y-48566771D01*
X61288326Y-48537352D01*
X61238053Y-48506224D01*
X61187066Y-48474509D01*
X61137184Y-48443329D01*
X61090225Y-48413806D01*
X61048007Y-48387064D01*
X61023500Y-48371403D01*
X60828580Y-48243213D01*
X60648640Y-48118473D01*
X60483252Y-47996811D01*
X60331988Y-47877852D01*
X60194421Y-47761224D01*
X60070121Y-47646554D01*
X59958663Y-47533467D01*
X59859617Y-47421590D01*
X59772556Y-47310550D01*
X59717367Y-47231385D01*
X59650052Y-47118409D01*
X59590963Y-46996699D01*
X59541992Y-46870755D01*
X59505026Y-46745083D01*
X59495331Y-46702265D01*
X59482542Y-46640750D01*
X58427109Y-46640750D01*
X58432133Y-46710203D01*
G36*
X58467462Y-46231007D02*
X58489730Y-46231974D01*
X58525244Y-46232870D01*
X58572692Y-46233681D01*
X58630759Y-46234391D01*
X58698131Y-46234986D01*
X58773495Y-46235449D01*
X58855536Y-46235767D01*
X58942940Y-46235923D01*
X58978705Y-46235937D01*
X59497723Y-46235937D01*
X59515516Y-46162515D01*
X59559782Y-46007442D01*
X59614911Y-45863488D01*
X59681398Y-45729750D01*
X59759739Y-45605325D01*
X59850430Y-45489311D01*
X59933396Y-45400771D01*
X60041279Y-45302155D01*
X60153702Y-45215567D01*
X60272863Y-45139694D01*
X60400963Y-45073220D01*
X60540199Y-45014831D01*
X60634563Y-44981626D01*
X60795316Y-44935627D01*
X60965233Y-44899876D01*
X61141103Y-44874675D01*
X61319718Y-44860323D01*
X61497869Y-44857121D01*
X61672348Y-44865368D01*
X61769625Y-44875395D01*
X61944757Y-44904201D01*
X62112543Y-44945729D01*
X62272406Y-44999569D01*
X62423768Y-45065309D01*
X62566052Y-45142538D01*
X62698682Y-45230845D01*
X62821078Y-45329820D01*
X62932664Y-45439052D01*
X63032862Y-45558128D01*
X63121096Y-45686639D01*
X63196787Y-45824174D01*
X63240701Y-45922406D01*
X63256933Y-45963652D01*
X63272676Y-46006129D01*
X63285822Y-46044021D01*
X63292518Y-46065281D01*
X63303667Y-46103576D01*
X63316153Y-46146628D01*
X63325332Y-46178390D01*
X63341922Y-46235937D01*
X64428688Y-46235937D01*
X64427933Y-46214109D01*
X64426261Y-46198134D01*
X64422245Y-46170342D01*
X64416470Y-46134517D01*
X64409521Y-46094445D01*
X64408852Y-46090728D01*
X64363109Y-45879390D01*
X64303568Y-45675900D01*
X64230221Y-45480246D01*
X64143062Y-45292414D01*
X64042083Y-45112391D01*
X63927277Y-44940163D01*
X63798638Y-44775718D01*
X63656158Y-44619041D01*
X63605993Y-44568934D01*
X63446229Y-44423987D01*
X63277568Y-44291971D01*
X63100563Y-44173059D01*
X62915762Y-44067427D01*
X62723719Y-43975246D01*
X62524983Y-43896690D01*
X62320107Y-43831933D01*
X62109640Y-43781149D01*
X61894134Y-43744510D01*
X61674141Y-43722191D01*
X61450210Y-43714365D01*
X61222894Y-43721205D01*
X60992743Y-43742886D01*
X60985520Y-43743803D01*
X60764684Y-43778855D01*
X60553361Y-43826373D01*
X60350921Y-43886612D01*
X60156736Y-43959823D01*
X59970178Y-44046259D01*
X59790618Y-44146174D01*
X59617427Y-44259821D01*
X59515375Y-44335427D01*
X59434967Y-44401871D01*
X59350245Y-44479543D01*
X59263973Y-44565464D01*
X59178918Y-44656655D01*
X59097846Y-44750134D01*
X59023522Y-44842923D01*
X58958713Y-44932042D01*
X58950882Y-44943571D01*
X58841906Y-45118839D01*
X58744056Y-45303667D01*
X58658549Y-45495362D01*
X58586596Y-45691230D01*
X58534951Y-45866843D01*
X58528614Y-45892864D01*
X58520469Y-45928631D01*
X58511095Y-45971346D01*
X58501073Y-46018211D01*
X58490981Y-46066428D01*
X58481399Y-46113198D01*
X58472906Y-46155725D01*
X58466082Y-46191208D01*
X58461507Y-46216851D01*
X58459758Y-46229854D01*
X58459756Y-46229984D01*
X58467462Y-46231007D01*
X58467462Y-46231007D01*
G37*
X58467462Y-46231007D02*
X58489730Y-46231974D01*
X58525244Y-46232870D01*
X58572692Y-46233681D01*
X58630759Y-46234391D01*
X58698131Y-46234986D01*
X58773495Y-46235449D01*
X58855536Y-46235767D01*
X58942940Y-46235923D01*
X58978705Y-46235937D01*
X59497723Y-46235937D01*
X59515516Y-46162515D01*
X59559782Y-46007442D01*
X59614911Y-45863488D01*
X59681398Y-45729750D01*
X59759739Y-45605325D01*
X59850430Y-45489311D01*
X59933396Y-45400771D01*
X60041279Y-45302155D01*
X60153702Y-45215567D01*
X60272863Y-45139694D01*
X60400963Y-45073220D01*
X60540199Y-45014831D01*
X60634563Y-44981626D01*
X60795316Y-44935627D01*
X60965233Y-44899876D01*
X61141103Y-44874675D01*
X61319718Y-44860323D01*
X61497869Y-44857121D01*
X61672348Y-44865368D01*
X61769625Y-44875395D01*
X61944757Y-44904201D01*
X62112543Y-44945729D01*
X62272406Y-44999569D01*
X62423768Y-45065309D01*
X62566052Y-45142538D01*
X62698682Y-45230845D01*
X62821078Y-45329820D01*
X62932664Y-45439052D01*
X63032862Y-45558128D01*
X63121096Y-45686639D01*
X63196787Y-45824174D01*
X63240701Y-45922406D01*
X63256933Y-45963652D01*
X63272676Y-46006129D01*
X63285822Y-46044021D01*
X63292518Y-46065281D01*
X63303667Y-46103576D01*
X63316153Y-46146628D01*
X63325332Y-46178390D01*
X63341922Y-46235937D01*
X64428688Y-46235937D01*
X64427933Y-46214109D01*
X64426261Y-46198134D01*
X64422245Y-46170342D01*
X64416470Y-46134517D01*
X64409521Y-46094445D01*
X64408852Y-46090728D01*
X64363109Y-45879390D01*
X64303568Y-45675900D01*
X64230221Y-45480246D01*
X64143062Y-45292414D01*
X64042083Y-45112391D01*
X63927277Y-44940163D01*
X63798638Y-44775718D01*
X63656158Y-44619041D01*
X63605993Y-44568934D01*
X63446229Y-44423987D01*
X63277568Y-44291971D01*
X63100563Y-44173059D01*
X62915762Y-44067427D01*
X62723719Y-43975246D01*
X62524983Y-43896690D01*
X62320107Y-43831933D01*
X62109640Y-43781149D01*
X61894134Y-43744510D01*
X61674141Y-43722191D01*
X61450210Y-43714365D01*
X61222894Y-43721205D01*
X60992743Y-43742886D01*
X60985520Y-43743803D01*
X60764684Y-43778855D01*
X60553361Y-43826373D01*
X60350921Y-43886612D01*
X60156736Y-43959823D01*
X59970178Y-44046259D01*
X59790618Y-44146174D01*
X59617427Y-44259821D01*
X59515375Y-44335427D01*
X59434967Y-44401871D01*
X59350245Y-44479543D01*
X59263973Y-44565464D01*
X59178918Y-44656655D01*
X59097846Y-44750134D01*
X59023522Y-44842923D01*
X58958713Y-44932042D01*
X58950882Y-44943571D01*
X58841906Y-45118839D01*
X58744056Y-45303667D01*
X58658549Y-45495362D01*
X58586596Y-45691230D01*
X58534951Y-45866843D01*
X58528614Y-45892864D01*
X58520469Y-45928631D01*
X58511095Y-45971346D01*
X58501073Y-46018211D01*
X58490981Y-46066428D01*
X58481399Y-46113198D01*
X58472906Y-46155725D01*
X58466082Y-46191208D01*
X58461507Y-46216851D01*
X58459758Y-46229854D01*
X58459756Y-46229984D01*
X58467462Y-46231007D01*
G36*
X58455019Y-52353710D02*
X58458323Y-52370365D01*
X58463711Y-52398372D01*
X58470369Y-52433472D01*
X58475896Y-52462906D01*
X58521375Y-52663931D01*
X58581359Y-52858712D01*
X58655582Y-53046809D01*
X58743774Y-53227785D01*
X58845667Y-53401201D01*
X58960993Y-53566620D01*
X59089484Y-53723603D01*
X59230871Y-53871712D01*
X59384885Y-54010509D01*
X59462135Y-54072852D01*
X59631133Y-54194453D01*
X59809351Y-54303383D01*
X59996199Y-54399452D01*
X60191087Y-54482467D01*
X60393421Y-54552238D01*
X60602613Y-54608574D01*
X60818070Y-54651283D01*
X61039201Y-54680174D01*
X61265416Y-54695057D01*
X61392594Y-54697201D01*
X61627200Y-54690087D01*
X61855861Y-54668997D01*
X62078202Y-54634075D01*
X62293847Y-54585468D01*
X62502418Y-54523323D01*
X62703542Y-54447784D01*
X62896840Y-54358998D01*
X63081938Y-54257112D01*
X63258458Y-54142270D01*
X63426026Y-54014618D01*
X63584264Y-53874304D01*
X63631208Y-53828415D01*
X63775060Y-53673609D01*
X63905413Y-53510449D01*
X64022255Y-53338954D01*
X64125574Y-53159144D01*
X64215360Y-52971037D01*
X64291599Y-52774652D01*
X64306502Y-52730492D01*
X64315819Y-52700370D01*
X64327090Y-52661165D01*
X64339626Y-52615580D01*
X64352736Y-52566318D01*
X64365733Y-52516082D01*
X64377926Y-52467575D01*
X64388626Y-52423501D01*
X64397144Y-52386562D01*
X64402790Y-52359462D01*
X64404874Y-52344903D01*
X64404875Y-52344777D01*
X64403836Y-52342241D01*
X64399988Y-52340061D01*
X64392232Y-52338208D01*
X64379471Y-52336657D01*
X64360605Y-52335382D01*
X64334538Y-52334356D01*
X64300172Y-52333553D01*
X64256407Y-52332946D01*
X64202147Y-52332509D01*
X64136292Y-52332216D01*
X64057746Y-52332041D01*
X63965410Y-52331957D01*
X63869748Y-52331937D01*
X63334622Y-52331937D01*
X63309014Y-52409328D01*
X63252766Y-52555098D01*
X63183527Y-52691762D01*
X63101358Y-52819254D01*
X63006317Y-52937505D01*
X62898465Y-53046448D01*
X62777863Y-53146016D01*
X62644569Y-53236141D01*
X62503844Y-53314157D01*
X62346230Y-53386098D01*
X62186368Y-53444558D01*
X62022425Y-53489978D01*
X61852571Y-53522801D01*
X61674971Y-53543470D01*
X61519594Y-53551731D01*
X61324717Y-53550688D01*
X61136013Y-53537077D01*
X60954110Y-53511112D01*
X60779635Y-53473006D01*
X60613214Y-53422971D01*
X60455476Y-53361223D01*
X60307047Y-53287975D01*
X60168554Y-53203440D01*
X60040624Y-53107831D01*
X59934618Y-53012077D01*
X59836013Y-52905666D01*
X59750411Y-52793716D01*
X59676400Y-52674005D01*
X59612565Y-52544306D01*
X59570500Y-52439093D01*
X59532812Y-52335906D01*
X58450464Y-52331826D01*
X58455019Y-52353710D01*
X58455019Y-52353710D01*
G37*
X58455019Y-52353710D02*
X58458323Y-52370365D01*
X58463711Y-52398372D01*
X58470369Y-52433472D01*
X58475896Y-52462906D01*
X58521375Y-52663931D01*
X58581359Y-52858712D01*
X58655582Y-53046809D01*
X58743774Y-53227785D01*
X58845667Y-53401201D01*
X58960993Y-53566620D01*
X59089484Y-53723603D01*
X59230871Y-53871712D01*
X59384885Y-54010509D01*
X59462135Y-54072852D01*
X59631133Y-54194453D01*
X59809351Y-54303383D01*
X59996199Y-54399452D01*
X60191087Y-54482467D01*
X60393421Y-54552238D01*
X60602613Y-54608574D01*
X60818070Y-54651283D01*
X61039201Y-54680174D01*
X61265416Y-54695057D01*
X61392594Y-54697201D01*
X61627200Y-54690087D01*
X61855861Y-54668997D01*
X62078202Y-54634075D01*
X62293847Y-54585468D01*
X62502418Y-54523323D01*
X62703542Y-54447784D01*
X62896840Y-54358998D01*
X63081938Y-54257112D01*
X63258458Y-54142270D01*
X63426026Y-54014618D01*
X63584264Y-53874304D01*
X63631208Y-53828415D01*
X63775060Y-53673609D01*
X63905413Y-53510449D01*
X64022255Y-53338954D01*
X64125574Y-53159144D01*
X64215360Y-52971037D01*
X64291599Y-52774652D01*
X64306502Y-52730492D01*
X64315819Y-52700370D01*
X64327090Y-52661165D01*
X64339626Y-52615580D01*
X64352736Y-52566318D01*
X64365733Y-52516082D01*
X64377926Y-52467575D01*
X64388626Y-52423501D01*
X64397144Y-52386562D01*
X64402790Y-52359462D01*
X64404874Y-52344903D01*
X64404875Y-52344777D01*
X64403836Y-52342241D01*
X64399988Y-52340061D01*
X64392232Y-52338208D01*
X64379471Y-52336657D01*
X64360605Y-52335382D01*
X64334538Y-52334356D01*
X64300172Y-52333553D01*
X64256407Y-52332946D01*
X64202147Y-52332509D01*
X64136292Y-52332216D01*
X64057746Y-52332041D01*
X63965410Y-52331957D01*
X63869748Y-52331937D01*
X63334622Y-52331937D01*
X63309014Y-52409328D01*
X63252766Y-52555098D01*
X63183527Y-52691762D01*
X63101358Y-52819254D01*
X63006317Y-52937505D01*
X62898465Y-53046448D01*
X62777863Y-53146016D01*
X62644569Y-53236141D01*
X62503844Y-53314157D01*
X62346230Y-53386098D01*
X62186368Y-53444558D01*
X62022425Y-53489978D01*
X61852571Y-53522801D01*
X61674971Y-53543470D01*
X61519594Y-53551731D01*
X61324717Y-53550688D01*
X61136013Y-53537077D01*
X60954110Y-53511112D01*
X60779635Y-53473006D01*
X60613214Y-53422971D01*
X60455476Y-53361223D01*
X60307047Y-53287975D01*
X60168554Y-53203440D01*
X60040624Y-53107831D01*
X59934618Y-53012077D01*
X59836013Y-52905666D01*
X59750411Y-52793716D01*
X59676400Y-52674005D01*
X59612565Y-52544306D01*
X59570500Y-52439093D01*
X59532812Y-52335906D01*
X58450464Y-52331826D01*
X58455019Y-52353710D01*
D13*
X28662380Y-44315166D02*
X29376666Y-44315166D01*
X29519523Y-44267547D01*
X29614761Y-44172309D01*
X29662380Y-44029452D01*
X29662380Y-43934214D01*
X29662380Y-44791357D02*
X28662380Y-44791357D01*
X28662380Y-45172309D01*
X28710000Y-45267547D01*
X28757619Y-45315166D01*
X28852857Y-45362785D01*
X28995714Y-45362785D01*
X29090952Y-45315166D01*
X29138571Y-45267547D01*
X29186190Y-45172309D01*
X29186190Y-44791357D01*
X28662380Y-45696119D02*
X28662380Y-46315166D01*
X29043333Y-45981833D01*
X29043333Y-46124690D01*
X29090952Y-46219928D01*
X29138571Y-46267547D01*
X29233809Y-46315166D01*
X29471904Y-46315166D01*
X29567142Y-46267547D01*
X29614761Y-46219928D01*
X29662380Y-46124690D01*
X29662380Y-45838976D01*
X29614761Y-45743738D01*
X29567142Y-45696119D01*
M02*
